NewtSerifBold.ufo
<glyph name="exclam" format="1">
  <advance width="295"/>
  <unicode hex="0021"/>
  <outline>
    <contour>
      <point x="74" y="562" type="curve" smooth="yes"/>
      <point x="74" y="585"/>
      <point x="80" y="593"/>
      <point x="96" y="598" type="curve" smooth="yes"/>
      <point x="123" y="607"/>
      <point x="194" y="611"/>
      <point x="223" y="611" type="curve" smooth="yes"/>
      <point x="239" y="611"/>
      <point x="247" y="605"/>
      <point x="247" y="584" type="curve" smooth="yes"/>
      <point x="247" y="561"/>
      <point x="210" y="457"/>
      <point x="207" y="442" type="curve" smooth="yes"/>
      <point x="193" y="381"/>
      <point x="187" y="269"/>
      <point x="184" y="226" type="curve" smooth="yes"/>
      <point x="182" y="205"/>
      <point x="173" y="198"/>
      <point x="154" y="197" type="curve" smooth="yes"/>
      <point x="143" y="196"/>
      <point x="129" y="205"/>
      <point x="130" y="227" type="curve"/>
      <point x="130" y="258"/>
      <point x="122" y="369"/>
      <point x="107" y="436" type="curve" smooth="yes"/>
      <point x="103" y="454"/>
      <point x="74" y="549"/>
    </contour>
    <contour>
      <point x="159" y="121" type="curve" smooth="yes"/>
      <point x="200" y="121"/>
      <point x="236" y="102"/>
      <point x="236" y="67" type="curve" smooth="yes"/>
      <point x="236" y="11"/>
      <point x="186" y="-13"/>
      <point x="144" y="-13" type="curve" smooth="yes"/>
      <point x="78" y="-13"/>
      <point x="67" y="21"/>
      <point x="67" y="51" type="curve" smooth="yes"/>
      <point x="67" y="98"/>
      <point x="127" y="121"/>
    </contour>
  </outline>
</glyph>
<glyph name="quotedbl" format="1">
  <advance width="387"/>
  <unicode hex="0022"/>
  <outline>
    <contour>
      <point x="153" y="606" type="curve" smooth="yes"/>
      <point x="173" y="606"/>
      <point x="179" y="590"/>
      <point x="173" y="570" type="curve"/>
      <point x="143" y="487"/>
      <point x="132" y="457"/>
      <point x="125" y="369" type="curve" smooth="yes"/>
      <point x="123" y="350"/>
      <point x="108" y="340"/>
      <point x="97" y="340" type="curve" smooth="yes"/>
      <point x="88" y="340"/>
      <point x="72" y="348"/>
      <point x="72" y="369" type="curve"/>
      <point x="65" y="435"/>
      <point x="50" y="473"/>
      <point x="19" y="556" type="curve" smooth="yes"/>
      <point x="9" y="583"/>
      <point x="24" y="591"/>
      <point x="39" y="597" type="curve" smooth="yes"/>
      <point x="55" y="604"/>
      <point x="127" y="606"/>
    </contour>
    <contour>
      <point x="355" y="606" type="curve" smooth="yes"/>
      <point x="375" y="606"/>
      <point x="381" y="590"/>
      <point x="375" y="570" type="curve"/>
      <point x="345" y="487"/>
      <point x="334" y="457"/>
      <point x="327" y="369" type="curve" smooth="yes"/>
      <point x="325" y="350"/>
      <point x="310" y="340"/>
      <point x="299" y="340" type="curve" smooth="yes"/>
      <point x="290" y="340"/>
      <point x="274" y="348"/>
      <point x="274" y="369" type="curve"/>
      <point x="267" y="435"/>
      <point x="252" y="473"/>
      <point x="221" y="556" type="curve" smooth="yes"/>
      <point x="211" y="583"/>
      <point x="226" y="591"/>
      <point x="241" y="597" type="curve" smooth="yes"/>
      <point x="257" y="604"/>
      <point x="329" y="606"/>
    </contour>
  </outline>
</glyph>
<glyph name="numbersign" format="1">
  <advance width="471"/>
  <unicode hex="0023"/>
  <outline>
    <contour>
      <point x="24" y="420" type="curve"/>
      <point x="31" y="434"/>
      <point x="45" y="449"/>
      <point x="66" y="449" type="curve" smooth="yes"/>
      <point x="104" y="449" type="line" smooth="yes"/>
      <point x="118" y="449"/>
      <point x="115" y="456"/>
      <point x="116" y="469" type="curve" smooth="yes"/>
      <point x="118" y="515"/>
      <point x="118" y="558"/>
      <point x="119" y="584" type="curve" smooth="yes"/>
      <point x="119" y="603"/>
      <point x="141" y="607"/>
      <point x="155" y="610" type="curve" smooth="yes"/>
      <point x="170" y="614"/>
      <point x="184" y="610"/>
      <point x="184" y="586" type="curve" smooth="yes"/>
      <point x="184" y="582"/>
      <point x="183" y="537"/>
      <point x="183" y="475" type="curve" smooth="yes"/>
      <point x="183" y="455"/>
      <point x="179" y="450"/>
      <point x="199" y="450" type="curve" smooth="yes"/>
      <point x="237" y="451"/>
      <point x="248" y="453"/>
      <point x="278" y="455" type="curve" smooth="yes"/>
      <point x="291" y="456"/>
      <point x="292" y="460"/>
      <point x="292" y="478" type="curve" smooth="yes"/>
      <point x="295" y="584" type="line" smooth="yes"/>
      <point x="295" y="603"/>
      <point x="306" y="606"/>
      <point x="324" y="610" type="curve" smooth="yes"/>
      <point x="347" y="615"/>
      <point x="357" y="610"/>
      <point x="357" y="586" type="curve" smooth="yes"/>
      <point x="357" y="582"/>
      <point x="357" y="540"/>
      <point x="356" y="479" type="curve" smooth="yes"/>
      <point x="356" y="462"/>
      <point x="354" y="461"/>
      <point x="370" y="461" type="curve"/>
      <point x="379" y="462"/>
      <point x="389" y="462"/>
      <point x="396" y="464" type="curve" smooth="yes"/>
      <point x="423" y="468"/>
      <point x="442" y="473"/>
      <point x="442" y="454" type="curve" smooth="yes"/>
      <point x="442" y="446"/>
      <point x="430" y="408"/>
      <point x="413" y="399" type="curve"/>
      <point x="403" y="392"/>
      <point x="389" y="392"/>
      <point x="375" y="392" type="curve" smooth="yes"/>
      <point x="357" y="392"/>
      <point x="356" y="391"/>
      <point x="356" y="371" type="curve" smooth="yes"/>
      <point x="354" y="239" type="line" smooth="yes"/>
      <point x="354" y="225"/>
      <point x="351" y="223"/>
      <point x="368" y="223" type="curve" smooth="yes"/>
      <point x="378" y="223"/>
      <point x="387" y="225"/>
      <point x="396" y="226" type="curve" smooth="yes"/>
      <point x="423" y="230"/>
      <point x="442" y="235"/>
      <point x="442" y="217" type="curve" smooth="yes"/>
      <point x="442" y="208"/>
      <point x="430" y="172"/>
      <point x="413" y="163" type="curve" smooth="yes"/>
      <point x="403" y="157"/>
      <point x="389" y="153"/>
      <point x="375" y="153" type="curve" smooth="yes"/>
      <point x="358" y="153"/>
      <point x="354" y="149"/>
      <point x="354" y="126" type="curve" smooth="yes"/>
      <point x="355" y="91"/>
      <point x="355" y="68"/>
      <point x="354" y="51" type="curve"/>
      <point x="354" y="24"/>
      <point x="340" y="13"/>
      <point x="331" y="3" type="curve"/>
      <point x="319" y="-8"/>
      <point x="293" y="-13"/>
      <point x="281" y="-14" type="curve"/>
      <point x="265" y="-17"/>
      <point x="271" y="6"/>
      <point x="272" y="10" type="curve" smooth="yes"/>
      <point x="277" y="33"/>
      <point x="279" y="66"/>
      <point x="281" y="88" type="curve"/>
      <point x="281" y="100"/>
      <point x="283" y="119"/>
      <point x="281" y="137" type="curve"/>
      <point x="281" y="149"/>
      <point x="281" y="152"/>
      <point x="265" y="152" type="curve" smooth="yes"/>
      <point x="238" y="152"/>
      <point x="227" y="152"/>
      <point x="199" y="151" type="curve"/>
      <point x="184" y="149"/>
      <point x="180" y="149"/>
      <point x="181" y="130" type="curve"/>
      <point x="181" y="51" type="line"/>
      <point x="180" y="26"/>
      <point x="173" y="13"/>
      <point x="165" y="4" type="curve"/>
      <point x="153" y="-7"/>
      <point x="117" y="-14"/>
      <point x="105" y="-16" type="curve" smooth="yes"/>
      <point x="89" y="-19"/>
      <point x="95" y="6"/>
      <point x="96" y="10" type="curve" smooth="yes"/>
      <point x="101" y="33"/>
      <point x="104" y="66"/>
      <point x="105" y="88" type="curve" smooth="yes"/>
      <point x="106" y="100"/>
      <point x="108" y="114"/>
      <point x="106" y="132" type="curve" smooth="yes"/>
      <point x="106" y="137"/>
      <point x="108" y="149"/>
      <point x="95" y="151" type="curve" smooth="yes"/>
      <point x="83" y="152"/>
      <point x="70" y="152"/>
      <point x="49" y="151" type="curve" smooth="yes"/>
      <point x="27" y="149"/>
      <point x="19" y="180"/>
      <point x="24" y="193" type="curve" smooth="yes"/>
      <point x="31" y="208"/>
      <point x="45" y="211"/>
      <point x="66" y="211" type="curve" smooth="yes"/>
      <point x="91" y="211" type="line" smooth="yes"/>
      <point x="109" y="211"/>
      <point x="109" y="221"/>
      <point x="109" y="228" type="curve" smooth="yes"/>
      <point x="113" y="281"/>
      <point x="111" y="310"/>
      <point x="114" y="374" type="curve" smooth="yes"/>
      <point x="114" y="377"/>
      <point x="111" y="388"/>
      <point x="101" y="389" type="curve" smooth="yes"/>
      <point x="85" y="390"/>
      <point x="68" y="390"/>
      <point x="48" y="389" type="curve" smooth="yes"/>
      <point x="28" y="388"/>
      <point x="17" y="401"/>
    </contour>
    <contour>
      <point x="183" y="374" type="curve" smooth="yes"/>
      <point x="181" y="313"/>
      <point x="181" y="283"/>
      <point x="181" y="226" type="curve" smooth="yes"/>
      <point x="181" y="211"/>
      <point x="181" y="213"/>
      <point x="195" y="213" type="curve" smooth="yes"/>
      <point x="230" y="214"/>
      <point x="240" y="215"/>
      <point x="269" y="217" type="curve" smooth="yes"/>
      <point x="285" y="219"/>
      <point x="285" y="220"/>
      <point x="285" y="236" type="curve" smooth="yes"/>
      <point x="290" y="371" type="line" smooth="yes"/>
      <point x="290" y="388"/>
      <point x="288" y="391"/>
      <point x="275" y="391" type="curve" smooth="yes"/>
      <point x="245" y="391"/>
      <point x="232" y="390"/>
      <point x="199" y="389" type="curve" smooth="yes"/>
      <point x="185" y="389"/>
      <point x="183" y="385"/>
    </contour>
  </outline>
</glyph>
<glyph name="dollar" format="1">
  <advance width="413"/>
  <unicode hex="0024"/>
  <outline>
    <contour>
      <point x="114" y="211" type="curve"/>
      <point x="126" y="205"/>
      <point x="128" y="196"/>
      <point x="125" y="188" type="curve"/>
      <point x="122" y="175"/>
      <point x="121" y="173"/>
      <point x="122" y="160" type="curve" smooth="yes"/>
      <point x="123" y="140"/>
      <point x="150" y="121"/>
      <point x="179" y="121" type="curve" smooth="yes"/>
      <point x="217" y="121"/>
      <point x="254" y="134"/>
      <point x="253" y="168" type="curve" smooth="yes"/>
      <point x="253" y="178"/>
      <point x="240" y="200"/>
      <point x="216" y="214" type="curve" smooth="yes"/>
      <point x="186" y="231"/>
      <point x="141" y="257"/>
      <point x="118" y="269" type="curve"/>
      <point x="87" y="288"/>
      <point x="38" y="320"/>
      <point x="38" y="395" type="curve" smooth="yes"/>
      <point x="38" y="461"/>
      <point x="90" y="498"/>
      <point x="147" y="517" type="curve"/>
      <point x="172" y="524"/>
      <point x="177" y="520"/>
      <point x="177" y="548" type="curve" smooth="yes"/>
      <point x="177" y="562"/>
      <point x="177" y="574"/>
      <point x="178" y="584" type="curve"/>
      <point x="178" y="603"/>
      <point x="199" y="607"/>
      <point x="214" y="610" type="curve" smooth="yes"/>
      <point x="229" y="614"/>
      <point x="245" y="610"/>
      <point x="245" y="586" type="curve" smooth="yes"/>
      <point x="245" y="584"/>
      <point x="244" y="572"/>
      <point x="244" y="555" type="curve" smooth="yes"/>
      <point x="244" y="530"/>
      <point x="262" y="532"/>
      <point x="270" y="531" type="curve" smooth="yes"/>
      <point x="334" y="527"/>
      <point x="356" y="508"/>
      <point x="359" y="478" type="curve" smooth="yes"/>
      <point x="361" y="455"/>
      <point x="331" y="429"/>
      <point x="306" y="415" type="curve" smooth="yes"/>
      <point x="288" y="405"/>
      <point x="260" y="412"/>
      <point x="264" y="430" type="curve" smooth="yes"/>
      <point x="270" y="456"/>
      <point x="251" y="476"/>
      <point x="218" y="476" type="curve" smooth="yes"/>
      <point x="179" y="476"/>
      <point x="167" y="454"/>
      <point x="168" y="434" type="curve" smooth="yes"/>
      <point x="170" y="412"/>
      <point x="178" y="400"/>
      <point x="191" y="391" type="curve" smooth="yes"/>
      <point x="218" y="373"/>
      <point x="267" y="352"/>
      <point x="292" y="337" type="curve" smooth="yes"/>
      <point x="346" y="305"/>
      <point x="375" y="271"/>
      <point x="376" y="224" type="curve" smooth="yes"/>
      <point x="378" y="151"/>
      <point x="319" y="104"/>
      <point x="253" y="82" type="curve" smooth="yes"/>
      <point x="247" y="79"/>
      <point x="234" y="78"/>
      <point x="234" y="55" type="curve" smooth="yes"/>
      <point x="234" y="35"/>
      <point x="234" y="19"/>
      <point x="233" y="7" type="curve"/>
      <point x="233" y="-12"/>
      <point x="211" y="-16"/>
      <point x="197" y="-19" type="curve" smooth="yes"/>
      <point x="182" y="-23"/>
      <point x="166" y="-19"/>
      <point x="166" y="5" type="curve" smooth="yes"/>
      <point x="166" y="7"/>
      <point x="167" y="22"/>
      <point x="167" y="46" type="curve" smooth="yes"/>
      <point x="167" y="59"/>
      <point x="160" y="67"/>
      <point x="145" y="67" type="curve" smooth="yes"/>
      <point x="51" y="67"/>
      <point x="26" y="96"/>
      <point x="25" y="135" type="curve" smooth="yes"/>
      <point x="24" y="164"/>
      <point x="45" y="194"/>
      <point x="82" y="209" type="curve" smooth="yes"/>
      <point x="96" y="214"/>
      <point x="109" y="215"/>
    </contour>
  </outline>
</glyph>
<glyph name="ampersand" format="1">
  <advance width="780"/>
  <unicode hex="0026"/>
  <outline>
    <contour>
      <point x="47" y="140" type="curve" smooth="yes"/>
      <point x="47" y="232"/>
      <point x="107" y="285"/>
      <point x="186" y="327" type="curve" smooth="yes"/>
      <point x="195" y="331"/>
      <point x="205" y="338"/>
      <point x="195" y="358" type="curve"/>
      <point x="186" y="383"/>
      <point x="178" y="418"/>
      <point x="178" y="442" type="curve" smooth="yes"/>
      <point x="178" y="532"/>
      <point x="269" y="605"/>
      <point x="372" y="605" type="curve" smooth="yes"/>
      <point x="446" y="605"/>
      <point x="535" y="584"/>
      <point x="535" y="507" type="curve" smooth="yes"/>
      <point x="535" y="455"/>
      <point x="475" y="419"/>
      <point x="422" y="391" type="curve" smooth="yes"/>
      <point x="402" y="380"/>
      <point x="388" y="386"/>
      <point x="381" y="391" type="curve" smooth="yes"/>
      <point x="364" y="404"/>
      <point x="384" y="427"/>
      <point x="390" y="434" type="curve" smooth="yes"/>
      <point x="406" y="450"/>
      <point x="411" y="477"/>
      <point x="411" y="501" type="curve" smooth="yes"/>
      <point x="411" y="531"/>
      <point x="391" y="545"/>
      <point x="365" y="545" type="curve" smooth="yes"/>
      <point x="304" y="545"/>
      <point x="306" y="502"/>
      <point x="306" y="467" type="curve" smooth="yes"/>
      <point x="306" y="373"/>
      <point x="428" y="257"/>
      <point x="492" y="197" type="curve" smooth="yes"/>
      <point x="505" y="184"/>
      <point x="514" y="184"/>
      <point x="529" y="198" type="curve"/>
      <point x="564" y="237"/>
      <point x="600" y="290"/>
      <point x="571" y="320" type="curve" smooth="yes"/>
      <point x="559" y="332"/>
      <point x="532" y="320"/>
      <point x="515" y="311" type="curve" smooth="yes"/>
      <point x="508" y="308"/>
      <point x="492" y="313"/>
      <point x="487" y="320" type="curve" smooth="yes"/>
      <point x="482" y="327"/>
      <point x="482" y="338"/>
      <point x="492" y="349" type="curve"/>
      <point x="513" y="377"/>
      <point x="565" y="414"/>
      <point x="601" y="414" type="curve" smooth="yes"/>
      <point x="665" y="414"/>
      <point x="696" y="383"/>
      <point x="696" y="322" type="curve" smooth="yes"/>
      <point x="696" y="253"/>
      <point x="595" y="181"/>
      <point x="572" y="161" type="curve" smooth="yes"/>
      <point x="563" y="152"/>
      <point x="572" y="139"/>
      <point x="595" y="127" type="curve" smooth="yes"/>
      <point x="618" y="115"/>
      <point x="633" y="112"/>
      <point x="673" y="112" type="curve" smooth="yes"/>
      <point x="704" y="112"/>
      <point x="721" y="124"/>
      <point x="735" y="132" type="curve" smooth="yes"/>
      <point x="750" y="141"/>
      <point x="760" y="154"/>
      <point x="778" y="146" type="curve" smooth="yes"/>
      <point x="793" y="140"/>
      <point x="788" y="112"/>
      <point x="784" y="107" type="curve" smooth="yes"/>
      <point x="753" y="66"/>
      <point x="695" y="-12"/>
      <point x="622" y="-12" type="curve" smooth="yes"/>
      <point x="575" y="-12"/>
      <point x="498" y="17"/>
      <point x="462" y="42" type="curve" smooth="yes"/>
      <point x="449" y="51"/>
      <point x="436" y="54"/>
      <point x="426" y="45" type="curve" smooth="yes"/>
      <point x="389" y="16"/>
      <point x="319" y="-13"/>
      <point x="238" y="-13" type="curve" smooth="yes"/>
      <point x="72" y="-13"/>
      <point x="47" y="85"/>
    </contour>
    <contour>
      <point x="205" y="274" type="curve" smooth="yes"/>
      <point x="187" y="263"/>
      <point x="172" y="248"/>
      <point x="172" y="216" type="curve"/>
      <point x="170" y="157"/>
      <point x="241" y="66"/>
      <point x="307" y="66" type="curve" smooth="yes"/>
      <point x="336" y="66"/>
      <point x="358" y="73"/>
      <point x="374" y="87" type="curve"/>
      <point x="387" y="97"/>
      <point x="386" y="104"/>
      <point x="379" y="110" type="curve" smooth="yes"/>
      <point x="318" y="162"/>
      <point x="281" y="208"/>
      <point x="243" y="269" type="curve" smooth="yes"/>
      <point x="234" y="283"/>
      <point x="224" y="286"/>
    </contour>
  </outline>
</glyph>
<glyph name="quotesingle" format="1">
  <advance width="185"/>
  <unicode hex="0027"/>
  <outline>
    <contour>
      <point x="153" y="606" type="curve" smooth="yes"/>
      <point x="173" y="606"/>
      <point x="179" y="590"/>
      <point x="173" y="570" type="curve"/>
      <point x="143" y="487"/>
      <point x="132" y="457"/>
      <point x="125" y="369" type="curve" smooth="yes"/>
      <point x="123" y="350"/>
      <point x="108" y="340"/>
      <point x="97" y="340" type="curve" smooth="yes"/>
      <point x="88" y="340"/>
      <point x="72" y="348"/>
      <point x="72" y="369" type="curve"/>
      <point x="65" y="435"/>
      <point x="50" y="473"/>
      <point x="19" y="556" type="curve" smooth="yes"/>
      <point x="9" y="583"/>
      <point x="24" y="591"/>
      <point x="39" y="597" type="curve" smooth="yes"/>
      <point x="55" y="604"/>
      <point x="127" y="606"/>
    </contour>
  </outline>
</glyph>
<glyph name="parenleft" format="1">
  <advance width="341"/>
  <unicode hex="0028"/>
  <outline>
    <contour>
      <point x="272" y="628" type="curve"/>
      <point x="279" y="618"/>
      <point x="278" y="593"/>
      <point x="260" y="573" type="curve" smooth="yes"/>
      <point x="221" y="531"/>
      <point x="181" y="418"/>
      <point x="181" y="288" type="curve" smooth="yes"/>
      <point x="181" y="163"/>
      <point x="210" y="57"/>
      <point x="269" y="-19" type="curve"/>
      <point x="284" y="-36"/>
      <point x="288" y="-50"/>
      <point x="269" y="-65" type="curve"/>
      <point x="260" y="-74"/>
      <point x="240" y="-66"/>
      <point x="221" y="-55" type="curve" smooth="yes"/>
      <point x="118" y="11"/>
      <point x="42" y="115"/>
      <point x="42" y="288" type="curve" smooth="yes"/>
      <point x="42" y="423"/>
      <point x="136" y="570"/>
      <point x="221" y="620" type="curve" smooth="yes"/>
      <point x="237" y="630"/>
      <point x="260" y="641"/>
    </contour>
  </outline>
</glyph>
<glyph name="parenright" format="1">
  <advance width="341"/>
  <unicode hex="0029"/>
  <outline>
    <contour>
      <point x="66" y="-61" type="curve"/>
      <point x="60" y="-51"/>
      <point x="61" y="-25"/>
      <point x="78" y="-6" type="curve" smooth="yes"/>
      <point x="117" y="36"/>
      <point x="157" y="150"/>
      <point x="157" y="279" type="curve" smooth="yes"/>
      <point x="157" y="404"/>
      <point x="129" y="510"/>
      <point x="69" y="586" type="curve" smooth="yes"/>
      <point x="55" y="604"/>
      <point x="51" y="617"/>
      <point x="69" y="632" type="curve"/>
      <point x="78" y="641"/>
      <point x="98" y="634"/>
      <point x="117" y="622" type="curve" smooth="yes"/>
      <point x="221" y="556"/>
      <point x="296" y="452"/>
      <point x="296" y="279" type="curve" smooth="yes"/>
      <point x="296" y="144"/>
      <point x="202" y="-3"/>
      <point x="117" y="-53" type="curve" smooth="yes"/>
      <point x="101" y="-62"/>
      <point x="78" y="-74"/>
    </contour>
  </outline>
</glyph>
<glyph name="asterisk" format="1">
  <advance width="424"/>
  <unicode hex="002A"/>
  <outline>
    <contour>
      <point x="246" y="527" type="curve" smooth="yes"/>
      <point x="242" y="512"/>
      <point x="237" y="492"/>
      <point x="235" y="476" type="curve" smooth="yes"/>
      <point x="233" y="463"/>
      <point x="240" y="460"/>
      <point x="251" y="465" type="curve" smooth="yes"/>
      <point x="285" y="478"/>
      <point x="311" y="489"/>
      <point x="336" y="508" type="curve" smooth="yes"/>
      <point x="370" y="535"/>
      <point x="383" y="507"/>
      <point x="378" y="471" type="curve" smooth="yes"/>
      <point x="373" y="438"/>
      <point x="358" y="422"/>
      <point x="325" y="416" type="curve" smooth="yes"/>
      <point x="309" y="413"/>
      <point x="285" y="413"/>
      <point x="260" y="409" type="curve" smooth="yes"/>
      <point x="252" y="407"/>
      <point x="247" y="400"/>
      <point x="254" y="390" type="curve" smooth="yes"/>
      <point x="277" y="360"/>
      <point x="308" y="338"/>
      <point x="334" y="320" type="curve" smooth="yes"/>
      <point x="362" y="301"/>
      <point x="367" y="269"/>
      <point x="316" y="262" type="curve"/>
      <point x="278" y="254"/>
      <point x="253" y="266"/>
      <point x="234" y="296" type="curve" smooth="yes"/>
      <point x="226" y="309"/>
      <point x="217" y="334"/>
      <point x="205" y="356" type="curve" smooth="yes"/>
      <point x="198" y="368"/>
      <point x="190" y="364"/>
      <point x="183" y="358" type="curve" smooth="yes"/>
      <point x="157" y="334"/>
      <point x="125" y="301"/>
      <point x="106" y="272" type="curve" smooth="yes"/>
      <point x="83" y="236"/>
      <point x="61" y="256"/>
      <point x="54" y="285" type="curve" smooth="yes"/>
      <point x="47" y="312"/>
      <point x="46" y="335"/>
      <point x="74" y="356" type="curve" smooth="yes"/>
      <point x="87" y="366"/>
      <point x="113" y="379"/>
      <point x="136" y="393" type="curve"/>
      <point x="146" y="401"/>
      <point x="141" y="410"/>
      <point x="134" y="413" type="curve" smooth="yes"/>
      <point x="99" y="430"/>
      <point x="59" y="433"/>
      <point x="29" y="436" type="curve"/>
      <point x="-12" y="442"/>
      <point x="5" y="478"/>
      <point x="26" y="495" type="curve" smooth="yes"/>
      <point x="48" y="513"/>
      <point x="73" y="520"/>
      <point x="104" y="504" type="curve" smooth="yes"/>
      <point x="118" y="497"/>
      <point x="138" y="484"/>
      <point x="159" y="467" type="curve"/>
      <point x="168" y="462"/>
      <point x="175" y="465"/>
      <point x="175" y="479" type="curve" smooth="yes"/>
      <point x="175" y="515"/>
      <point x="170" y="550"/>
      <point x="162" y="577" type="curve" smooth="yes"/>
      <point x="153" y="608"/>
      <point x="171" y="610"/>
      <point x="209" y="600" type="curve" smooth="yes"/>
      <point x="252" y="588"/>
      <point x="256" y="562"/>
    </contour>
  </outline>
</glyph>
<glyph name="plus" format="1">
  <advance width="421"/>
  <unicode hex="002B"/>
  <outline>
    <contour>
      <point x="49" y="243" type="line" smooth="yes"/>
      <point x="28" y="243"/>
      <point x="16" y="260"/>
      <point x="25" y="275" type="curve" smooth="yes"/>
      <point x="34" y="290"/>
      <point x="45" y="307"/>
      <point x="66" y="307" type="curve" smooth="yes"/>
      <point x="157" y="310" type="line" smooth="yes"/>
      <point x="172" y="311"/>
      <point x="174" y="314"/>
      <point x="175" y="329" type="curve" smooth="yes"/>
      <point x="178" y="422" type="line" smooth="yes"/>
      <point x="178" y="443"/>
      <point x="184" y="458"/>
      <point x="210" y="462" type="curve" smooth="yes"/>
      <point x="239" y="466"/>
      <point x="245" y="459"/>
      <point x="245" y="439" type="curve" smooth="yes"/>
      <point x="245" y="418"/>
      <point x="244" y="384"/>
      <point x="244" y="334" type="curve" smooth="yes"/>
      <point x="244" y="316"/>
      <point x="247" y="311"/>
      <point x="260" y="313" type="curve" smooth="yes"/>
      <point x="291" y="316"/>
      <point x="311" y="317"/>
      <point x="348" y="323" type="curve" smooth="yes"/>
      <point x="373" y="327"/>
      <point x="392" y="331"/>
      <point x="392" y="311" type="curve" smooth="yes"/>
      <point x="392" y="306"/>
      <point x="380" y="267"/>
      <point x="364" y="258" type="curve"/>
      <point x="354" y="251"/>
      <point x="340" y="245"/>
      <point x="327" y="245" type="curve" smooth="yes"/>
      <point x="312" y="244"/>
      <point x="298" y="244"/>
      <point x="265" y="243" type="curve" smooth="yes"/>
      <point x="247" y="243"/>
      <point x="243" y="240"/>
      <point x="243" y="223" type="curve" smooth="yes"/>
      <point x="243" y="187"/>
      <point x="242" y="167"/>
      <point x="242" y="152" type="curve" smooth="yes"/>
      <point x="242" y="138"/>
      <point x="242" y="125"/>
      <point x="236" y="114" type="curve" smooth="yes"/>
      <point x="227" y="98"/>
      <point x="180" y="86"/>
      <point x="172" y="86" type="curve" smooth="yes"/>
      <point x="154" y="86"/>
      <point x="161" y="105"/>
      <point x="163" y="130" type="curve" smooth="yes"/>
      <point x="172" y="226" type="line" smooth="yes"/>
      <point x="173" y="242"/>
      <point x="169" y="243"/>
      <point x="154" y="243" type="curve" smooth="yes"/>
    </contour>
  </outline>
</glyph>
<glyph name="comma" format="1">
  <advance width="253"/>
  <unicode hex="002C"/>
  <outline>
    <contour>
      <point x="72" y="-176" type="curve" smooth="yes"/>
      <point x="67" y="-173"/>
      <point x="58" y="-153"/>
      <point x="76" y="-131" type="curve"/>
      <point x="107" y="-88"/>
      <point x="122" y="-27"/>
      <point x="108" y="-8" type="curve" smooth="yes"/>
      <point x="94" y="10"/>
      <point x="80" y="3"/>
      <point x="66" y="0" type="curve" smooth="yes"/>
      <point x="51" y="-3"/>
      <point x="44" y="-4"/>
      <point x="37" y="4" type="curve" smooth="yes"/>
      <point x="28" y="14"/>
      <point x="35" y="31"/>
      <point x="47" y="56" type="curve" smooth="yes"/>
      <point x="65" y="94"/>
      <point x="109" y="126"/>
      <point x="146" y="126" type="curve" smooth="yes"/>
      <point x="171" y="126"/>
      <point x="213" y="118"/>
      <point x="213" y="28" type="curve" smooth="yes"/>
      <point x="213" y="-24"/>
      <point x="170" y="-102"/>
      <point x="128" y="-151" type="curve" smooth="yes"/>
      <point x="100" y="-183"/>
      <point x="82" y="-184"/>
    </contour>
  </outline>
</glyph>
<glyph name="hyphen" format="1">
  <advance width="348"/>
  <unicode hex="002D"/>
  <outline>
    <contour>
      <point x="82" y="298" type="curve"/>
      <point x="104" y="302"/>
      <point x="204" y="302"/>
      <point x="245" y="318" type="curve" smooth="yes"/>
      <point x="286" y="334"/>
      <point x="279" y="292"/>
      <point x="268" y="267" type="curve" smooth="yes"/>
      <point x="256" y="242"/>
      <point x="247" y="223"/>
      <point x="198" y="223" type="curve"/>
      <point x="169" y="222"/>
      <point x="100" y="221"/>
      <point x="74" y="221" type="curve" smooth="yes"/>
      <point x="54" y="221"/>
      <point x="40" y="231"/>
      <point x="50" y="259" type="curve" smooth="yes"/>
      <point x="56" y="278"/>
      <point x="66" y="293"/>
    </contour>
  </outline>
</glyph>
<glyph name="period" format="1">
  <advance width="276"/>
  <unicode hex="002E"/>
  <outline>
    <contour>
      <point x="146" y="133" type="curve" smooth="yes"/>
      <point x="189" y="133"/>
      <point x="226" y="113"/>
      <point x="226" y="77" type="curve" smooth="yes"/>
      <point x="226" y="19"/>
      <point x="174" y="-7"/>
      <point x="130" y="-7" type="curve" smooth="yes"/>
      <point x="62" y="-7"/>
      <point x="51" y="29"/>
      <point x="51" y="60" type="curve" smooth="yes"/>
      <point x="51" y="109"/>
      <point x="113" y="133"/>
    </contour>
  </outline>
</glyph>
<glyph name="slash" format="1">
  <advance width="455"/>
  <unicode hex="002F"/>
  <outline>
    <contour>
      <point x="52" y="-35" type="curve"/>
      <point x="24" y="-30"/>
      <point x="40" y="0"/>
      <point x="70" y="46" type="curve"/>
      <point x="117" y="123"/>
      <point x="301" y="449"/>
      <point x="341" y="525" type="curve"/>
      <point x="353" y="545"/>
      <point x="363" y="577"/>
      <point x="371" y="598" type="curve" smooth="yes"/>
      <point x="376" y="611"/>
      <point x="400" y="625"/>
      <point x="412" y="606" type="curve"/>
      <point x="419" y="597"/>
      <point x="414" y="544"/>
      <point x="409" y="523" type="curve" smooth="yes"/>
      <point x="402" y="496"/>
      <point x="398" y="481"/>
      <point x="385" y="459" type="curve" smooth="yes"/>
      <point x="351" y="404"/>
      <point x="175" y="102"/>
      <point x="116" y="6" type="curve" smooth="yes"/>
      <point x="94" y="-28"/>
      <point x="81" y="-39"/>
    </contour>
  </outline>
</glyph>
<glyph name="zero" format="1">
  <advance width="500"/>
  <unicode hex="0030"/>
  <outline>
    <contour>
      <point x="266" y="611" type="curve" smooth="yes"/>
      <point x="421" y="611"/>
      <point x="455" y="476"/>
      <point x="458" y="364" type="curve" smooth="yes"/>
      <point x="462" y="149"/>
      <point x="385" y="-19"/>
      <point x="239" y="-19" type="curve" smooth="yes"/>
      <point x="120" y="-19"/>
      <point x="45" y="93"/>
      <point x="44" y="244" type="curve" smooth="yes"/>
      <point x="43" y="533"/>
      <point x="182" y="611"/>
    </contour>
    <contour>
      <point x="194" y="291" type="curve"/>
      <point x="196" y="94"/>
      <point x="215" y="51"/>
      <point x="258" y="51" type="curve" smooth="yes"/>
      <point x="299" y="51"/>
      <point x="312" y="135"/>
      <point x="308" y="326" type="curve" smooth="yes"/>
      <point x="304" y="480"/>
      <point x="300" y="540"/>
      <point x="249" y="540" type="curve" smooth="yes"/>
      <point x="210" y="540"/>
      <point x="189" y="497"/>
    </contour>
  </outline>
</glyph>
<glyph name="one" format="1">
  <advance width="404"/>
  <unicode hex="0031"/>
  <outline>
    <contour>
      <point x="58" y="-3" type="curve" smooth="yes"/>
      <point x="43" y="-4"/>
      <point x="33" y="7"/>
      <point x="33" y="20" type="curve" smooth="yes"/>
      <point x="33" y="29"/>
      <point x="44" y="47"/>
      <point x="58" y="49" type="curve" smooth="yes"/>
      <point x="119" y="56"/>
      <point x="127" y="81"/>
      <point x="130" y="154" type="curve"/>
      <point x="131" y="204"/>
      <point x="138" y="330"/>
      <point x="135" y="433" type="curve" smooth="yes"/>
      <point x="135" y="448"/>
      <point x="129" y="457"/>
      <point x="113" y="447" type="curve" smooth="yes"/>
      <point x="100" y="439"/>
      <point x="92" y="434"/>
      <point x="72" y="424" type="curve" smooth="yes"/>
      <point x="56" y="416"/>
      <point x="40" y="426"/>
      <point x="35" y="434" type="curve" smooth="yes"/>
      <point x="29" y="445"/>
      <point x="35" y="465"/>
      <point x="55" y="478" type="curve"/>
      <point x="94" y="506"/>
      <point x="187" y="566"/>
      <point x="214" y="587" type="curve" smooth="yes"/>
      <point x="250" y="614"/>
      <point x="295" y="612"/>
      <point x="292" y="572" type="curve"/>
      <point x="284" y="406"/>
      <point x="281" y="296"/>
      <point x="284" y="143" type="curve" smooth="yes"/>
      <point x="285" y="70"/>
      <point x="303" y="57"/>
      <point x="345" y="52" type="curve" smooth="yes"/>
      <point x="356" y="51"/>
      <point x="369" y="41"/>
      <point x="369" y="28" type="curve" smooth="yes"/>
      <point x="369" y="18"/>
      <point x="364" y="-4"/>
      <point x="342" y="-2" type="curve" smooth="yes"/>
      <point x="269" y="5"/>
      <point x="98" y="0"/>
    </contour>
  </outline>
</glyph>
<glyph name="two" format="1">
  <advance width="524"/>
  <unicode hex="0032"/>
  <outline>
    <contour>
      <point x="109" y="119" type="curve" smooth="yes"/>
      <point x="180" y="180"/>
      <point x="210" y="212"/>
      <point x="274" y="293" type="curve" smooth="yes"/>
      <point x="306" y="335"/>
      <point x="310" y="363"/>
      <point x="310" y="390" type="curve" smooth="yes"/>
      <point x="310" y="453"/>
      <point x="289" y="453"/>
      <point x="263" y="453" type="curve" smooth="yes"/>
      <point x="253" y="453"/>
      <point x="226" y="447"/>
      <point x="207" y="441" type="curve" smooth="yes"/>
      <point x="188" y="434"/>
      <point x="165" y="431"/>
      <point x="136" y="431" type="curve" smooth="yes"/>
      <point x="75" y="431"/>
      <point x="65" y="468"/>
      <point x="76" y="531" type="curve"/>
      <point x="77" y="550"/>
      <point x="91" y="586"/>
      <point x="101" y="604" type="curve" smooth="yes"/>
      <point x="107" y="614"/>
      <point x="120" y="621"/>
      <point x="127" y="621" type="curve" smooth="yes"/>
      <point x="136" y="621"/>
      <point x="143" y="613"/>
      <point x="150" y="599" type="curve"/>
      <point x="152" y="590"/>
      <point x="170" y="585"/>
      <point x="193" y="585" type="curve" smooth="yes"/>
      <point x="237" y="585"/>
      <point x="249" y="604"/>
      <point x="326" y="604" type="curve" smooth="yes"/>
      <point x="403" y="604"/>
      <point x="437" y="569"/>
      <point x="438" y="492" type="curve" smooth="yes"/>
      <point x="439" y="423"/>
      <point x="404" y="370"/>
      <point x="376" y="328" type="curve" smooth="yes"/>
      <point x="335" y="268"/>
      <point x="310" y="231"/>
      <point x="241" y="159" type="curve"/>
      <point x="224" y="139"/>
      <point x="228" y="135"/>
      <point x="242" y="133" type="curve" smooth="yes"/>
      <point x="276" y="130"/>
      <point x="339" y="130"/>
      <point x="359" y="133" type="curve" smooth="yes"/>
      <point x="399" y="138"/>
      <point x="416" y="148"/>
      <point x="431" y="187" type="curve" smooth="yes"/>
      <point x="434" y="196"/>
      <point x="441" y="208"/>
      <point x="457" y="208" type="curve" smooth="yes"/>
      <point x="471" y="208"/>
      <point x="480" y="198"/>
      <point x="480" y="183" type="curve" smooth="yes"/>
      <point x="480" y="132"/>
      <point x="453" y="49"/>
      <point x="425" y="19" type="curve" smooth="yes"/>
      <point x="419" y="13"/>
      <point x="397" y="-6"/>
      <point x="373" y="-4" type="curve" smooth="yes"/>
      <point x="288" y="5"/>
      <point x="145" y="3"/>
      <point x="52" y="-3" type="curve" smooth="yes"/>
      <point x="44" y="-3"/>
      <point x="36" y="10"/>
      <point x="45" y="28" type="curve" smooth="yes"/>
      <point x="60" y="56"/>
      <point x="84" y="98"/>
    </contour>
  </outline>
</glyph>
<glyph name="three" format="1">
  <advance width="447"/>
  <unicode hex="0033"/>
  <outline>
    <contour>
      <point x="114" y="624" type="curve" smooth="yes"/>
      <point x="122" y="624"/>
      <point x="132" y="617"/>
      <point x="136" y="609" type="curve" smooth="yes"/>
      <point x="143" y="593"/>
      <point x="152" y="584"/>
      <point x="177" y="586" type="curve"/>
      <point x="221" y="586"/>
      <point x="241" y="604"/>
      <point x="281" y="604" type="curve"/>
      <point x="317" y="603"/>
      <point x="379" y="588"/>
      <point x="379" y="529" type="curve" smooth="yes"/>
      <point x="379" y="457"/>
      <point x="344" y="415"/>
      <point x="313" y="388" type="curve" smooth="yes"/>
      <point x="296" y="374"/>
      <point x="299" y="366"/>
      <point x="316" y="363" type="curve" smooth="yes"/>
      <point x="376" y="352"/>
      <point x="412" y="322"/>
      <point x="412" y="212" type="curve" smooth="yes"/>
      <point x="412" y="104"/>
      <point x="347" y="-12"/>
      <point x="188" y="-12" type="curve" smooth="yes"/>
      <point x="129" y="-12"/>
      <point x="40" y="-4"/>
      <point x="40" y="72" type="curve" smooth="yes"/>
      <point x="40" y="112"/>
      <point x="87" y="163"/>
      <point x="141" y="170" type="curve" smooth="yes"/>
      <point x="151" y="171"/>
      <point x="163" y="172"/>
      <point x="172" y="163" type="curve" smooth="yes"/>
      <point x="178" y="157"/>
      <point x="176" y="139"/>
      <point x="172" y="132" type="curve" smooth="yes"/>
      <point x="157" y="104"/>
      <point x="137" y="51"/>
      <point x="217" y="51" type="curve" smooth="yes"/>
      <point x="247" y="51"/>
      <point x="294" y="77"/>
      <point x="294" y="161" type="curve" smooth="yes"/>
      <point x="294" y="231"/>
      <point x="231" y="266"/>
      <point x="154" y="266" type="curve" smooth="yes"/>
      <point x="125" y="266"/>
      <point x="120" y="279"/>
      <point x="120" y="289" type="curve" smooth="yes"/>
      <point x="120" y="301"/>
      <point x="140" y="343"/>
      <point x="166" y="352" type="curve" smooth="yes"/>
      <point x="244" y="380"/>
      <point x="263" y="397"/>
      <point x="263" y="425" type="curve" smooth="yes"/>
      <point x="263" y="486"/>
      <point x="179" y="453"/>
      <point x="153" y="448" type="curve" smooth="yes"/>
      <point x="69" y="430"/>
      <point x="54" y="481"/>
      <point x="64" y="535" type="curve" smooth="yes"/>
      <point x="66" y="549"/>
      <point x="78" y="592"/>
      <point x="86" y="604" type="curve" smooth="yes"/>
      <point x="93" y="615"/>
      <point x="105" y="624"/>
    </contour>
  </outline>
</glyph>
<glyph name="four" format="1">
  <advance width="543"/>
  <unicode hex="0034"/>
  <outline>
    <contour>
      <point x="55" y="159" type="curve" smooth="yes"/>
      <point x="38" y="159"/>
      <point x="32" y="173"/>
      <point x="34" y="187" type="curve"/>
      <point x="42" y="218"/>
      <point x="54" y="256"/>
      <point x="64" y="268" type="curve" smooth="yes"/>
      <point x="157" y="373"/>
      <point x="178" y="403"/>
      <point x="231" y="489" type="curve" smooth="yes"/>
      <point x="246" y="512"/>
      <point x="256" y="531"/>
      <point x="264" y="554" type="curve" smooth="yes"/>
      <point x="270" y="570"/>
      <point x="283" y="589"/>
      <point x="296" y="590" type="curve"/>
      <point x="318" y="596"/>
      <point x="370" y="599"/>
      <point x="387" y="598" type="curve" smooth="yes"/>
      <point x="396" y="598"/>
      <point x="397" y="585"/>
      <point x="396" y="575" type="curve"/>
      <point x="396" y="596"/>
      <point x="387" y="318"/>
      <point x="387" y="270" type="curve" smooth="yes"/>
      <point x="387" y="263"/>
      <point x="387" y="255"/>
      <point x="406" y="255" type="curve" smooth="yes"/>
      <point x="432" y="255"/>
      <point x="443" y="265"/>
      <point x="452" y="274" type="curve" smooth="yes"/>
      <point x="462" y="285"/>
      <point x="472" y="290"/>
      <point x="486" y="285" type="curve" smooth="yes"/>
      <point x="499" y="280"/>
      <point x="503" y="260"/>
      <point x="497" y="250" type="curve"/>
      <point x="483" y="221"/>
      <point x="471" y="186"/>
      <point x="458" y="173" type="curve" smooth="yes"/>
      <point x="450" y="166"/>
      <point x="424" y="157"/>
      <point x="397" y="157" type="curve" smooth="yes"/>
      <point x="387" y="157"/>
      <point x="384" y="139"/>
      <point x="384" y="119" type="curve" smooth="yes"/>
      <point x="384" y="89"/>
      <point x="390" y="74"/>
      <point x="400" y="41" type="curve" smooth="yes"/>
      <point x="406" y="23"/>
      <point x="391" y="7"/>
      <point x="387" y="4" type="curve" smooth="yes"/>
      <point x="343" y="-23"/>
      <point x="280" y="-31"/>
      <point x="258" y="-35" type="curve"/>
      <point x="235" y="-38"/>
      <point x="234" y="-23"/>
      <point x="234" y="4" type="curve" smooth="yes"/>
      <point x="234" y="16"/>
      <point x="241" y="48"/>
      <point x="243" y="65" type="curve" smooth="yes"/>
      <point x="247" y="109"/>
      <point x="247" y="96"/>
      <point x="247" y="138" type="curve" smooth="yes"/>
      <point x="247" y="162"/>
      <point x="238" y="166"/>
      <point x="226" y="166" type="curve" smooth="yes"/>
      <point x="184" y="166"/>
      <point x="147" y="159"/>
    </contour>
    <contour>
      <point x="238" y="257" type="curve" smooth="yes"/>
      <point x="247" y="259"/>
      <point x="252" y="263"/>
      <point x="253" y="279" type="curve" smooth="yes"/>
      <point x="257" y="313"/>
      <point x="261" y="333"/>
      <point x="258" y="365" type="curve" smooth="yes"/>
      <point x="256" y="379"/>
      <point x="258" y="388"/>
      <point x="248" y="388" type="curve" smooth="yes"/>
      <point x="242" y="388"/>
      <point x="236" y="383"/>
      <point x="226" y="370" type="curve" smooth="yes"/>
      <point x="200" y="340"/>
      <point x="194" y="335"/>
      <point x="154" y="282" type="curve" smooth="yes"/>
      <point x="141" y="265"/>
      <point x="141" y="254"/>
      <point x="165" y="254" type="curve" smooth="yes"/>
      <point x="181" y="254"/>
      <point x="216" y="251"/>
    </contour>
  </outline>
</glyph>
<glyph name="five" format="1">
  <advance width="453"/>
  <unicode hex="0035"/>
  <outline>
    <contour>
      <point x="407" y="607" type="curve"/>
      <point x="401" y="578"/>
      <point x="378" y="508"/>
      <point x="360" y="485" type="curve" smooth="yes"/>
      <point x="346" y="467"/>
      <point x="321" y="460"/>
      <point x="313" y="460" type="curve" smooth="yes"/>
      <point x="246" y="460"/>
      <point x="244" y="479"/>
      <point x="185" y="478" type="curve" smooth="yes"/>
      <point x="166" y="478"/>
      <point x="161" y="472"/>
      <point x="154" y="450" type="curve" smooth="yes"/>
      <point x="148" y="430"/>
      <point x="147" y="419"/>
      <point x="162" y="417" type="curve"/>
      <point x="211" y="407"/>
      <point x="225" y="405"/>
      <point x="261" y="394" type="curve" smooth="yes"/>
      <point x="338" y="370"/>
      <point x="409" y="335"/>
      <point x="411" y="212" type="curve"/>
      <point x="411" y="94"/>
      <point x="323" y="-8"/>
      <point x="176" y="-8" type="curve" smooth="yes"/>
      <point x="68" y="-8"/>
      <point x="42" y="39"/>
      <point x="42" y="77" type="curve" smooth="yes"/>
      <point x="42" y="126"/>
      <point x="103" y="164"/>
      <point x="119" y="172" type="curve" smooth="yes"/>
      <point x="131" y="178"/>
      <point x="162" y="186"/>
      <point x="171" y="178" type="curve" smooth="yes"/>
      <point x="179" y="172"/>
      <point x="177" y="159"/>
      <point x="170" y="149" type="curve" smooth="yes"/>
      <point x="162" y="136"/>
      <point x="158" y="123"/>
      <point x="158" y="103" type="curve" smooth="yes"/>
      <point x="158" y="78"/>
      <point x="169" y="60"/>
      <point x="215" y="60" type="curve" smooth="yes"/>
      <point x="274" y="60"/>
      <point x="304" y="93"/>
      <point x="304" y="160" type="curve" smooth="yes"/>
      <point x="304" y="197"/>
      <point x="284" y="223"/>
      <point x="244" y="243" type="curve" smooth="yes"/>
      <point x="193" y="269"/>
      <point x="140" y="284"/>
      <point x="63" y="293" type="curve" smooth="yes"/>
      <point x="51" y="295"/>
      <point x="37" y="296"/>
      <point x="47" y="325" type="curve"/>
      <point x="76" y="394"/>
      <point x="113" y="520"/>
      <point x="133" y="582" type="curve" smooth="yes"/>
      <point x="140" y="603"/>
      <point x="146" y="604"/>
      <point x="162" y="603" type="curve"/>
      <point x="208" y="595"/>
      <point x="277" y="592"/>
      <point x="305" y="592" type="curve" smooth="yes"/>
      <point x="322" y="592"/>
      <point x="348" y="596"/>
      <point x="361" y="611" type="curve"/>
      <point x="380" y="636"/>
      <point x="412" y="626"/>
    </contour>
  </outline>
</glyph>
<glyph name="six" format="1">
  <advance width="491"/>
  <unicode hex="0036"/>
  <outline>
    <contour>
      <point x="234" y="338" type="curve" smooth="yes"/>
      <point x="234" y="346"/>
      <point x="236" y="359"/>
      <point x="251" y="367" type="curve" smooth="yes"/>
      <point x="266" y="375"/>
      <point x="290" y="378"/>
      <point x="304" y="378" type="curve" smooth="yes"/>
      <point x="380" y="378"/>
      <point x="449" y="326"/>
      <point x="449" y="234" type="curve"/>
      <point x="446" y="77"/>
      <point x="349" y="-19"/>
      <point x="221" y="-19" type="curve" smooth="yes"/>
      <point x="92" y="-19"/>
      <point x="42" y="78"/>
      <point x="42" y="173" type="curve" smooth="yes"/>
      <point x="42" y="362"/>
      <point x="120" y="543"/>
      <point x="335" y="603" type="curve" smooth="yes"/>
      <point x="348" y="607"/>
      <point x="372" y="607"/>
      <point x="378" y="592" type="curve" smooth="yes"/>
      <point x="382" y="581"/>
      <point x="378" y="562"/>
      <point x="364" y="556" type="curve" smooth="yes"/>
      <point x="242" y="495"/>
      <point x="192" y="412"/>
      <point x="192" y="210" type="curve" smooth="yes"/>
      <point x="192" y="115"/>
      <point x="199" y="41"/>
      <point x="243" y="41" type="curve" smooth="yes"/>
      <point x="290" y="41"/>
      <point x="295" y="83"/>
      <point x="295" y="200" type="curve" smooth="yes"/>
      <point x="295" y="302"/>
      <point x="284" y="301"/>
      <point x="268" y="312" type="curve" smooth="yes"/>
      <point x="257" y="320"/>
      <point x="234" y="316"/>
    </contour>
  </outline>
</glyph>
<glyph name="seven" format="1">
  <advance width="424"/>
  <unicode hex="0037"/>
  <outline>
    <contour>
      <point x="95" y="620" type="curve" smooth="yes"/>
      <point x="106" y="620"/>
      <point x="108" y="614"/>
      <point x="109" y="604" type="curve" smooth="yes"/>
      <point x="114" y="577"/>
      <point x="135" y="574"/>
      <point x="163" y="574" type="curve" smooth="yes"/>
      <point x="219" y="574"/>
      <point x="303" y="582"/>
      <point x="359" y="596" type="curve" smooth="yes"/>
      <point x="379" y="601"/>
      <point x="399" y="609"/>
      <point x="409" y="604" type="curve" smooth="yes"/>
      <point x="423" y="598"/>
      <point x="420" y="576"/>
      <point x="412" y="566" type="curve" smooth="yes"/>
      <point x="396" y="545"/>
      <point x="387" y="530"/>
      <point x="367" y="496" type="curve"/>
      <point x="343" y="452"/>
      <point x="259" y="240"/>
      <point x="255" y="114" type="curve" smooth="yes"/>
      <point x="255" y="111"/>
      <point x="257" y="72"/>
      <point x="261" y="48" type="curve" smooth="yes"/>
      <point x="263" y="40"/>
      <point x="257" y="8"/>
      <point x="235" y="-3" type="curve" smooth="yes"/>
      <point x="222" y="-10"/>
      <point x="159" y="-27"/>
      <point x="136" y="-29" type="curve"/>
      <point x="109" y="-33"/>
      <point x="98" y="-21"/>
      <point x="98" y="2" type="curve" smooth="yes"/>
      <point x="97" y="82"/>
      <point x="186" y="289"/>
      <point x="273" y="430" type="curve" smooth="yes"/>
      <point x="284" y="448"/>
      <point x="287" y="465"/>
      <point x="263" y="458" type="curve" smooth="yes"/>
      <point x="231" y="448"/>
      <point x="184" y="426"/>
      <point x="112" y="426" type="curve" smooth="yes"/>
      <point x="42" y="426"/>
      <point x="37" y="458"/>
      <point x="43" y="512" type="curve"/>
      <point x="49" y="539"/>
      <point x="66" y="588"/>
      <point x="76" y="604" type="curve" smooth="yes"/>
      <point x="83" y="617"/>
      <point x="89" y="620"/>
    </contour>
  </outline>
</glyph>
<glyph name="eight" format="1">
  <advance width="505"/>
  <unicode hex="0038"/>
  <outline>
    <contour>
      <point x="236" y="-17" type="curve" smooth="yes"/>
      <point x="111" y="-17"/>
      <point x="42" y="35"/>
      <point x="42" y="117" type="curve" smooth="yes"/>
      <point x="42" y="209"/>
      <point x="96" y="249"/>
      <point x="137" y="275" type="curve" smooth="yes"/>
      <point x="152" y="285"/>
      <point x="150" y="300"/>
      <point x="140" y="305" type="curve" smooth="yes"/>
      <point x="97" y="329"/>
      <point x="59" y="343"/>
      <point x="59" y="440" type="curve" smooth="yes"/>
      <point x="59" y="508"/>
      <point x="136" y="606"/>
      <point x="259" y="606" type="curve" smooth="yes"/>
      <point x="380" y="606"/>
      <point x="428" y="556"/>
      <point x="428" y="486" type="curve" smooth="yes"/>
      <point x="428" y="439"/>
      <point x="405" y="410"/>
      <point x="368" y="383" type="curve" smooth="yes"/>
      <point x="349" y="370"/>
      <point x="360" y="360"/>
      <point x="370" y="355" type="curve" smooth="yes"/>
      <point x="389" y="347"/>
      <point x="463" y="321"/>
      <point x="463" y="206" type="curve" smooth="yes"/>
      <point x="463" y="81"/>
      <point x="375" y="-17"/>
    </contour>
    <contour>
      <point x="223" y="256" type="curve" smooth="yes"/>
      <point x="205" y="261"/>
      <point x="201" y="256"/>
      <point x="189" y="244" type="curve"/>
      <point x="173" y="230"/>
      <point x="170" y="208"/>
      <point x="170" y="180" type="curve" smooth="yes"/>
      <point x="170" y="110"/>
      <point x="229" y="72"/>
      <point x="276" y="72" type="curve" smooth="yes"/>
      <point x="344" y="72"/>
      <point x="356" y="102"/>
      <point x="356" y="132" type="curve" smooth="yes"/>
      <point x="356" y="192"/>
      <point x="304" y="231"/>
    </contour>
    <contour>
      <point x="311" y="405" type="curve" smooth="yes"/>
      <point x="323" y="425"/>
      <point x="321" y="435"/>
      <point x="319" y="460" type="curve" smooth="yes"/>
      <point x="317" y="488"/>
      <point x="264" y="533"/>
      <point x="223" y="533" type="curve" smooth="yes"/>
      <point x="194" y="533"/>
      <point x="173" y="513"/>
      <point x="173" y="481" type="curve"/>
      <point x="174" y="452"/>
      <point x="199" y="421"/>
      <point x="270" y="393" type="curve" smooth="yes"/>
      <point x="285" y="388"/>
      <point x="302" y="390"/>
    </contour>
  </outline>
</glyph>
<glyph name="nine" format="1">
  <advance width="491"/>
  <unicode hex="0039"/>
  <outline>
    <contour>
      <point x="257" y="250" type="curve" smooth="yes"/>
      <point x="257" y="242"/>
      <point x="255" y="229"/>
      <point x="240" y="221" type="curve" smooth="yes"/>
      <point x="225" y="212"/>
      <point x="201" y="210"/>
      <point x="187" y="210" type="curve" smooth="yes"/>
      <point x="110" y="210"/>
      <point x="42" y="262"/>
      <point x="42" y="354" type="curve"/>
      <point x="45" y="511"/>
      <point x="141" y="607"/>
      <point x="270" y="607" type="curve" smooth="yes"/>
      <point x="399" y="607"/>
      <point x="449" y="509"/>
      <point x="449" y="415" type="curve" smooth="yes"/>
      <point x="449" y="226"/>
      <point x="370" y="45"/>
      <point x="156" y="-15" type="curve" smooth="yes"/>
      <point x="142" y="-19"/>
      <point x="119" y="-19"/>
      <point x="113" y="-4" type="curve" smooth="yes"/>
      <point x="109" y="7"/>
      <point x="113" y="25"/>
      <point x="127" y="32" type="curve" smooth="yes"/>
      <point x="249" y="93"/>
      <point x="299" y="175"/>
      <point x="299" y="378" type="curve" smooth="yes"/>
      <point x="299" y="472"/>
      <point x="291" y="546"/>
      <point x="247" y="546" type="curve" smooth="yes"/>
      <point x="201" y="546"/>
      <point x="195" y="504"/>
      <point x="195" y="387" type="curve" smooth="yes"/>
      <point x="195" y="285"/>
      <point x="207" y="286"/>
      <point x="223" y="275" type="curve" smooth="yes"/>
      <point x="234" y="268"/>
      <point x="257" y="271"/>
    </contour>
  </outline>
</glyph>
<glyph name="colon" format="1">
  <advance width="276"/>
  <unicode hex="003A"/>
  <outline>
    <contour>
      <point x="146" y="133" type="curve" smooth="yes"/>
      <point x="189" y="133"/>
      <point x="226" y="113"/>
      <point x="226" y="77" type="curve" smooth="yes"/>
      <point x="226" y="19"/>
      <point x="174" y="-7"/>
      <point x="130" y="-7" type="curve" smooth="yes"/>
      <point x="62" y="-7"/>
      <point x="51" y="29"/>
      <point x="51" y="60" type="curve" smooth="yes"/>
      <point x="51" y="109"/>
      <point x="113" y="133"/>
    </contour>
    <contour>
      <point x="146" y="411" type="curve" smooth="yes"/>
      <point x="189" y="411"/>
      <point x="226" y="391"/>
      <point x="226" y="355" type="curve" smooth="yes"/>
      <point x="226" y="296"/>
      <point x="174" y="271"/>
      <point x="130" y="271" type="curve" smooth="yes"/>
      <point x="62" y="271"/>
      <point x="51" y="307"/>
      <point x="51" y="338" type="curve" smooth="yes"/>
      <point x="51" y="386"/>
      <point x="113" y="411"/>
    </contour>
  </outline>
</glyph>
<glyph name="semicolon" format="1">
  <advance width="253"/>
  <unicode hex="003B"/>
  <outline>
    <contour>
      <point x="72" y="-176" type="curve" smooth="yes"/>
      <point x="67" y="-173"/>
      <point x="58" y="-153"/>
      <point x="76" y="-131" type="curve"/>
      <point x="107" y="-88"/>
      <point x="122" y="-27"/>
      <point x="108" y="-8" type="curve" smooth="yes"/>
      <point x="94" y="10"/>
      <point x="80" y="3"/>
      <point x="66" y="0" type="curve" smooth="yes"/>
      <point x="51" y="-3"/>
      <point x="44" y="-4"/>
      <point x="37" y="4" type="curve" smooth="yes"/>
      <point x="28" y="14"/>
      <point x="35" y="31"/>
      <point x="47" y="56" type="curve" smooth="yes"/>
      <point x="65" y="94"/>
      <point x="109" y="126"/>
      <point x="146" y="126" type="curve" smooth="yes"/>
      <point x="171" y="126"/>
      <point x="213" y="118"/>
      <point x="213" y="28" type="curve" smooth="yes"/>
      <point x="213" y="-24"/>
      <point x="170" y="-102"/>
      <point x="128" y="-151" type="curve" smooth="yes"/>
      <point x="100" y="-183"/>
      <point x="82" y="-184"/>
    </contour>
    <contour>
      <point x="131" y="411" type="curve" smooth="yes"/>
      <point x="174" y="411"/>
      <point x="211" y="391"/>
      <point x="211" y="355" type="curve" smooth="yes"/>
      <point x="211" y="296"/>
      <point x="160" y="271"/>
      <point x="116" y="271" type="curve" smooth="yes"/>
      <point x="48" y="271"/>
      <point x="36" y="307"/>
      <point x="36" y="338" type="curve" smooth="yes"/>
      <point x="36" y="386"/>
      <point x="98" y="411"/>
    </contour>
  </outline>
</glyph>
<glyph name="less" format="1">
  <advance width="355"/>
  <unicode hex="003C"/>
  <outline>
    <contour>
      <point x="66" y="243" type="curve" smooth="yes"/>
      <point x="111" y="270"/>
      <point x="207" y="333"/>
      <point x="238" y="356" type="curve" smooth="yes"/>
      <point x="245" y="361"/>
      <point x="265" y="381"/>
      <point x="273" y="389" type="curve" smooth="yes"/>
      <point x="280" y="396"/>
      <point x="305" y="402"/>
      <point x="309" y="387" type="curve" smooth="yes"/>
      <point x="312" y="375"/>
      <point x="306" y="354"/>
      <point x="302" y="348" type="curve"/>
      <point x="298" y="338"/>
      <point x="288" y="320"/>
      <point x="265" y="305" type="curve" smooth="yes"/>
      <point x="220" y="274"/>
      <point x="183" y="253"/>
      <point x="146" y="230" type="curve" smooth="yes"/>
      <point x="142" y="227"/>
      <point x="138" y="215"/>
      <point x="148" y="207" type="curve" smooth="yes"/>
      <point x="159" y="197"/>
      <point x="265" y="140"/>
      <point x="293" y="125" type="curve" smooth="yes"/>
      <point x="316" y="112"/>
      <point x="318" y="93"/>
      <point x="304" y="81" type="curve" smooth="yes"/>
      <point x="293" y="72"/>
      <point x="280" y="67"/>
      <point x="272" y="72" type="curve" smooth="yes"/>
      <point x="252" y="85"/>
      <point x="103" y="166"/>
      <point x="50" y="194" type="curve" smooth="yes"/>
      <point x="41" y="199"/>
      <point x="41" y="202"/>
      <point x="44" y="213" type="curve" smooth="yes"/>
      <point x="47" y="228"/>
      <point x="50" y="233"/>
    </contour>
  </outline>
</glyph>
<glyph name="equal" format="1">
  <advance width="421"/>
  <unicode hex="003D"/>
  <outline>
    <contour>
      <point x="60" y="344" type="curve"/>
      <point x="81" y="348"/>
      <point x="322" y="348"/>
      <point x="363" y="364" type="curve" smooth="yes"/>
      <point x="404" y="380"/>
      <point x="397" y="343"/>
      <point x="386" y="318" type="curve" smooth="yes"/>
      <point x="374" y="293"/>
      <point x="364" y="282"/>
      <point x="316" y="282" type="curve"/>
      <point x="287" y="281"/>
      <point x="77" y="280"/>
      <point x="51" y="280" type="curve" smooth="yes"/>
      <point x="31" y="280"/>
      <point x="17" y="282"/>
      <point x="27" y="311" type="curve" smooth="yes"/>
      <point x="34" y="329"/>
      <point x="44" y="339"/>
    </contour>
    <contour>
      <point x="60" y="168" type="curve"/>
      <point x="81" y="172"/>
      <point x="322" y="172"/>
      <point x="363" y="188" type="curve" smooth="yes"/>
      <point x="404" y="204"/>
      <point x="397" y="167"/>
      <point x="386" y="141" type="curve"/>
      <point x="374" y="116"/>
      <point x="364" y="105"/>
      <point x="316" y="105" type="curve"/>
      <point x="287" y="104"/>
      <point x="77" y="104"/>
      <point x="51" y="104" type="curve" smooth="yes"/>
      <point x="31" y="104"/>
      <point x="17" y="105"/>
      <point x="27" y="134" type="curve" smooth="yes"/>
      <point x="34" y="152"/>
      <point x="44" y="162"/>
    </contour>
  </outline>
</glyph>
<glyph name="greater" format="1">
  <advance width="355"/>
  <unicode hex="003E"/>
  <outline>
    <contour>
      <point x="287" y="225" type="curve" smooth="yes"/>
      <point x="242" y="198"/>
      <point x="144" y="134"/>
      <point x="113" y="111" type="curve" smooth="yes"/>
      <point x="106" y="106"/>
      <point x="86" y="88"/>
      <point x="78" y="81" type="curve"/>
      <point x="71" y="73"/>
      <point x="49" y="66"/>
      <point x="45" y="81" type="curve" smooth="yes"/>
      <point x="41" y="93"/>
      <point x="48" y="114"/>
      <point x="51" y="120" type="curve" smooth="yes"/>
      <point x="56" y="130"/>
      <point x="66" y="148"/>
      <point x="88" y="163" type="curve" smooth="yes"/>
      <point x="134" y="194"/>
      <point x="171" y="215"/>
      <point x="207" y="238" type="curve" smooth="yes"/>
      <point x="211" y="241"/>
      <point x="215" y="253"/>
      <point x="205" y="261" type="curve" smooth="yes"/>
      <point x="194" y="271"/>
      <point x="88" y="328"/>
      <point x="61" y="343" type="curve" smooth="yes"/>
      <point x="38" y="356"/>
      <point x="35" y="375"/>
      <point x="50" y="387" type="curve" smooth="yes"/>
      <point x="61" y="396"/>
      <point x="73" y="401"/>
      <point x="82" y="396" type="curve" smooth="yes"/>
      <point x="102" y="383"/>
      <point x="251" y="302"/>
      <point x="304" y="274" type="curve" smooth="yes"/>
      <point x="312" y="269"/>
      <point x="312" y="266"/>
      <point x="310" y="255" type="curve" smooth="yes"/>
      <point x="306" y="240"/>
      <point x="304" y="235"/>
    </contour>
  </outline>
</glyph>
<glyph name="question" format="1">
  <advance width="434"/>
  <unicode hex="003F"/>
  <outline>
    <contour>
      <point x="204" y="184" type="curve" smooth="yes"/>
      <point x="203" y="184" type="line" smooth="yes"/>
      <point x="188" y="184"/>
      <point x="176" y="202"/>
      <point x="176" y="210" type="curve" smooth="yes"/>
      <point x="176" y="267"/>
      <point x="191" y="290"/>
      <point x="202" y="305" type="curve" smooth="yes"/>
      <point x="222" y="333"/>
      <point x="237" y="348"/>
      <point x="254" y="390" type="curve" smooth="yes"/>
      <point x="266" y="418"/>
      <point x="271" y="465"/>
      <point x="271" y="492" type="curve" smooth="yes"/>
      <point x="271" y="536"/>
      <point x="252" y="554"/>
      <point x="217" y="554" type="curve" smooth="yes"/>
      <point x="186" y="554"/>
      <point x="168" y="532"/>
      <point x="168" y="492" type="curve" smooth="yes"/>
      <point x="168" y="476"/>
      <point x="173" y="465"/>
      <point x="186" y="456" type="curve"/>
      <point x="202" y="447"/>
      <point x="202" y="448"/>
      <point x="209" y="439" type="curve" smooth="yes"/>
      <point x="215" y="430"/>
      <point x="202" y="418"/>
      <point x="199" y="416" type="curve" smooth="yes"/>
      <point x="190" y="411"/>
      <point x="155" y="392"/>
      <point x="115" y="392" type="curve" smooth="yes"/>
      <point x="82" y="392"/>
      <point x="42" y="418"/>
      <point x="42" y="476" type="curve" smooth="yes"/>
      <point x="42" y="537"/>
      <point x="114" y="614"/>
      <point x="231" y="614" type="curve" smooth="yes"/>
      <point x="339" y="614"/>
      <point x="408" y="580"/>
      <point x="408" y="508" type="curve"/>
      <point x="410" y="451"/>
      <point x="391" y="407"/>
      <point x="330" y="357" type="curve" smooth="yes"/>
      <point x="284" y="319"/>
      <point x="234" y="284"/>
      <point x="237" y="217" type="curve" smooth="yes"/>
      <point x="237" y="204"/>
      <point x="221" y="184"/>
    </contour>
    <contour>
      <point x="214" y="121" type="curve" smooth="yes"/>
      <point x="255" y="121"/>
      <point x="290" y="102"/>
      <point x="290" y="67" type="curve" smooth="yes"/>
      <point x="290" y="11"/>
      <point x="241" y="-13"/>
      <point x="199" y="-13" type="curve" smooth="yes"/>
      <point x="133" y="-13"/>
      <point x="122" y="21"/>
      <point x="122" y="51" type="curve" smooth="yes"/>
      <point x="122" y="98"/>
      <point x="182" y="121"/>
    </contour>
  </outline>
</glyph>
<glyph name="at" format="1">
  <advance width="867"/>
  <unicode hex="0040"/>
  <outline>
    <contour>
      <point x="559" y="640" type="curve" smooth="yes"/>
      <point x="703" y="640"/>
      <point x="830" y="582"/>
      <point x="830" y="412" type="curve" smooth="yes"/>
      <point x="830" y="294"/>
      <point x="782" y="178"/>
      <point x="694" y="97" type="curve" smooth="yes"/>
      <point x="652" y="59"/>
      <point x="561" y="-13"/>
      <point x="502" y="-13" type="curve" smooth="yes"/>
      <point x="425" y="-13"/>
      <point x="434" y="58"/>
      <point x="453" y="104" type="curve" smooth="yes"/>
      <point x="458" y="117"/>
      <point x="459" y="124"/>
      <point x="455" y="126" type="curve" smooth="yes"/>
      <point x="451" y="128"/>
      <point x="444" y="131"/>
      <point x="431" y="117" type="curve" smooth="yes"/>
      <point x="408" y="90"/>
      <point x="350" y="26"/>
      <point x="319" y="6" type="curve" smooth="yes"/>
      <point x="269" y="-27"/>
      <point x="217" y="-1"/>
      <point x="217" y="65" type="curve" smooth="yes"/>
      <point x="217" y="134"/>
      <point x="237" y="212"/>
      <point x="265" y="270" type="curve" smooth="yes"/>
      <point x="301" y="343"/>
      <point x="370" y="398"/>
      <point x="428" y="427" type="curve" smooth="yes"/>
      <point x="442" y="434"/>
      <point x="477" y="441"/>
      <point x="504" y="437" type="curve" smooth="yes"/>
      <point x="530" y="433"/>
      <point x="549" y="426"/>
      <point x="566" y="418" type="curve" smooth="yes"/>
      <point x="574" y="415"/>
      <point x="586" y="418"/>
      <point x="603" y="428" type="curve" smooth="yes"/>
      <point x="611" y="433"/>
      <point x="630" y="444"/>
      <point x="649" y="460" type="curve"/>
      <point x="664" y="471"/>
      <point x="683" y="480"/>
      <point x="694" y="475" type="curve" smooth="yes"/>
      <point x="701" y="471"/>
      <point x="711" y="463"/>
      <point x="703" y="448" type="curve"/>
      <point x="683" y="417"/>
      <point x="655" y="375"/>
      <point x="643" y="346" type="curve" smooth="yes"/>
      <point x="622" y="293"/>
      <point x="598" y="228"/>
      <point x="588" y="162" type="curve" smooth="yes"/>
      <point x="584" y="136"/>
      <point x="588" y="125"/>
      <point x="599" y="125" type="curve" smooth="yes"/>
      <point x="613" y="126"/>
      <point x="634" y="133"/>
      <point x="657" y="151" type="curve" smooth="yes"/>
      <point x="732" y="207"/>
      <point x="777" y="315"/>
      <point x="777" y="405" type="curve" smooth="yes"/>
      <point x="777" y="540"/>
      <point x="677" y="590"/>
      <point x="550" y="590" type="curve" smooth="yes"/>
      <point x="352" y="590"/>
      <point x="139" y="389"/>
      <point x="133" y="149" type="curve"/>
      <point x="128" y="-109"/>
      <point x="304" y="-162"/>
      <point x="417" y="-162" type="curve" smooth="yes"/>
      <point x="538" y="-162"/>
      <point x="654" y="-104"/>
      <point x="689" y="-67" type="curve" smooth="yes"/>
      <point x="705" y="-51"/>
      <point x="718" y="-58"/>
      <point x="724" y="-64" type="curve" smooth="yes"/>
      <point x="731" y="-71"/>
      <point x="729" y="-86"/>
      <point x="720" y="-98" type="curve" smooth="yes"/>
      <point x="667" y="-162"/>
      <point x="521" y="-237"/>
      <point x="373" y="-237" type="curve" smooth="yes"/>
      <point x="231" y="-237"/>
      <point x="42" y="-157"/>
      <point x="42" y="88" type="curve" smooth="yes"/>
      <point x="42" y="348"/>
      <point x="273" y="640"/>
    </contour>
    <contour>
      <point x="392" y="145" type="curve"/>
      <point x="418" y="168"/>
      <point x="434" y="188"/>
      <point x="461" y="231" type="curve" smooth="yes"/>
      <point x="479" y="258"/>
      <point x="487" y="279"/>
      <point x="498" y="318" type="curve" smooth="yes"/>
      <point x="504" y="340"/>
      <point x="503" y="351"/>
      <point x="492" y="359" type="curve" smooth="yes"/>
      <point x="483" y="365"/>
      <point x="473" y="371"/>
      <point x="460" y="372" type="curve" smooth="yes"/>
      <point x="438" y="373"/>
      <point x="419" y="358"/>
      <point x="403" y="332" type="curve" smooth="yes"/>
      <point x="375" y="288"/>
      <point x="354" y="223"/>
      <point x="351" y="170" type="curve" smooth="yes"/>
      <point x="349" y="137"/>
      <point x="368" y="122"/>
    </contour>
  </outline>
</glyph>
<glyph name="B" format="1">
  <advance width="622"/>
  <unicode hex="0042"/>
  <outline>
    <contour>
      <point x="332" y="596" type="curve" smooth="yes"/>
      <point x="492" y="596"/>
      <point x="556" y="577"/>
      <point x="556" y="494" type="curve" smooth="yes"/>
      <point x="556" y="443"/>
      <point x="517" y="407"/>
      <point x="469" y="392" type="curve"/>
      <point x="462" y="391"/>
      <point x="444" y="386"/>
      <point x="444" y="376" type="curve" smooth="yes"/>
      <point x="444" y="363"/>
      <point x="449" y="362"/>
      <point x="463" y="360" type="curve" smooth="yes"/>
      <point x="562" y="348"/>
      <point x="588" y="303"/>
      <point x="588" y="239" type="curve" smooth="yes"/>
      <point x="590" y="24"/>
      <point x="371" y="-14"/>
      <point x="263" y="-1" type="curve"/>
      <point x="205" y="3"/>
      <point x="113" y="3"/>
      <point x="56" y="-3" type="curve" smooth="yes"/>
      <point x="38" y="-4"/>
      <point x="26" y="7"/>
      <point x="25" y="20" type="curve" smooth="yes"/>
      <point x="24" y="38"/>
      <point x="50" y="49"/>
      <point x="64" y="51" type="curve" smooth="yes"/>
      <point x="98" y="57"/>
      <point x="112" y="90"/>
      <point x="118" y="121" type="curve" smooth="yes"/>
      <point x="127" y="164"/>
      <point x="126" y="450"/>
      <point x="126" y="481" type="curve"/>
      <point x="124" y="537"/>
      <point x="84" y="541"/>
      <point x="48" y="552" type="curve" smooth="yes"/>
      <point x="34" y="556"/>
      <point x="31" y="572"/>
      <point x="31" y="578" type="curve" smooth="yes"/>
      <point x="31" y="585"/>
      <point x="38" y="604"/>
      <point x="70" y="601" type="curve" smooth="yes"/>
      <point x="175" y="593"/>
      <point x="250" y="596"/>
    </contour>
    <contour>
      <point x="324" y="345" type="curve" smooth="yes"/>
      <point x="324" y="353"/>
      <point x="328" y="364"/>
      <point x="350" y="370" type="curve" smooth="yes"/>
      <point x="391" y="380"/>
      <point x="404" y="417"/>
      <point x="402" y="462" type="curve"/>
      <point x="401" y="519"/>
      <point x="376" y="527"/>
      <point x="322" y="529" type="curve" smooth="yes"/>
      <point x="287" y="531"/>
      <point x="281" y="513"/>
      <point x="280" y="493" type="curve" smooth="yes"/>
      <point x="275" y="377"/>
      <point x="274" y="194"/>
      <point x="277" y="117" type="curve" smooth="yes"/>
      <point x="278" y="92"/>
      <point x="295" y="69"/>
      <point x="327" y="69" type="curve" smooth="yes"/>
      <point x="419" y="69"/>
      <point x="427" y="180"/>
      <point x="423" y="260" type="curve" smooth="yes"/>
      <point x="421" y="291"/>
      <point x="411" y="318"/>
      <point x="356" y="327" type="curve" smooth="yes"/>
      <point x="332" y="330"/>
      <point x="324" y="332"/>
    </contour>
  </outline>
</glyph>
<glyph name="D" format="1">
  <advance width="668"/>
  <unicode hex="0044"/>
  <outline>
    <contour>
      <point x="332" y="598" type="curve" smooth="yes"/>
      <point x="525" y="598"/>
      <point x="635" y="532"/>
      <point x="635" y="389" type="curve"/>
      <point x="630" y="25"/>
      <point x="377" y="-14"/>
      <point x="263" y="-1" type="curve"/>
      <point x="205" y="3"/>
      <point x="113" y="3"/>
      <point x="56" y="-3" type="curve" smooth="yes"/>
      <point x="38" y="-4"/>
      <point x="26" y="7"/>
      <point x="25" y="21" type="curve" smooth="yes"/>
      <point x="24" y="39"/>
      <point x="50" y="50"/>
      <point x="64" y="52" type="curve" smooth="yes"/>
      <point x="98" y="58"/>
      <point x="112" y="92"/>
      <point x="118" y="123" type="curve" smooth="yes"/>
      <point x="127" y="167"/>
      <point x="126" y="450"/>
      <point x="126" y="481" type="curve"/>
      <point x="124" y="539"/>
      <point x="84" y="543"/>
      <point x="48" y="554" type="curve"/>
      <point x="34" y="557"/>
      <point x="31" y="574"/>
      <point x="31" y="581" type="curve" smooth="yes"/>
      <point x="31" y="588"/>
      <point x="38" y="606"/>
      <point x="70" y="604" type="curve" smooth="yes"/>
      <point x="175" y="596"/>
      <point x="250" y="598"/>
    </contour>
    <contour>
      <point x="463" y="362" type="curve" smooth="yes"/>
      <point x="463" y="456"/>
      <point x="402" y="531"/>
      <point x="322" y="535" type="curve" smooth="yes"/>
      <point x="287" y="537"/>
      <point x="281" y="519"/>
      <point x="280" y="498" type="curve" smooth="yes"/>
      <point x="275" y="380"/>
      <point x="274" y="194"/>
      <point x="277" y="115" type="curve" smooth="yes"/>
      <point x="278" y="90"/>
      <point x="295" y="66"/>
      <point x="327" y="66" type="curve" smooth="yes"/>
      <point x="439" y="66"/>
      <point x="463" y="195"/>
    </contour>
  </outline>
</glyph>
<glyph name="F" format="1">
  <advance width="564"/>
  <unicode hex="0046"/>
  <outline>
    <contour>
      <point x="66" y="603" type="curve" smooth="yes"/>
      <point x="270" y="588"/>
      <point x="351" y="595"/>
      <point x="513" y="604" type="curve" smooth="yes"/>
      <point x="548" y="605"/>
      <point x="556" y="596"/>
      <point x="558" y="588" type="curve" smooth="yes"/>
      <point x="568" y="561"/>
      <point x="561" y="465"/>
      <point x="545" y="439" type="curve" smooth="yes"/>
      <point x="538" y="429"/>
      <point x="529" y="421"/>
      <point x="515" y="423" type="curve"/>
      <point x="503" y="426"/>
      <point x="495" y="437"/>
      <point x="497" y="449" type="curve" smooth="yes"/>
      <point x="505" y="488"/>
      <point x="457" y="532"/>
      <point x="424" y="535" type="curve" smooth="yes"/>
      <point x="370" y="541"/>
      <point x="327" y="541"/>
      <point x="315" y="540" type="curve" smooth="yes"/>
      <point x="280" y="538"/>
      <point x="274" y="524"/>
      <point x="274" y="504" type="curve" smooth="yes"/>
      <point x="274" y="455"/>
      <point x="273" y="412"/>
      <point x="274" y="364" type="curve" smooth="yes"/>
      <point x="274" y="345"/>
      <point x="270" y="329"/>
      <point x="316" y="329" type="curve" smooth="yes"/>
      <point x="370" y="329"/>
      <point x="408" y="361"/>
      <point x="414" y="402" type="curve" smooth="yes"/>
      <point x="416" y="415"/>
      <point x="423" y="421"/>
      <point x="439" y="421" type="curve" smooth="yes"/>
      <point x="455" y="421"/>
      <point x="460" y="400"/>
      <point x="458" y="387" type="curve" smooth="yes"/>
      <point x="449" y="329"/>
      <point x="447" y="279"/>
      <point x="447" y="221" type="curve" smooth="yes"/>
      <point x="447" y="212"/>
      <point x="435" y="198"/>
      <point x="421" y="198" type="curve" smooth="yes"/>
      <point x="417" y="198"/>
      <point x="402" y="202"/>
      <point x="400" y="221" type="curve" smooth="yes"/>
      <point x="396" y="264"/>
      <point x="350" y="279"/>
      <point x="301" y="277" type="curve"/>
      <point x="279" y="275"/>
      <point x="274" y="261"/>
      <point x="274" y="244" type="curve" smooth="yes"/>
      <point x="273" y="199"/>
      <point x="272" y="158"/>
      <point x="276" y="124" type="curve" smooth="yes"/>
      <point x="279" y="91"/>
      <point x="295" y="68"/>
      <point x="322" y="60" type="curve" smooth="yes"/>
      <point x="345" y="53"/>
      <point x="363" y="42"/>
      <point x="362" y="24" type="curve" smooth="yes"/>
      <point x="361" y="13"/>
      <point x="349" y="-4"/>
      <point x="327" y="-1" type="curve" smooth="yes"/>
      <point x="260" y="7"/>
      <point x="67" y="-2"/>
      <point x="45" y="-3" type="curve" smooth="yes"/>
      <point x="35" y="-4"/>
      <point x="25" y="8"/>
      <point x="24" y="18" type="curve"/>
      <point x="19" y="36"/>
      <point x="48" y="53"/>
      <point x="62" y="56" type="curve"/>
      <point x="97" y="60"/>
      <point x="110" y="92"/>
      <point x="116" y="123" type="curve"/>
      <point x="128" y="201"/>
      <point x="125" y="454"/>
      <point x="123" y="482" type="curve" smooth="yes"/>
      <point x="120" y="539"/>
      <point x="81" y="542"/>
      <point x="45" y="553" type="curve"/>
      <point x="30" y="556"/>
      <point x="28" y="574"/>
      <point x="28" y="580" type="curve" smooth="yes"/>
      <point x="28" y="587"/>
      <point x="35" y="605"/>
    </contour>
  </outline>
</glyph>
<glyph name="H" format="1">
  <advance width="800"/>
  <unicode hex="0048"/>
  <outline>
    <contour>
      <point x="121" y="476" type="curve" smooth="yes"/>
      <point x="117" y="531"/>
      <point x="63" y="542"/>
      <point x="46" y="545" type="curve" smooth="yes"/>
      <point x="33" y="548"/>
      <point x="30" y="567"/>
      <point x="30" y="573" type="curve" smooth="yes"/>
      <point x="30" y="582"/>
      <point x="37" y="599"/>
      <point x="70" y="596" type="curve" smooth="yes"/>
      <point x="100" y="593"/>
      <point x="270" y="593"/>
      <point x="325" y="596" type="curve" smooth="yes"/>
      <point x="345" y="597"/>
      <point x="354" y="585"/>
      <point x="354" y="570" type="curve" smooth="yes"/>
      <point x="354" y="561"/>
      <point x="345" y="546"/>
      <point x="332" y="544" type="curve" smooth="yes"/>
      <point x="288" y="535"/>
      <point x="275" y="515"/>
      <point x="269" y="471" type="curve" smooth="yes"/>
      <point x="269" y="466"/>
      <point x="267" y="455"/>
      <point x="267" y="386" type="curve" smooth="yes"/>
      <point x="267" y="380"/>
      <point x="271" y="369"/>
      <point x="296" y="366" type="curve"/>
      <point x="397" y="364"/>
      <point x="416" y="365"/>
      <point x="518" y="366" type="curve" smooth="yes"/>
      <point x="532" y="366"/>
      <point x="543" y="377"/>
      <point x="543" y="386" type="curve" smooth="yes"/>
      <point x="543" y="438"/>
      <point x="542" y="465"/>
      <point x="542" y="476" type="curve" smooth="yes"/>
      <point x="538" y="531"/>
      <point x="484" y="542"/>
      <point x="467" y="545" type="curve" smooth="yes"/>
      <point x="454" y="548"/>
      <point x="451" y="567"/>
      <point x="451" y="573" type="curve" smooth="yes"/>
      <point x="451" y="582"/>
      <point x="458" y="599"/>
      <point x="491" y="596" type="curve" smooth="yes"/>
      <point x="521" y="593"/>
      <point x="691" y="593"/>
      <point x="746" y="596" type="curve" smooth="yes"/>
      <point x="766" y="597"/>
      <point x="775" y="585"/>
      <point x="775" y="570" type="curve"/>
      <point x="774" y="561"/>
      <point x="766" y="546"/>
      <point x="753" y="544" type="curve" smooth="yes"/>
      <point x="709" y="535"/>
      <point x="696" y="515"/>
      <point x="690" y="471" type="curve"/>
      <point x="689" y="455"/>
      <point x="684" y="185"/>
      <point x="690" y="124" type="curve" smooth="yes"/>
      <point x="694" y="91"/>
      <point x="705" y="70"/>
      <point x="733" y="60" type="curve" smooth="yes"/>
      <point x="751" y="53"/>
      <point x="771" y="42"/>
      <point x="773" y="24" type="curve" smooth="yes"/>
      <point x="774" y="13"/>
      <point x="760" y="-4"/>
      <point x="737" y="-1" type="curve" smooth="yes"/>
      <point x="671" y="7"/>
      <point x="488" y="-2"/>
      <point x="465" y="-3" type="curve" smooth="yes"/>
      <point x="455" y="-4"/>
      <point x="446" y="8"/>
      <point x="444" y="18" type="curve" smooth="yes"/>
      <point x="440" y="36"/>
      <point x="469" y="53"/>
      <point x="483" y="56" type="curve"/>
      <point x="518" y="60"/>
      <point x="531" y="92"/>
      <point x="537" y="123" type="curve" smooth="yes"/>
      <point x="540" y="141"/>
      <point x="549" y="210"/>
      <point x="543" y="284" type="curve" smooth="yes"/>
      <point x="542" y="295"/>
      <point x="534" y="305"/>
      <point x="518" y="306" type="curve" smooth="yes"/>
      <point x="416" y="309"/>
      <point x="395" y="307"/>
      <point x="293" y="306" type="curve" smooth="yes"/>
      <point x="272" y="306"/>
      <point x="267" y="300"/>
      <point x="266" y="289" type="curve" smooth="yes"/>
      <point x="263" y="219"/>
      <point x="266" y="151"/>
      <point x="269" y="124" type="curve" smooth="yes"/>
      <point x="273" y="91"/>
      <point x="285" y="70"/>
      <point x="312" y="60" type="curve" smooth="yes"/>
      <point x="330" y="53"/>
      <point x="350" y="42"/>
      <point x="352" y="24" type="curve" smooth="yes"/>
      <point x="353" y="13"/>
      <point x="339" y="-4"/>
      <point x="316" y="-1" type="curve" smooth="yes"/>
      <point x="250" y="7"/>
      <point x="67" y="-2"/>
      <point x="45" y="-3" type="curve" smooth="yes"/>
      <point x="35" y="-4"/>
      <point x="25" y="8"/>
      <point x="24" y="18" type="curve"/>
      <point x="19" y="36"/>
      <point x="48" y="53"/>
      <point x="62" y="56" type="curve"/>
      <point x="97" y="60"/>
      <point x="110" y="92"/>
      <point x="116" y="123" type="curve" smooth="yes"/>
      <point x="123" y="161"/>
      <point x="123" y="444"/>
    </contour>
  </outline>
</glyph>
<glyph name="J" format="1">
  <advance width="364"/>
  <unicode hex="004A"/>
  <outline>
    <contour>
      <point x="65" y="600" type="curve" smooth="yes"/>
      <point x="96" y="597"/>
      <point x="263" y="597"/>
      <point x="317" y="600" type="curve" smooth="yes"/>
      <point x="337" y="601"/>
      <point x="349" y="585"/>
      <point x="349" y="571" type="curve"/>
      <point x="348" y="561"/>
      <point x="338" y="548"/>
      <point x="323" y="545" type="curve" smooth="yes"/>
      <point x="279" y="537"/>
      <point x="274" y="517"/>
      <point x="265" y="474" type="curve"/>
      <point x="264" y="462"/>
      <point x="259" y="285"/>
      <point x="262" y="171" type="curve"/>
      <point x="262" y="-119"/>
      <point x="104" y="-204"/>
      <point x="5" y="-204" type="curve" smooth="yes"/>
      <point x="-57" y="-204"/>
      <point x="-93" y="-173"/>
      <point x="-93" y="-136" type="curve" smooth="yes"/>
      <point x="-93" y="-103"/>
      <point x="-79" y="-68"/>
      <point x="-42" y="-40" type="curve"/>
      <point x="-26" y="-30"/>
      <point x="6" y="-18"/>
      <point x="21" y="-27" type="curve" smooth="yes"/>
      <point x="31" y="-33"/>
      <point x="31" y="-50"/>
      <point x="30" y="-58" type="curve" smooth="yes"/>
      <point x="26" y="-104"/>
      <point x="27" y="-129"/>
      <point x="55" y="-129" type="curve" smooth="yes"/>
      <point x="78" y="-129"/>
      <point x="111" y="-95"/>
      <point x="115" y="56" type="curve" smooth="yes"/>
      <point x="122" y="301"/>
      <point x="114" y="455"/>
      <point x="113" y="478" type="curve" smooth="yes"/>
      <point x="111" y="534"/>
      <point x="66" y="544"/>
      <point x="49" y="548" type="curve" smooth="yes"/>
      <point x="36" y="551"/>
      <point x="27" y="568"/>
      <point x="27" y="573" type="curve" smooth="yes"/>
      <point x="27" y="582"/>
      <point x="34" y="604"/>
    </contour>
  </outline>
</glyph>
<glyph name="K" format="1">
  <advance width="763"/>
  <unicode hex="004B"/>
  <outline>
    <contour>
      <point x="121" y="476" type="curve" smooth="yes"/>
      <point x="117" y="531"/>
      <point x="63" y="542"/>
      <point x="46" y="545" type="curve" smooth="yes"/>
      <point x="33" y="548"/>
      <point x="30" y="567"/>
      <point x="30" y="573" type="curve" smooth="yes"/>
      <point x="30" y="582"/>
      <point x="37" y="599"/>
      <point x="70" y="596" type="curve" smooth="yes"/>
      <point x="100" y="593"/>
      <point x="270" y="593"/>
      <point x="325" y="596" type="curve" smooth="yes"/>
      <point x="345" y="597"/>
      <point x="354" y="585"/>
      <point x="354" y="570" type="curve" smooth="yes"/>
      <point x="354" y="561"/>
      <point x="345" y="546"/>
      <point x="332" y="544" type="curve" smooth="yes"/>
      <point x="288" y="535"/>
      <point x="275" y="515"/>
      <point x="269" y="471" type="curve" smooth="yes"/>
      <point x="269" y="464"/>
      <point x="263" y="407"/>
      <point x="264" y="335" type="curve" smooth="yes"/>
      <point x="264" y="329"/>
      <point x="283" y="326"/>
      <point x="290" y="335" type="curve" smooth="yes"/>
      <point x="374" y="429"/>
      <point x="472" y="529"/>
      <point x="571" y="585" type="curve" smooth="yes"/>
      <point x="595" y="599"/>
      <point x="630" y="603"/>
      <point x="642" y="603" type="curve" smooth="yes"/>
      <point x="671" y="603"/>
      <point x="687" y="567"/>
      <point x="687" y="545" type="curve" smooth="yes"/>
      <point x="687" y="496"/>
      <point x="678" y="470"/>
      <point x="659" y="424" type="curve" smooth="yes"/>
      <point x="654" y="412"/>
      <point x="643" y="406"/>
      <point x="629" y="407" type="curve"/>
      <point x="616" y="409"/>
      <point x="611" y="421"/>
      <point x="611" y="428" type="curve" smooth="yes"/>
      <point x="611" y="449"/>
      <point x="597" y="465"/>
      <point x="584" y="465" type="curve" smooth="yes"/>
      <point x="561" y="465"/>
      <point x="529" y="457"/>
      <point x="503" y="444" type="curve"/>
      <point x="478" y="433"/>
      <point x="445" y="408"/>
      <point x="419" y="380" type="curve"/>
      <point x="407" y="369"/>
      <point x="409" y="359"/>
      <point x="416" y="346" type="curve" smooth="yes"/>
      <point x="445" y="287"/>
      <point x="524" y="195"/>
      <point x="555" y="163" type="curve" smooth="yes"/>
      <point x="599" y="119"/>
      <point x="648" y="83"/>
      <point x="701" y="85" type="curve" smooth="yes"/>
      <point x="715" y="85"/>
      <point x="744" y="92"/>
      <point x="747" y="73" type="curve"/>
      <point x="751" y="57"/>
      <point x="740" y="44"/>
      <point x="731" y="39" type="curve" smooth="yes"/>
      <point x="683" y="13"/>
      <point x="641" y="-8"/>
      <point x="588" y="-8" type="curve" smooth="yes"/>
      <point x="531" y="-8"/>
      <point x="512" y="0"/>
      <point x="489" y="18" type="curve" smooth="yes"/>
      <point x="426" y="70"/>
      <point x="327" y="200"/>
      <point x="294" y="269" type="curve" smooth="yes"/>
      <point x="290" y="279"/>
      <point x="279" y="274"/>
      <point x="273" y="268" type="curve" smooth="yes"/>
      <point x="268" y="263"/>
      <point x="268" y="254"/>
      <point x="266" y="244" type="curve"/>
      <point x="266" y="192"/>
      <point x="267" y="145"/>
      <point x="269" y="124" type="curve" smooth="yes"/>
      <point x="273" y="91"/>
      <point x="285" y="70"/>
      <point x="312" y="60" type="curve" smooth="yes"/>
      <point x="330" y="53"/>
      <point x="350" y="42"/>
      <point x="352" y="24" type="curve" smooth="yes"/>
      <point x="353" y="13"/>
      <point x="339" y="-4"/>
      <point x="316" y="-1" type="curve" smooth="yes"/>
      <point x="250" y="7"/>
      <point x="67" y="-2"/>
      <point x="45" y="-3" type="curve" smooth="yes"/>
      <point x="35" y="-4"/>
      <point x="25" y="8"/>
      <point x="24" y="18" type="curve"/>
      <point x="19" y="36"/>
      <point x="48" y="53"/>
      <point x="62" y="56" type="curve"/>
      <point x="97" y="60"/>
      <point x="110" y="92"/>
      <point x="116" y="123" type="curve" smooth="yes"/>
      <point x="123" y="161"/>
      <point x="123" y="444"/>
    </contour>
  </outline>
</glyph>
<glyph name="M" format="1">
  <advance width="1018"/>
  <unicode hex="004D"/>
  <outline>
    <contour>
      <point x="70" y="570" type="curve" smooth="yes"/>
      <point x="70" y="581"/>
      <point x="77" y="598"/>
      <point x="103" y="598" type="curve" smooth="yes"/>
      <point x="103" y="598"/>
      <point x="257" y="599"/>
      <point x="291" y="593" type="curve" smooth="yes"/>
      <point x="334" y="586"/>
      <point x="355" y="565"/>
      <point x="372" y="526" type="curve" smooth="yes"/>
      <point x="402" y="459"/>
      <point x="458" y="313"/>
      <point x="490" y="219" type="curve"/>
      <point x="492" y="210"/>
      <point x="510" y="205"/>
      <point x="515" y="219" type="curve" smooth="yes"/>
      <point x="560" y="341"/>
      <point x="618" y="464"/>
      <point x="630" y="493" type="curve" smooth="yes"/>
      <point x="657" y="560"/>
      <point x="688" y="593"/>
      <point x="752" y="597" type="curve" smooth="yes"/>
      <point x="780" y="598"/>
      <point x="885" y="598"/>
      <point x="902" y="598" type="curve" smooth="yes"/>
      <point x="918" y="598"/>
      <point x="922" y="585"/>
      <point x="922" y="574" type="curve" smooth="yes"/>
      <point x="922" y="566"/>
      <point x="918" y="553"/>
      <point x="903" y="549" type="curve" smooth="yes"/>
      <point x="833" y="532"/>
      <point x="831" y="512"/>
      <point x="839" y="468" type="curve"/>
      <point x="859" y="338"/>
      <point x="886" y="243"/>
      <point x="920" y="114" type="curve" smooth="yes"/>
      <point x="929" y="81"/>
      <point x="958" y="61"/>
      <point x="991" y="52" type="curve" smooth="yes"/>
      <point x="1004" y="49"/>
      <point x="1013" y="34"/>
      <point x="1011" y="23" type="curve" smooth="yes"/>
      <point x="1010" y="14"/>
      <point x="1002" y="-3"/>
      <point x="979" y="-2" type="curve" smooth="yes"/>
      <point x="913" y="3"/>
      <point x="755" y="4"/>
      <point x="700" y="0" type="curve" smooth="yes"/>
      <point x="681" y="-2"/>
      <point x="665" y="3"/>
      <point x="662" y="18" type="curve" smooth="yes"/>
      <point x="661" y="28"/>
      <point x="664" y="44"/>
      <point x="682" y="49" type="curve" smooth="yes"/>
      <point x="705" y="56"/>
      <point x="748" y="77"/>
      <point x="742" y="126" type="curve"/>
      <point x="722" y="247"/>
      <point x="709" y="258"/>
      <point x="680" y="378" type="curve" smooth="yes"/>
      <point x="675" y="398"/>
      <point x="661" y="389"/>
      <point x="656" y="378" type="curve" smooth="yes"/>
      <point x="643" y="350"/>
      <point x="609" y="286"/>
      <point x="574" y="177" type="curve" smooth="yes"/>
      <point x="564" y="144"/>
      <point x="550" y="79"/>
      <point x="550" y="45" type="curve" smooth="yes"/>
      <point x="550" y="28"/>
      <point x="545" y="8"/>
      <point x="525" y="0" type="curve" smooth="yes"/>
      <point x="502" y="-8"/>
      <point x="465" y="-10"/>
      <point x="417" y="-10" type="curve" smooth="yes"/>
      <point x="396" y="-10"/>
      <point x="381" y="34"/>
      <point x="375" y="56" type="curve"/>
      <point x="345" y="142"/>
      <point x="311" y="261"/>
      <point x="257" y="375" type="curve" smooth="yes"/>
      <point x="251" y="386"/>
      <point x="243" y="405"/>
      <point x="231" y="375" type="curve"/>
      <point x="212" y="295"/>
      <point x="203" y="263"/>
      <point x="189" y="173" type="curve" smooth="yes"/>
      <point x="181" y="116"/>
      <point x="178" y="63"/>
      <point x="246" y="50" type="curve" smooth="yes"/>
      <point x="260" y="47"/>
      <point x="268" y="35"/>
      <point x="267" y="24" type="curve"/>
      <point x="263" y="13"/>
      <point x="254" y="-3"/>
      <point x="235" y="-1" type="curve" smooth="yes"/>
      <point x="189" y="4"/>
      <point x="98" y="3"/>
      <point x="62" y="-1" type="curve" smooth="yes"/>
      <point x="48" y="-2"/>
      <point x="19" y="-2"/>
      <point x="15" y="15" type="curve" smooth="yes"/>
      <point x="13" y="25"/>
      <point x="27" y="47"/>
      <point x="37" y="54" type="curve" smooth="yes"/>
      <point x="57" y="70"/>
      <point x="75" y="93"/>
      <point x="88" y="123" type="curve" smooth="yes"/>
      <point x="110" y="173"/>
      <point x="179" y="392"/>
      <point x="189" y="468" type="curve" smooth="yes"/>
      <point x="195" y="518"/>
      <point x="163" y="535"/>
      <point x="92" y="544" type="curve"/>
      <point x="76" y="545"/>
      <point x="70" y="557"/>
    </contour>
  </outline>
</glyph>
<glyph name="O" format="1">
  <advance width="678"/>
  <unicode hex="004F"/>
  <outline>
    <contour>
      <point x="370" y="614" type="curve" smooth="yes"/>
      <point x="535" y="614"/>
      <point x="640" y="511"/>
      <point x="640" y="340" type="curve" smooth="yes"/>
      <point x="640" y="126"/>
      <point x="491" y="-19"/>
      <point x="315" y="-19" type="curve" smooth="yes"/>
      <point x="136" y="-19"/>
      <point x="38" y="109"/>
      <point x="38" y="277" type="curve" smooth="yes"/>
      <point x="38" y="402"/>
      <point x="145" y="614"/>
    </contour>
    <contour>
      <point x="472" y="319" type="curve" smooth="yes"/>
      <point x="472" y="447"/>
      <point x="444" y="534"/>
      <point x="338" y="533" type="curve" smooth="yes"/>
      <point x="288" y="532"/>
      <point x="212" y="485"/>
      <point x="212" y="285" type="curve" smooth="yes"/>
      <point x="212" y="114"/>
      <point x="276" y="63"/>
      <point x="347" y="63" type="curve" smooth="yes"/>
      <point x="416" y="63"/>
      <point x="472" y="130"/>
    </contour>
  </outline>
</glyph>
<glyph name="P" format="1">
  <advance width="585"/>
  <unicode hex="0050"/>
  <outline>
    <contour>
      <point x="121" y="479" type="curve" smooth="yes"/>
      <point x="117" y="535"/>
      <point x="63" y="545"/>
      <point x="46" y="549" type="curve"/>
      <point x="33" y="551"/>
      <point x="30" y="571"/>
      <point x="30" y="577" type="curve" smooth="yes"/>
      <point x="30" y="585"/>
      <point x="37" y="603"/>
      <point x="70" y="599" type="curve" smooth="yes"/>
      <point x="167" y="588"/>
      <point x="316" y="598"/>
      <point x="422" y="598" type="curve" smooth="yes"/>
      <point x="503" y="598"/>
      <point x="567" y="563"/>
      <point x="567" y="475" type="curve" smooth="yes"/>
      <point x="567" y="297"/>
      <point x="389" y="266"/>
      <point x="349" y="266" type="curve" smooth="yes"/>
      <point x="335" y="266"/>
      <point x="316" y="268"/>
      <point x="316" y="285" type="curve" smooth="yes"/>
      <point x="316" y="290"/>
      <point x="322" y="308"/>
      <point x="336" y="314" type="curve" smooth="yes"/>
      <point x="390" y="338"/>
      <point x="403" y="403"/>
      <point x="403" y="450" type="curve" smooth="yes"/>
      <point x="403" y="524"/>
      <point x="364" y="542"/>
      <point x="332" y="540" type="curve"/>
      <point x="285" y="539"/>
      <point x="272" y="540"/>
      <point x="269" y="476" type="curve" smooth="yes"/>
      <point x="269" y="460"/>
      <point x="263" y="185"/>
      <point x="269" y="124" type="curve" smooth="yes"/>
      <point x="273" y="91"/>
      <point x="285" y="70"/>
      <point x="312" y="60" type="curve" smooth="yes"/>
      <point x="330" y="53"/>
      <point x="350" y="42"/>
      <point x="352" y="24" type="curve" smooth="yes"/>
      <point x="353" y="13"/>
      <point x="339" y="-4"/>
      <point x="316" y="-1" type="curve" smooth="yes"/>
      <point x="250" y="7"/>
      <point x="67" y="-2"/>
      <point x="45" y="-3" type="curve" smooth="yes"/>
      <point x="35" y="-4"/>
      <point x="25" y="8"/>
      <point x="24" y="18" type="curve"/>
      <point x="19" y="36"/>
      <point x="48" y="53"/>
      <point x="62" y="56" type="curve"/>
      <point x="97" y="60"/>
      <point x="110" y="92"/>
      <point x="116" y="123" type="curve" smooth="yes"/>
      <point x="123" y="161"/>
      <point x="123" y="448"/>
    </contour>
  </outline>
</glyph>
<glyph name="Q" format="1">
  <advance width="701"/>
  <unicode hex="0051"/>
  <outline>
    <contour>
      <point x="370" y="614" type="curve" smooth="yes"/>
      <point x="535" y="614"/>
      <point x="640" y="511"/>
      <point x="640" y="340" type="curve" smooth="yes"/>
      <point x="640" y="235"/>
      <point x="611" y="157"/>
      <point x="553" y="99" type="curve" smooth="yes"/>
      <point x="544" y="90"/>
      <point x="546" y="72"/>
      <point x="556" y="60" type="curve"/>
      <point x="588" y="12"/>
      <point x="624" y="-42"/>
      <point x="662" y="-42" type="curve" smooth="yes"/>
      <point x="692" y="-42"/>
      <point x="710" y="-39"/>
      <point x="724" y="-36" type="curve" smooth="yes"/>
      <point x="737" y="-34"/>
      <point x="744" y="-42"/>
      <point x="747" y="-49" type="curve" smooth="yes"/>
      <point x="751" y="-61"/>
      <point x="753" y="-72"/>
      <point x="732" y="-88" type="curve" smooth="yes"/>
      <point x="689" y="-122"/>
      <point x="649" y="-155"/>
      <point x="588" y="-155" type="curve" smooth="yes"/>
      <point x="499" y="-155"/>
      <point x="460" y="-77"/>
      <point x="431" y="-13" type="curve" smooth="yes"/>
      <point x="425" y="1"/>
      <point x="418" y="3"/>
      <point x="405" y="-3" type="curve" smooth="yes"/>
      <point x="375" y="-16"/>
      <point x="346" y="-19"/>
      <point x="315" y="-19" type="curve" smooth="yes"/>
      <point x="136" y="-19"/>
      <point x="38" y="109"/>
      <point x="38" y="277" type="curve" smooth="yes"/>
      <point x="38" y="402"/>
      <point x="145" y="614"/>
    </contour>
    <contour>
      <point x="472" y="326" type="curve" smooth="yes"/>
      <point x="472" y="454"/>
      <point x="444" y="532"/>
      <point x="338" y="531" type="curve" smooth="yes"/>
      <point x="288" y="530"/>
      <point x="212" y="492"/>
      <point x="212" y="291" type="curve" smooth="yes"/>
      <point x="212" y="247"/>
      <point x="216" y="216"/>
      <point x="225" y="185" type="curve" smooth="yes"/>
      <point x="230" y="170"/>
      <point x="240" y="161"/>
      <point x="249" y="173" type="curve" smooth="yes"/>
      <point x="276" y="209"/>
      <point x="316" y="237"/>
      <point x="345" y="237" type="curve" smooth="yes"/>
      <point x="386" y="237"/>
      <point x="415" y="225"/>
      <point x="433" y="203" type="curve" smooth="yes"/>
      <point x="440" y="194"/>
      <point x="453" y="194"/>
      <point x="457" y="205" type="curve" smooth="yes"/>
      <point x="468" y="235"/>
      <point x="472" y="275"/>
    </contour>
    <contour>
      <point x="347" y="56" type="curve" smooth="yes"/>
      <point x="359" y="56"/>
      <point x="372" y="61"/>
      <point x="375" y="62" type="curve" smooth="yes"/>
      <point x="385" y="66"/>
      <point x="389" y="72"/>
      <point x="379" y="85" type="curve" smooth="yes"/>
      <point x="364" y="104"/>
      <point x="335" y="146"/>
      <point x="306" y="146" type="curve" smooth="yes"/>
      <point x="292" y="146"/>
      <point x="280" y="141"/>
      <point x="263" y="128" type="curve" smooth="yes"/>
      <point x="256" y="123"/>
      <point x="253" y="110"/>
      <point x="258" y="101" type="curve" smooth="yes"/>
      <point x="278" y="72"/>
      <point x="312" y="56"/>
    </contour>
  </outline>
</glyph>
<glyph name="R" format="1">
  <advance width="695"/>
  <unicode hex="0052"/>
  <outline>
    <contour>
      <point x="121" y="479" type="curve" smooth="yes"/>
      <point x="117" y="535"/>
      <point x="63" y="545"/>
      <point x="46" y="549" type="curve"/>
      <point x="33" y="551"/>
      <point x="30" y="571"/>
      <point x="30" y="577" type="curve" smooth="yes"/>
      <point x="30" y="585"/>
      <point x="37" y="603"/>
      <point x="70" y="599" type="curve" smooth="yes"/>
      <point x="167" y="588"/>
      <point x="316" y="598"/>
      <point x="422" y="598" type="curve" smooth="yes"/>
      <point x="503" y="598"/>
      <point x="589" y="563"/>
      <point x="589" y="475" type="curve" smooth="yes"/>
      <point x="589" y="412"/>
      <point x="536" y="387"/>
      <point x="476" y="359" type="curve" smooth="yes"/>
      <point x="460" y="351"/>
      <point x="460" y="343"/>
      <point x="462" y="328" type="curve" smooth="yes"/>
      <point x="471" y="253"/>
      <point x="582" y="100"/>
      <point x="622" y="100" type="curve" smooth="yes"/>
      <point x="625" y="100"/>
      <point x="650" y="95"/>
      <point x="671" y="104" type="curve"/>
      <point x="686" y="109"/>
      <point x="697" y="105"/>
      <point x="704" y="99" type="curve" smooth="yes"/>
      <point x="712" y="93"/>
      <point x="715" y="77"/>
      <point x="710" y="69" type="curve" smooth="yes"/>
      <point x="684" y="35"/>
      <point x="612" y="-10"/>
      <point x="540" y="-9" type="curve"/>
      <point x="450" y="-9"/>
      <point x="351" y="169"/>
      <point x="316" y="316" type="curve" smooth="yes"/>
      <point x="313" y="328"/>
      <point x="316" y="348"/>
      <point x="331" y="355" type="curve" smooth="yes"/>
      <point x="402" y="389"/>
      <point x="424" y="405"/>
      <point x="424" y="448" type="curve" smooth="yes"/>
      <point x="424" y="521"/>
      <point x="364" y="538"/>
      <point x="332" y="536" type="curve"/>
      <point x="285" y="535"/>
      <point x="272" y="536"/>
      <point x="269" y="471" type="curve" smooth="yes"/>
      <point x="269" y="455"/>
      <point x="263" y="185"/>
      <point x="269" y="124" type="curve" smooth="yes"/>
      <point x="273" y="91"/>
      <point x="285" y="70"/>
      <point x="312" y="60" type="curve" smooth="yes"/>
      <point x="330" y="53"/>
      <point x="350" y="42"/>
      <point x="352" y="24" type="curve" smooth="yes"/>
      <point x="353" y="13"/>
      <point x="339" y="-4"/>
      <point x="316" y="-1" type="curve" smooth="yes"/>
      <point x="250" y="7"/>
      <point x="67" y="-2"/>
      <point x="45" y="-3" type="curve" smooth="yes"/>
      <point x="35" y="-4"/>
      <point x="25" y="8"/>
      <point x="24" y="18" type="curve"/>
      <point x="19" y="36"/>
      <point x="48" y="53"/>
      <point x="62" y="56" type="curve"/>
      <point x="97" y="60"/>
      <point x="110" y="92"/>
      <point x="116" y="123" type="curve" smooth="yes"/>
      <point x="123" y="161"/>
      <point x="123" y="448"/>
    </contour>
  </outline>
</glyph>
<glyph name="T" format="1">
  <advance width="585"/>
  <unicode hex="0054"/>
  <outline>
    <contour>
      <point x="221" y="494" type="curve" smooth="yes"/>
      <point x="219" y="519"/>
      <point x="215" y="532"/>
      <point x="187" y="532" type="curve" smooth="yes"/>
      <point x="126" y="531"/>
      <point x="77" y="468"/>
      <point x="62" y="413" type="curve" smooth="yes"/>
      <point x="58" y="398"/>
      <point x="45" y="386"/>
      <point x="31" y="387" type="curve"/>
      <point x="22" y="389"/>
      <point x="8" y="398"/>
      <point x="12" y="418" type="curve" smooth="yes"/>
      <point x="16" y="439"/>
      <point x="24" y="551"/>
      <point x="36" y="589" type="curve" smooth="yes"/>
      <point x="43" y="610"/>
      <point x="56" y="614"/>
      <point x="75" y="609" type="curve"/>
      <point x="104" y="598"/>
      <point x="182" y="595"/>
      <point x="309" y="594" type="curve" smooth="yes"/>
      <point x="388" y="593"/>
      <point x="481" y="605"/>
      <point x="507" y="608" type="curve" smooth="yes"/>
      <point x="542" y="612"/>
      <point x="551" y="591"/>
      <point x="556" y="580" type="curve"/>
      <point x="579" y="540"/>
      <point x="575" y="434"/>
      <point x="529" y="387" type="curve" smooth="yes"/>
      <point x="521" y="380"/>
      <point x="510" y="377"/>
      <point x="498" y="382" type="curve" smooth="yes"/>
      <point x="487" y="386"/>
      <point x="487" y="402"/>
      <point x="490" y="408" type="curve" smooth="yes"/>
      <point x="497" y="420"/>
      <point x="495" y="439"/>
      <point x="495" y="450" type="curve" smooth="yes"/>
      <point x="495" y="492"/>
      <point x="449" y="536"/>
      <point x="399" y="535" type="curve" smooth="yes"/>
      <point x="367" y="535"/>
      <point x="370" y="502"/>
      <point x="369" y="498" type="curve" smooth="yes"/>
      <point x="367" y="482"/>
      <point x="362" y="185"/>
      <point x="369" y="124" type="curve" smooth="yes"/>
      <point x="372" y="91"/>
      <point x="392" y="70"/>
      <point x="420" y="60" type="curve" smooth="yes"/>
      <point x="438" y="53"/>
      <point x="458" y="42"/>
      <point x="460" y="24" type="curve"/>
      <point x="460" y="8"/>
      <point x="447" y="-4"/>
      <point x="419" y="-1" type="curve" smooth="yes"/>
      <point x="353" y="7"/>
      <point x="220" y="7"/>
      <point x="152" y="-2" type="curve" smooth="yes"/>
      <point x="139" y="-3"/>
      <point x="126" y="3"/>
      <point x="125" y="18" type="curve"/>
      <point x="122" y="36"/>
      <point x="142" y="53"/>
      <point x="157" y="56" type="curve" smooth="yes"/>
      <point x="191" y="61"/>
      <point x="213" y="92"/>
      <point x="215" y="123" type="curve"/>
      <point x="219" y="161"/>
      <point x="223" y="463"/>
    </contour>
  </outline>
</glyph>
<glyph name="U" format="1">
  <advance width="769"/>
  <unicode hex="0055"/>
  <outline>
    <contour>
      <point x="41" y="550" type="curve" smooth="yes"/>
      <point x="33" y="550"/>
      <point x="20" y="561"/>
      <point x="20" y="572" type="curve" smooth="yes"/>
      <point x="20" y="586"/>
      <point x="36" y="598"/>
      <point x="51" y="598" type="curve"/>
      <point x="120" y="592"/>
      <point x="245" y="592"/>
      <point x="313" y="598" type="curve" smooth="yes"/>
      <point x="329" y="599"/>
      <point x="347" y="589"/>
      <point x="347" y="572" type="curve" smooth="yes"/>
      <point x="347" y="564"/>
      <point x="343" y="553"/>
      <point x="330" y="550" type="curve" smooth="yes"/>
      <point x="273" y="535"/>
      <point x="263" y="500"/>
      <point x="261" y="462" type="curve" smooth="yes"/>
      <point x="255" y="362"/>
      <point x="254" y="321"/>
      <point x="257" y="221" type="curve"/>
      <point x="259" y="117"/>
      <point x="311" y="100"/>
      <point x="368" y="100" type="curve" smooth="yes"/>
      <point x="426" y="100"/>
      <point x="489" y="173"/>
      <point x="497" y="308" type="curve"/>
      <point x="502" y="372"/>
      <point x="500" y="415"/>
      <point x="500" y="478" type="curve"/>
      <point x="499" y="508"/>
      <point x="481" y="537"/>
      <point x="422" y="545" type="curve" smooth="yes"/>
      <point x="408" y="546"/>
      <point x="399" y="561"/>
      <point x="402" y="577" type="curve"/>
      <point x="403" y="588"/>
      <point x="416" y="599"/>
      <point x="441" y="596" type="curve" smooth="yes"/>
      <point x="467" y="593"/>
      <point x="657" y="593"/>
      <point x="688" y="596" type="curve" smooth="yes"/>
      <point x="709" y="598"/>
      <point x="718" y="583"/>
      <point x="718" y="576" type="curve" smooth="yes"/>
      <point x="718" y="564"/>
      <point x="709" y="548"/>
      <point x="700" y="545" type="curve" smooth="yes"/>
      <point x="654" y="530"/>
      <point x="654" y="511"/>
      <point x="654" y="453" type="curve"/>
      <point x="655" y="418"/>
      <point x="649" y="195"/>
      <point x="653" y="136" type="curve" smooth="yes"/>
      <point x="657" y="74"/>
      <point x="687" y="61"/>
      <point x="727" y="64" type="curve" smooth="yes"/>
      <point x="739" y="65"/>
      <point x="748" y="49"/>
      <point x="748" y="41" type="curve" smooth="yes"/>
      <point x="748" y="35"/>
      <point x="742" y="19"/>
      <point x="728" y="16" type="curve" smooth="yes"/>
      <point x="710" y="12"/>
      <point x="661" y="1"/>
      <point x="627" y="-3" type="curve" smooth="yes"/>
      <point x="583" y="-9"/>
      <point x="498" y="-19"/>
      <point x="497" y="53" type="curve" smooth="yes"/>
      <point x="497" y="64"/>
      <point x="499" y="74"/>
      <point x="498" y="83" type="curve" smooth="yes"/>
      <point x="497" y="97"/>
      <point x="478" y="89"/>
      <point x="475" y="85" type="curve" smooth="yes"/>
      <point x="406" y="1"/>
      <point x="366" y="-12"/>
      <point x="277" y="-12" type="curve" smooth="yes"/>
      <point x="179" y="-12"/>
      <point x="98" y="47"/>
      <point x="98" y="161" type="curve" smooth="yes"/>
      <point x="98" y="218"/>
      <point x="106" y="432"/>
      <point x="107" y="462" type="curve" smooth="yes"/>
      <point x="108" y="516"/>
      <point x="89" y="545"/>
    </contour>
  </outline>
</glyph>
<glyph name="V" format="1">
  <advance width="726"/>
  <unicode hex="0056"/>
  <outline>
    <contour>
      <point x="18" y="567" type="curve" smooth="yes"/>
      <point x="18" y="586"/>
      <point x="36" y="603"/>
      <point x="67" y="596" type="curve"/>
      <point x="110" y="590"/>
      <point x="266" y="591"/>
      <point x="312" y="596" type="curve" smooth="yes"/>
      <point x="349" y="601"/>
      <point x="357" y="585"/>
      <point x="357" y="569" type="curve" smooth="yes"/>
      <point x="357" y="557"/>
      <point x="352" y="545"/>
      <point x="336" y="542" type="curve"/>
      <point x="317" y="537"/>
      <point x="306" y="535"/>
      <point x="296" y="521" type="curve"/>
      <point x="285" y="503"/>
      <point x="285" y="486"/>
      <point x="293" y="460" type="curve" smooth="yes"/>
      <point x="330" y="343"/>
      <point x="344" y="305"/>
      <point x="393" y="198" type="curve" smooth="yes"/>
      <point x="397" y="189"/>
      <point x="401" y="172"/>
      <point x="410" y="172" type="curve" smooth="yes"/>
      <point x="422" y="172"/>
      <point x="429" y="187"/>
      <point x="432" y="193" type="curve" smooth="yes"/>
      <point x="479" y="296"/>
      <point x="484" y="329"/>
      <point x="514" y="430" type="curve"/>
      <point x="540" y="513"/>
      <point x="531" y="540"/>
      <point x="487" y="553" type="curve"/>
      <point x="473" y="559"/>
      <point x="467" y="572"/>
      <point x="467" y="582" type="curve" smooth="yes"/>
      <point x="467" y="589"/>
      <point x="483" y="601"/>
      <point x="500" y="601" type="curve"/>
      <point x="568" y="596"/>
      <point x="626" y="593"/>
      <point x="694" y="598" type="curve" smooth="yes"/>
      <point x="708" y="599"/>
      <point x="715" y="579"/>
      <point x="714" y="569" type="curve" smooth="yes"/>
      <point x="713" y="561"/>
      <point x="705" y="549"/>
      <point x="690" y="539" type="curve"/>
      <point x="656" y="513"/>
      <point x="627" y="487"/>
      <point x="605" y="441" type="curve" smooth="yes"/>
      <point x="587" y="403"/>
      <point x="487" y="200"/>
      <point x="466" y="126" type="curve"/>
      <point x="456" y="97"/>
      <point x="457" y="84"/>
      <point x="455" y="53" type="curve" smooth="yes"/>
      <point x="455" y="49"/>
      <point x="451" y="24"/>
      <point x="438" y="17" type="curve"/>
      <point x="416" y="3"/>
      <point x="359" y="-7"/>
      <point x="322" y="-7" type="curve" smooth="yes"/>
      <point x="293" y="-7"/>
      <point x="284" y="40"/>
      <point x="276" y="66" type="curve" smooth="yes"/>
      <point x="264" y="103"/>
      <point x="173" y="375"/>
      <point x="127" y="460" type="curve"/>
      <point x="102" y="511"/>
      <point x="76" y="533"/>
      <point x="51" y="535" type="curve" smooth="yes"/>
      <point x="34" y="537"/>
      <point x="18" y="557"/>
    </contour>
  </outline>
</glyph>
<glyph name="W" format="1">
  <advance width="1074"/>
  <unicode hex="0057"/>
  <outline>
    <contour>
      <point x="366" y="567" type="curve" smooth="yes"/>
      <point x="366" y="586"/>
      <point x="385" y="603"/>
      <point x="416" y="596" type="curve"/>
      <point x="459" y="590"/>
      <point x="614" y="591"/>
      <point x="661" y="596" type="curve"/>
      <point x="698" y="601"/>
      <point x="705" y="585"/>
      <point x="705" y="569" type="curve" smooth="yes"/>
      <point x="705" y="557"/>
      <point x="700" y="545"/>
      <point x="684" y="542" type="curve"/>
      <point x="666" y="537"/>
      <point x="654" y="535"/>
      <point x="645" y="521" type="curve" smooth="yes"/>
      <point x="634" y="503"/>
      <point x="634" y="486"/>
      <point x="641" y="460" type="curve"/>
      <point x="678" y="343"/>
      <point x="691" y="320"/>
      <point x="740" y="213" type="curve" smooth="yes"/>
      <point x="744" y="205"/>
      <point x="747" y="187"/>
      <point x="757" y="187" type="curve" smooth="yes"/>
      <point x="769" y="187"/>
      <point x="776" y="202"/>
      <point x="779" y="208" type="curve" smooth="yes"/>
      <point x="826" y="311"/>
      <point x="831" y="332"/>
      <point x="861" y="434" type="curve" smooth="yes"/>
      <point x="886" y="517"/>
      <point x="878" y="540"/>
      <point x="834" y="553" type="curve"/>
      <point x="820" y="559"/>
      <point x="814" y="572"/>
      <point x="814" y="582" type="curve" smooth="yes"/>
      <point x="814" y="589"/>
      <point x="830" y="601"/>
      <point x="847" y="601" type="curve"/>
      <point x="915" y="596"/>
      <point x="975" y="593"/>
      <point x="1042" y="598" type="curve" smooth="yes"/>
      <point x="1056" y="599"/>
      <point x="1063" y="579"/>
      <point x="1062" y="569" type="curve" smooth="yes"/>
      <point x="1061" y="561"/>
      <point x="1053" y="549"/>
      <point x="1039" y="539" type="curve" smooth="yes"/>
      <point x="1004" y="513"/>
      <point x="976" y="487"/>
      <point x="954" y="441" type="curve" smooth="yes"/>
      <point x="935" y="403"/>
      <point x="836" y="200"/>
      <point x="815" y="126" type="curve"/>
      <point x="805" y="97"/>
      <point x="806" y="84"/>
      <point x="803" y="53" type="curve" smooth="yes"/>
      <point x="803" y="49"/>
      <point x="800" y="24"/>
      <point x="786" y="17" type="curve"/>
      <point x="764" y="3"/>
      <point x="707" y="-7"/>
      <point x="671" y="-7" type="curve" smooth="yes"/>
      <point x="641" y="-7"/>
      <point x="632" y="40"/>
      <point x="625" y="66" type="curve"/>
      <point x="619" y="84"/>
      <point x="591" y="165"/>
      <point x="560" y="249" type="curve" smooth="yes"/>
      <point x="554" y="263"/>
      <point x="541" y="276"/>
      <point x="532" y="259" type="curve"/>
      <point x="502" y="209"/>
      <point x="472" y="158"/>
      <point x="464" y="126" type="curve"/>
      <point x="454" y="97"/>
      <point x="455" y="84"/>
      <point x="452" y="53" type="curve" smooth="yes"/>
      <point x="452" y="49"/>
      <point x="449" y="24"/>
      <point x="435" y="17" type="curve"/>
      <point x="413" y="3"/>
      <point x="356" y="-7"/>
      <point x="320" y="-7" type="curve" smooth="yes"/>
      <point x="290" y="-7"/>
      <point x="281" y="40"/>
      <point x="274" y="66" type="curve"/>
      <point x="262" y="103"/>
      <point x="173" y="375"/>
      <point x="127" y="460" type="curve"/>
      <point x="102" y="511"/>
      <point x="76" y="533"/>
      <point x="51" y="535" type="curve" smooth="yes"/>
      <point x="34" y="537"/>
      <point x="18" y="557"/>
      <point x="18" y="567" type="curve" smooth="yes"/>
      <point x="18" y="586"/>
      <point x="36" y="603"/>
      <point x="67" y="596" type="curve"/>
      <point x="110" y="590"/>
      <point x="237" y="591"/>
      <point x="283" y="596" type="curve" smooth="yes"/>
      <point x="320" y="601"/>
      <point x="327" y="585"/>
      <point x="327" y="569" type="curve" smooth="yes"/>
      <point x="327" y="557"/>
      <point x="322" y="545"/>
      <point x="306" y="542" type="curve"/>
      <point x="281" y="525"/>
      <point x="283" y="494"/>
      <point x="293" y="460" type="curve" smooth="yes"/>
      <point x="330" y="343"/>
      <point x="340" y="315"/>
      <point x="389" y="208" type="curve" smooth="yes"/>
      <point x="393" y="199"/>
      <point x="396" y="185"/>
      <point x="406" y="185" type="curve" smooth="yes"/>
      <point x="418" y="185"/>
      <point x="425" y="197"/>
      <point x="428" y="203" type="curve" smooth="yes"/>
      <point x="459" y="273"/>
      <point x="481" y="296"/>
      <point x="500" y="340" type="curve" smooth="yes"/>
      <point x="511" y="365"/>
      <point x="512" y="374"/>
      <point x="502" y="402" type="curve"/>
      <point x="492" y="427"/>
      <point x="484" y="444"/>
      <point x="476" y="460" type="curve" smooth="yes"/>
      <point x="450" y="511"/>
      <point x="424" y="533"/>
      <point x="399" y="535" type="curve" smooth="yes"/>
      <point x="382" y="537"/>
      <point x="366" y="557"/>
    </contour>
  </outline>
</glyph>
<glyph name="X" format="1">
  <advance width="785"/>
  <unicode hex="0058"/>
  <outline>
    <contour>
      <point x="70" y="574" type="curve" smooth="yes"/>
      <point x="70" y="584"/>
      <point x="82" y="600"/>
      <point x="98" y="599" type="curve" smooth="yes"/>
      <point x="128" y="598"/>
      <point x="273" y="593"/>
      <point x="337" y="597" type="curve" smooth="yes"/>
      <point x="360" y="598"/>
      <point x="373" y="578"/>
      <point x="369" y="556" type="curve" smooth="yes"/>
      <point x="366" y="544"/>
      <point x="368" y="518"/>
      <point x="373" y="509" type="curve" smooth="yes"/>
      <point x="377" y="502"/>
      <point x="423" y="434"/>
      <point x="430" y="422" type="curve"/>
      <point x="438" y="411"/>
      <point x="447" y="396"/>
      <point x="460" y="409" type="curve" smooth="yes"/>
      <point x="489" y="439"/>
      <point x="516" y="462"/>
      <point x="526" y="492" type="curve" smooth="yes"/>
      <point x="533" y="514"/>
      <point x="534" y="537"/>
      <point x="529" y="546" type="curve" smooth="yes"/>
      <point x="524" y="556"/>
      <point x="519" y="567"/>
      <point x="522" y="578" type="curve" smooth="yes"/>
      <point x="524" y="584"/>
      <point x="539" y="598"/>
      <point x="551" y="597" type="curve" smooth="yes"/>
      <point x="588" y="594"/>
      <point x="658" y="594"/>
      <point x="688" y="597" type="curve" smooth="yes"/>
      <point x="708" y="598"/>
      <point x="715" y="578"/>
      <point x="715" y="572" type="curve" smooth="yes"/>
      <point x="715" y="559"/>
      <point x="699" y="545"/>
      <point x="693" y="545" type="curve"/>
      <point x="662" y="535"/>
      <point x="617" y="500"/>
      <point x="604" y="486" type="curve"/>
      <point x="586" y="469"/>
      <point x="503" y="381"/>
      <point x="488" y="358" type="curve" smooth="yes"/>
      <point x="480" y="345"/>
      <point x="487" y="338"/>
      <point x="492" y="329" type="curve" smooth="yes"/>
      <point x="529" y="257"/>
      <point x="599" y="178"/>
      <point x="622" y="143" type="curve" smooth="yes"/>
      <point x="646" y="106"/>
      <point x="699" y="61"/>
      <point x="746" y="53" type="curve" smooth="yes"/>
      <point x="769" y="50"/>
      <point x="776" y="35"/>
      <point x="776" y="21" type="curve" smooth="yes"/>
      <point x="776" y="13"/>
      <point x="770" y="-4"/>
      <point x="743" y="-2" type="curve" smooth="yes"/>
      <point x="690" y="3"/>
      <point x="559" y="5"/>
      <point x="499" y="1" type="curve" smooth="yes"/>
      <point x="477" y="-1"/>
      <point x="449" y="1"/>
      <point x="448" y="18" type="curve"/>
      <point x="446" y="28"/>
      <point x="449" y="45"/>
      <point x="453" y="53" type="curve" smooth="yes"/>
      <point x="460" y="68"/>
      <point x="460" y="82"/>
      <point x="452" y="103" type="curve" smooth="yes"/>
      <point x="446" y="119"/>
      <point x="416" y="162"/>
      <point x="382" y="211" type="curve" smooth="yes"/>
      <point x="370" y="229"/>
      <point x="359" y="232"/>
      <point x="340" y="211" type="curve" smooth="yes"/>
      <point x="316" y="183"/>
      <point x="273" y="146"/>
      <point x="249" y="95" type="curve" smooth="yes"/>
      <point x="241" y="77"/>
      <point x="241" y="64"/>
      <point x="253" y="51" type="curve" smooth="yes"/>
      <point x="267" y="37"/>
      <point x="267" y="35"/>
      <point x="268" y="24" type="curve" smooth="yes"/>
      <point x="269" y="14"/>
      <point x="256" y="-5"/>
      <point x="234" y="-1" type="curve"/>
      <point x="215" y="4"/>
      <point x="97" y="4"/>
      <point x="77" y="1" type="curve" smooth="yes"/>
      <point x="45" y="-3"/>
      <point x="24" y="10"/>
      <point x="24" y="24" type="curve" smooth="yes"/>
      <point x="24" y="39"/>
      <point x="40" y="51"/>
      <point x="54" y="54" type="curve" smooth="yes"/>
      <point x="82" y="61"/>
      <point x="120" y="95"/>
      <point x="141" y="112" type="curve"/>
      <point x="194" y="159"/>
      <point x="275" y="226"/>
      <point x="306" y="268" type="curve" smooth="yes"/>
      <point x="322" y="289"/>
      <point x="321" y="306"/>
      <point x="316" y="316" type="curve" smooth="yes"/>
      <point x="301" y="349"/>
      <point x="203" y="471"/>
      <point x="185" y="491" type="curve" smooth="yes"/>
      <point x="145" y="533"/>
      <point x="133" y="542"/>
      <point x="98" y="545" type="curve" smooth="yes"/>
      <point x="80" y="546"/>
      <point x="70" y="566"/>
    </contour>
  </outline>
</glyph>
<glyph name="Y" format="1">
  <advance width="617"/>
  <unicode hex="0059"/>
  <outline>
    <contour>
      <point x="19" y="572" type="curve"/>
      <point x="16" y="583"/>
      <point x="26" y="598"/>
      <point x="45" y="596" type="curve" smooth="yes"/>
      <point x="104" y="590"/>
      <point x="223" y="593"/>
      <point x="272" y="595" type="curve"/>
      <point x="283" y="597"/>
      <point x="294" y="592"/>
      <point x="297" y="579" type="curve" smooth="yes"/>
      <point x="299" y="573"/>
      <point x="300" y="559"/>
      <point x="291" y="551" type="curve"/>
      <point x="279" y="536"/>
      <point x="279" y="526"/>
      <point x="285" y="507" type="curve"/>
      <point x="277" y="513"/>
      <point x="348" y="398"/>
      <point x="353" y="394" type="curve"/>
      <point x="360" y="386"/>
      <point x="366" y="386"/>
      <point x="380" y="398" type="curve"/>
      <point x="404" y="421"/>
      <point x="433" y="476"/>
      <point x="434" y="508" type="curve" smooth="yes"/>
      <point x="434" y="536"/>
      <point x="423" y="551"/>
      <point x="406" y="562" type="curve" smooth="yes"/>
      <point x="392" y="571"/>
      <point x="391" y="579"/>
      <point x="396" y="588" type="curve" smooth="yes"/>
      <point x="398" y="593"/>
      <point x="411" y="596"/>
      <point x="419" y="594" type="curve" smooth="yes"/>
      <point x="449" y="590"/>
      <point x="565" y="592"/>
      <point x="577" y="593" type="curve"/>
      <point x="592" y="596"/>
      <point x="606" y="593"/>
      <point x="606" y="580" type="curve" smooth="yes"/>
      <point x="606" y="568"/>
      <point x="593" y="565"/>
      <point x="573" y="548" type="curve" smooth="yes"/>
      <point x="553" y="531"/>
      <point x="526" y="502"/>
      <point x="507" y="479" type="curve" smooth="yes"/>
      <point x="476" y="439"/>
      <point x="437" y="385"/>
      <point x="408" y="344" type="curve" smooth="yes"/>
      <point x="388" y="316"/>
      <point x="384" y="298"/>
      <point x="382" y="272" type="curve" smooth="yes"/>
      <point x="380" y="253"/>
      <point x="380" y="163"/>
      <point x="380" y="130" type="curve"/>
      <point x="382" y="83"/>
      <point x="403" y="63"/>
      <point x="449" y="49" type="curve" smooth="yes"/>
      <point x="461" y="46"/>
      <point x="470" y="29"/>
      <point x="470" y="23" type="curve" smooth="yes"/>
      <point x="469" y="13"/>
      <point x="465" y="-7"/>
      <point x="437" y="-4" type="curve"/>
      <point x="406" y="2"/>
      <point x="223" y="3"/>
      <point x="170" y="-2" type="curve" smooth="yes"/>
      <point x="145" y="-4"/>
      <point x="133" y="8"/>
      <point x="132" y="19" type="curve" smooth="yes"/>
      <point x="131" y="31"/>
      <point x="134" y="47"/>
      <point x="155" y="51" type="curve" smooth="yes"/>
      <point x="205" y="59"/>
      <point x="228" y="85"/>
      <point x="230" y="123" type="curve" smooth="yes"/>
      <point x="231" y="139"/>
      <point x="234" y="232"/>
      <point x="231" y="282" type="curve" smooth="yes"/>
      <point x="230" y="304"/>
      <point x="231" y="301"/>
      <point x="226" y="318" type="curve"/>
      <point x="209" y="362"/>
      <point x="130" y="456"/>
      <point x="104" y="490" type="curve" smooth="yes"/>
      <point x="86" y="514"/>
      <point x="69" y="534"/>
      <point x="45" y="541" type="curve"/>
      <point x="36" y="545"/>
      <point x="20" y="556"/>
    </contour>
  </outline>
</glyph>
<glyph name="Z" format="1">
  <advance width="579"/>
  <unicode hex="005A"/>
  <outline>
    <contour>
      <point x="532" y="220" type="curve" smooth="yes"/>
      <point x="542" y="219"/>
      <point x="553" y="205"/>
      <point x="551" y="176" type="curve"/>
      <point x="547" y="147"/>
      <point x="524" y="33"/>
      <point x="475" y="4" type="curve"/>
      <point x="460" y="-2"/>
      <point x="442" y="-5"/>
      <point x="418" y="-4" type="curve" smooth="yes"/>
      <point x="290" y="4"/>
      <point x="191" y="13"/>
      <point x="56" y="-2" type="curve" smooth="yes"/>
      <point x="26" y="-5"/>
      <point x="8" y="18"/>
      <point x="24" y="43" type="curve" smooth="yes"/>
      <point x="150" y="235"/>
      <point x="238" y="352"/>
      <point x="310" y="499" type="curve" smooth="yes"/>
      <point x="320" y="520"/>
      <point x="320" y="535"/>
      <point x="299" y="536" type="curve" smooth="yes"/>
      <point x="285" y="537"/>
      <point x="275" y="538"/>
      <point x="233" y="536" type="curve" smooth="yes"/>
      <point x="173" y="534"/>
      <point x="146" y="504"/>
      <point x="124" y="461" type="curve"/>
      <point x="114" y="444"/>
      <point x="103" y="421"/>
      <point x="86" y="421" type="curve"/>
      <point x="72" y="423"/>
      <point x="62" y="434"/>
      <point x="63" y="449" type="curve" smooth="yes"/>
      <point x="66" y="481"/>
      <point x="74" y="537"/>
      <point x="83" y="586" type="curve" smooth="yes"/>
      <point x="86" y="600"/>
      <point x="96" y="611"/>
      <point x="108" y="611" type="curve" smooth="yes"/>
      <point x="112" y="611"/>
      <point x="130" y="606"/>
      <point x="136" y="604" type="curve"/>
      <point x="228" y="593"/>
      <point x="396" y="593"/>
      <point x="502" y="598" type="curve" smooth="yes"/>
      <point x="535" y="600"/>
      <point x="530" y="572"/>
      <point x="525" y="563" type="curve" smooth="yes"/>
      <point x="405" y="372"/>
      <point x="327" y="274"/>
      <point x="242" y="98" type="curve" smooth="yes"/>
      <point x="237" y="88"/>
      <point x="243" y="74"/>
      <point x="253" y="71" type="curve" smooth="yes"/>
      <point x="276" y="65"/>
      <point x="283" y="64"/>
      <point x="315" y="64" type="curve" smooth="yes"/>
      <point x="432" y="64"/>
      <point x="485" y="152"/>
      <point x="497" y="194" type="curve"/>
      <point x="500" y="212"/>
      <point x="514" y="221"/>
    </contour>
  </outline>
</glyph>
<glyph name="bracketleft" format="1">
  <advance width="329"/>
  <unicode hex="005B"/>
  <outline>
    <contour>
      <point x="251" y="633" type="curve" smooth="yes"/>
      <point x="265" y="633"/>
      <point x="275" y="617"/>
      <point x="275" y="609" type="curve" smooth="yes"/>
      <point x="275" y="598"/>
      <point x="263" y="585"/>
      <point x="253" y="586" type="curve" smooth="yes"/>
      <point x="243" y="587"/>
      <point x="226" y="585"/>
      <point x="210" y="584" type="curve" smooth="yes"/>
      <point x="194" y="583"/>
      <point x="185" y="576"/>
      <point x="184" y="556" type="curve" smooth="yes"/>
      <point x="182" y="503"/>
      <point x="182" y="107"/>
      <point x="182" y="26" type="curve" smooth="yes"/>
      <point x="182" y="7"/>
      <point x="189" y="-7"/>
      <point x="205" y="-7" type="curve" smooth="yes"/>
      <point x="210" y="-7"/>
      <point x="244" y="-10"/>
      <point x="256" y="-10" type="curve" smooth="yes"/>
      <point x="269" y="-10"/>
      <point x="279" y="-13"/>
      <point x="279" y="-36" type="curve" smooth="yes"/>
      <point x="279" y="-42"/>
      <point x="269" y="-59"/>
      <point x="260" y="-59" type="curve" smooth="yes"/>
      <point x="249" y="-59"/>
      <point x="91" y="-56"/>
      <point x="75" y="-56" type="curve" smooth="yes"/>
      <point x="59" y="-56"/>
      <point x="51" y="-44"/>
      <point x="51" y="-28" type="curve" smooth="yes"/>
      <point x="54" y="164"/>
      <point x="55" y="344"/>
      <point x="54" y="604" type="curve" smooth="yes"/>
      <point x="54" y="622"/>
      <point x="66" y="630"/>
      <point x="78" y="630" type="curve" smooth="yes"/>
      <point x="88" y="630"/>
      <point x="242" y="633"/>
    </contour>
  </outline>
</glyph>
<glyph name="backslash" format="1">
  <advance width="449"/>
  <unicode hex="005C"/>
  <outline>
    <contour>
      <point x="48" y="610" type="curve" smooth="yes"/>
      <point x="74" y="612"/>
      <point x="80" y="607"/>
      <point x="103" y="570" type="curve" smooth="yes"/>
      <point x="161" y="475"/>
      <point x="338" y="181"/>
      <point x="371" y="130" type="curve" smooth="yes"/>
      <point x="386" y="106"/>
      <point x="413" y="80"/>
      <point x="418" y="53" type="curve" smooth="yes"/>
      <point x="422" y="33"/>
      <point x="411" y="-10"/>
      <point x="402" y="-21" type="curve"/>
      <point x="394" y="-29"/>
      <point x="383" y="-29"/>
      <point x="375" y="-19" type="curve"/>
      <point x="361" y="2"/>
      <point x="343" y="33"/>
      <point x="331" y="53" type="curve"/>
      <point x="291" y="128"/>
      <point x="101" y="460"/>
      <point x="54" y="537" type="curve"/>
      <point x="25" y="582"/>
      <point x="28" y="609"/>
    </contour>
  </outline>
</glyph>
<glyph name="bracketright" format="1">
  <advance width="329"/>
  <unicode hex="005D"/>
  <outline>
    <contour>
      <point x="78" y="-59" type="curve" smooth="yes"/>
      <point x="64" y="-59"/>
      <point x="54" y="-43"/>
      <point x="54" y="-35" type="curve" smooth="yes"/>
      <point x="54" y="-24"/>
      <point x="66" y="-11"/>
      <point x="76" y="-12" type="curve" smooth="yes"/>
      <point x="86" y="-13"/>
      <point x="104" y="-11"/>
      <point x="120" y="-10" type="curve" smooth="yes"/>
      <point x="136" y="-9"/>
      <point x="144" y="-2"/>
      <point x="145" y="18" type="curve" smooth="yes"/>
      <point x="147" y="71"/>
      <point x="147" y="467"/>
      <point x="147" y="548" type="curve" smooth="yes"/>
      <point x="147" y="567"/>
      <point x="141" y="581"/>
      <point x="125" y="581" type="curve" smooth="yes"/>
      <point x="120" y="581"/>
      <point x="85" y="584"/>
      <point x="73" y="584" type="curve" smooth="yes"/>
      <point x="61" y="584"/>
      <point x="51" y="587"/>
      <point x="51" y="610" type="curve" smooth="yes"/>
      <point x="51" y="616"/>
      <point x="60" y="633"/>
      <point x="69" y="633" type="curve" smooth="yes"/>
      <point x="80" y="633"/>
      <point x="238" y="630"/>
      <point x="254" y="630" type="curve" smooth="yes"/>
      <point x="270" y="630"/>
      <point x="279" y="618"/>
      <point x="279" y="602" type="curve" smooth="yes"/>
      <point x="275" y="410"/>
      <point x="274" y="230"/>
      <point x="275" y="-30" type="curve" smooth="yes"/>
      <point x="275" y="-48"/>
      <point x="263" y="-56"/>
      <point x="251" y="-56" type="curve" smooth="yes"/>
      <point x="241" y="-56"/>
      <point x="87" y="-59"/>
    </contour>
  </outline>
</glyph>
<glyph name="asciicircum" format="1">
  <advance width="402"/>
  <unicode hex="005E"/>
  <outline>
    <contour>
      <point x="190" y="503" type="curve" smooth="yes"/>
      <point x="180" y="487"/>
      <point x="103" y="354"/>
      <point x="88" y="327" type="curve" smooth="yes"/>
      <point x="80" y="313"/>
      <point x="69" y="310"/>
      <point x="49" y="313" type="curve" smooth="yes"/>
      <point x="24" y="317"/>
      <point x="31" y="339"/>
      <point x="51" y="375" type="curve"/>
      <point x="64" y="393"/>
      <point x="147" y="532"/>
      <point x="176" y="585" type="curve" smooth="yes"/>
      <point x="180" y="593"/>
      <point x="187" y="601"/>
      <point x="203" y="605" type="curve" smooth="yes"/>
      <point x="218" y="609"/>
      <point x="221" y="601"/>
      <point x="230" y="583" type="curve" smooth="yes"/>
      <point x="263" y="521"/>
      <point x="307" y="458"/>
      <point x="317" y="440" type="curve" smooth="yes"/>
      <point x="329" y="419"/>
      <point x="355" y="387"/>
      <point x="359" y="367" type="curve"/>
      <point x="361" y="350"/>
      <point x="350" y="322"/>
      <point x="341" y="311" type="curve" smooth="yes"/>
      <point x="335" y="304"/>
      <point x="321" y="306"/>
      <point x="316" y="316" type="curve"/>
      <point x="306" y="332"/>
      <point x="296" y="353"/>
      <point x="290" y="367" type="curve" smooth="yes"/>
      <point x="276" y="395"/>
      <point x="251" y="444"/>
      <point x="213" y="506" type="curve" smooth="yes"/>
      <point x="208" y="514"/>
      <point x="196" y="512"/>
    </contour>
  </outline>
</glyph>
<glyph name="grave" format="1">
  <advance width="477"/>
  <unicode hex="0060"/>
  <outline>
    <contour>
      <point x="322" y="536" type="curve" smooth="yes"/>
      <point x="326" y="529"/>
      <point x="318" y="513"/>
      <point x="314" y="511" type="curve" smooth="yes"/>
      <point x="296" y="503"/>
      <point x="282" y="513"/>
      <point x="265" y="525" type="curve" smooth="yes"/>
      <point x="239" y="544"/>
      <point x="181" y="578"/>
      <point x="152" y="593" type="curve"/>
      <point x="136" y="600"/>
      <point x="135" y="628"/>
      <point x="155" y="633" type="curve" smooth="yes"/>
      <point x="168" y="636"/>
      <point x="216" y="641"/>
      <point x="234" y="642" type="curve" smooth="yes"/>
      <point x="263" y="644"/>
      <point x="278" y="641"/>
      <point x="287" y="618" type="curve" smooth="yes"/>
      <point x="295" y="597"/>
      <point x="307" y="561"/>
    </contour>
  </outline>
</glyph>
<glyph name="b" format="1">
  <advance width="540"/>
  <unicode hex="0062"/>
  <outline>
    <contour>
      <point x="343" y="454" type="curve" smooth="yes"/>
      <point x="492" y="454"/>
      <point x="508" y="338"/>
      <point x="508" y="291" type="curve" smooth="yes"/>
      <point x="508" y="120"/>
      <point x="381" y="-10"/>
      <point x="252" y="-10" type="curve" smooth="yes"/>
      <point x="213" y="-10"/>
      <point x="200" y="-4"/>
      <point x="187" y="2" type="curve" smooth="yes"/>
      <point x="168" y="10"/>
      <point x="149" y="24"/>
      <point x="141" y="11" type="curve" smooth="yes"/>
      <point x="130" y="-7"/>
      <point x="127" y="-19"/>
      <point x="110" y="-45" type="curve"/>
      <point x="102" y="-60"/>
      <point x="87" y="-69"/>
      <point x="77" y="-67" type="curve" smooth="yes"/>
      <point x="59" y="-64"/>
      <point x="59" y="-54"/>
      <point x="59" y="-47" type="curve" smooth="yes"/>
      <point x="59" y="-38"/>
      <point x="69" y="-7"/>
      <point x="71" y="11" type="curve" smooth="yes"/>
      <point x="84" y="152"/>
      <point x="82" y="383"/>
      <point x="82" y="532" type="curve" smooth="yes"/>
      <point x="82" y="580"/>
      <point x="86" y="620"/>
      <point x="14" y="615" type="curve" smooth="yes"/>
      <point x="1" y="614"/>
      <point x="-13" y="631"/>
      <point x="-13" y="640" type="curve" smooth="yes"/>
      <point x="-13" y="649"/>
      <point x="2" y="665"/>
      <point x="11" y="667" type="curve" smooth="yes"/>
      <point x="35" y="672"/>
      <point x="147" y="684"/>
      <point x="177" y="689" type="curve" smooth="yes"/>
      <point x="206" y="694"/>
      <point x="231" y="694"/>
      <point x="226" y="657" type="curve" smooth="yes"/>
      <point x="217" y="582"/>
      <point x="216" y="476"/>
      <point x="215" y="406" type="curve" smooth="yes"/>
      <point x="215" y="381"/>
      <point x="224" y="376"/>
      <point x="242" y="395" type="curve"/>
      <point x="274" y="425"/>
      <point x="308" y="454"/>
    </contour>
    <contour>
      <point x="295" y="347" type="curve" smooth="yes"/>
      <point x="268" y="347"/>
      <point x="226" y="318"/>
      <point x="215" y="227" type="curve" smooth="yes"/>
      <point x="210" y="183"/>
      <point x="213" y="174"/>
      <point x="214" y="125" type="curve" smooth="yes"/>
      <point x="214" y="99"/>
      <point x="229" y="72"/>
      <point x="262" y="72" type="curve" smooth="yes"/>
      <point x="322" y="72"/>
      <point x="359" y="123"/>
      <point x="359" y="257" type="curve" smooth="yes"/>
      <point x="359" y="330"/>
      <point x="322" y="347"/>
    </contour>
  </outline>
</glyph>
<glyph name="c" format="1">
  <advance width="456"/>
  <unicode hex="0063"/>
  <outline>
    <contour>
      <point x="228" y="-8" type="curve" smooth="yes"/>
      <point x="104" y="-8"/>
      <point x="28" y="68"/>
      <point x="33" y="198" type="curve"/>
      <point x="39" y="327"/>
      <point x="151" y="456"/>
      <point x="270" y="456" type="curve" smooth="yes"/>
      <point x="365" y="456"/>
      <point x="408" y="431"/>
      <point x="407" y="374" type="curve" smooth="yes"/>
      <point x="407" y="342"/>
      <point x="367" y="305"/>
      <point x="315" y="289" type="curve" smooth="yes"/>
      <point x="306" y="286"/>
      <point x="291" y="287"/>
      <point x="287" y="292" type="curve" smooth="yes"/>
      <point x="282" y="298"/>
      <point x="282" y="310"/>
      <point x="286" y="320" type="curve" smooth="yes"/>
      <point x="299" y="349"/>
      <point x="301" y="392"/>
      <point x="251" y="392" type="curve" smooth="yes"/>
      <point x="236" y="392"/>
      <point x="178" y="381"/>
      <point x="178" y="216" type="curve" smooth="yes"/>
      <point x="178" y="113"/>
      <point x="231" y="74"/>
      <point x="263" y="74" type="curve" smooth="yes"/>
      <point x="322" y="74"/>
      <point x="341" y="77"/>
      <point x="370" y="108" type="curve" smooth="yes"/>
      <point x="374" y="112"/>
      <point x="397" y="136"/>
      <point x="418" y="126" type="curve" smooth="yes"/>
      <point x="424" y="124"/>
      <point x="427" y="111"/>
      <point x="423" y="103" type="curve" smooth="yes"/>
      <point x="409" y="75"/>
      <point x="386" y="48"/>
      <point x="367" y="29" type="curve"/>
      <point x="351" y="11"/>
      <point x="337" y="2"/>
      <point x="315" y="-2" type="curve"/>
      <point x="289" y="-8"/>
      <point x="242" y="-8"/>
    </contour>
  </outline>
</glyph>
<glyph name="f" format="1">
  <advance width="409"/>
  <unicode hex="0066"/>
  <outline>
    <contour>
      <point x="250" y="113" type="curve" smooth="yes"/>
      <point x="253" y="75"/>
      <point x="258" y="51"/>
      <point x="335" y="45" type="curve" smooth="yes"/>
      <point x="347" y="45"/>
      <point x="359" y="29"/>
      <point x="359" y="24" type="curve" smooth="yes"/>
      <point x="359" y="19"/>
      <point x="348" y="-3"/>
      <point x="332" y="-2" type="curve" smooth="yes"/>
      <point x="238" y="3"/>
      <point x="133" y="5"/>
      <point x="43" y="-2" type="curve" smooth="yes"/>
      <point x="31" y="-3"/>
      <point x="20" y="8"/>
      <point x="20" y="21" type="curve" smooth="yes"/>
      <point x="20" y="28"/>
      <point x="28" y="45"/>
      <point x="43" y="47" type="curve" smooth="yes"/>
      <point x="82" y="54"/>
      <point x="109" y="80"/>
      <point x="109" y="114" type="curve" smooth="yes"/>
      <point x="109" y="173"/>
      <point x="113" y="274"/>
      <point x="112" y="356" type="curve" smooth="yes"/>
      <point x="112" y="380"/>
      <point x="108" y="382"/>
      <point x="97" y="382" type="curve" smooth="yes"/>
      <point x="79" y="382"/>
      <point x="56" y="381"/>
      <point x="51" y="381" type="curve" smooth="yes"/>
      <point x="39" y="381"/>
      <point x="43" y="402"/>
      <point x="47" y="412" type="curve" smooth="yes"/>
      <point x="51" y="420"/>
      <point x="59" y="434"/>
      <point x="65" y="435" type="curve"/>
      <point x="76" y="439"/>
      <point x="87" y="439"/>
      <point x="98" y="439" type="curve" smooth="yes"/>
      <point x="111" y="439"/>
      <point x="114" y="441"/>
      <point x="115" y="454" type="curve" smooth="yes"/>
      <point x="136" y="636"/>
      <point x="279" y="695"/>
      <point x="344" y="695" type="curve" smooth="yes"/>
      <point x="403" y="695"/>
      <point x="426" y="680"/>
      <point x="426" y="630" type="curve" smooth="yes"/>
      <point x="426" y="604"/>
      <point x="402" y="546"/>
      <point x="374" y="529" type="curve" smooth="yes"/>
      <point x="366" y="524"/>
      <point x="345" y="518"/>
      <point x="336" y="519" type="curve" smooth="yes"/>
      <point x="328" y="519"/>
      <point x="326" y="529"/>
      <point x="326" y="538" type="curve" smooth="yes"/>
      <point x="327" y="582"/>
      <point x="330" y="608"/>
      <point x="301" y="608" type="curve" smooth="yes"/>
      <point x="269" y="608"/>
      <point x="246" y="591"/>
      <point x="246" y="450" type="curve" smooth="yes"/>
      <point x="246" y="441"/>
      <point x="250" y="440"/>
      <point x="261" y="440" type="curve" smooth="yes"/>
      <point x="303" y="440"/>
      <point x="319" y="448"/>
      <point x="371" y="448" type="curve" smooth="yes"/>
      <point x="389" y="448"/>
      <point x="394" y="435"/>
      <point x="392" y="429" type="curve" smooth="yes"/>
      <point x="389" y="415"/>
      <point x="383" y="393"/>
      <point x="369" y="380" type="curve" smooth="yes"/>
      <point x="363" y="375"/>
      <point x="352" y="372"/>
      <point x="346" y="372" type="curve" smooth="yes"/>
      <point x="328" y="372"/>
      <point x="287" y="380"/>
      <point x="264" y="380" type="curve" smooth="yes"/>
      <point x="250" y="380"/>
      <point x="246" y="375"/>
      <point x="246" y="358" type="curve" smooth="yes"/>
      <point x="246" y="274"/>
      <point x="245" y="189"/>
    </contour>
  </outline>
</glyph>
<glyph name="i" format="1">
  <advance width="350"/>
  <unicode hex="0069"/>
  <outline>
    <contour>
      <point x="40" y="404" type="curve"/>
      <point x="70" y="418"/>
      <point x="162" y="440"/>
      <point x="209" y="450" type="curve" smooth="yes"/>
      <point x="231" y="455"/>
      <point x="255" y="458"/>
      <point x="254" y="434" type="curve" smooth="yes"/>
      <point x="252" y="367"/>
      <point x="246" y="210"/>
      <point x="247" y="139" type="curve"/>
      <point x="250" y="85"/>
      <point x="249" y="67"/>
      <point x="269" y="58" type="curve" smooth="yes"/>
      <point x="283" y="51"/>
      <point x="299" y="46"/>
      <point x="316" y="43" type="curve" smooth="yes"/>
      <point x="324" y="41"/>
      <point x="332" y="31"/>
      <point x="330" y="23" type="curve" smooth="yes"/>
      <point x="327" y="9"/>
      <point x="318" y="-2"/>
      <point x="300" y="0" type="curve" smooth="yes"/>
      <point x="245" y="4"/>
      <point x="117" y="8"/>
      <point x="40" y="-2" type="curve" smooth="yes"/>
      <point x="26" y="-4"/>
      <point x="19" y="11"/>
      <point x="19" y="19" type="curve" smooth="yes"/>
      <point x="19" y="26"/>
      <point x="26" y="36"/>
      <point x="45" y="40" type="curve" smooth="yes"/>
      <point x="106" y="55"/>
      <point x="103" y="72"/>
      <point x="104" y="93" type="curve" smooth="yes"/>
      <point x="106" y="143"/>
      <point x="110" y="246"/>
      <point x="104" y="344" type="curve"/>
      <point x="104" y="363"/>
      <point x="93" y="367"/>
      <point x="77" y="366" type="curve" smooth="yes"/>
      <point x="72" y="366"/>
      <point x="60" y="364"/>
      <point x="44" y="361" type="curve" smooth="yes"/>
      <point x="33" y="358"/>
      <point x="24" y="367"/>
      <point x="23" y="378" type="curve" smooth="yes"/>
      <point x="22" y="389"/>
      <point x="33" y="402"/>
    </contour>
    <contour>
      <point x="204" y="674" type="curve" smooth="yes"/>
      <point x="250" y="674"/>
      <point x="263" y="657"/>
      <point x="264" y="630" type="curve" smooth="yes"/>
      <point x="265" y="610"/>
      <point x="261" y="593"/>
      <point x="232" y="572" type="curve"/>
      <point x="215" y="558"/>
      <point x="182" y="541"/>
      <point x="162" y="541" type="curve" smooth="yes"/>
      <point x="134" y="541"/>
      <point x="122" y="578"/>
      <point x="122" y="610" type="curve"/>
      <point x="124" y="641"/>
      <point x="148" y="674"/>
    </contour>
  </outline>
</glyph>
<glyph name="j" format="1">
  <advance width="316"/>
  <unicode hex="006A"/>
  <outline>
    <contour>
      <point x="10" y="389" type="curve" smooth="yes"/>
      <point x="10" y="406"/>
      <point x="19" y="415"/>
      <point x="33" y="418" type="curve" smooth="yes"/>
      <point x="63" y="425"/>
      <point x="158" y="442"/>
      <point x="195" y="450" type="curve" smooth="yes"/>
      <point x="218" y="455"/>
      <point x="241" y="456"/>
      <point x="241" y="432" type="curve"/>
      <point x="237" y="344"/>
      <point x="235" y="155"/>
      <point x="234" y="84" type="curve"/>
      <point x="229" y="-88"/>
      <point x="157" y="-275"/>
      <point x="3" y="-275" type="curve" smooth="yes"/>
      <point x="-101" y="-275"/>
      <point x="-117" y="-224"/>
      <point x="-116" y="-196" type="curve" smooth="yes"/>
      <point x="-115" y="-157"/>
      <point x="-82" y="-116"/>
      <point x="-30" y="-96" type="curve" smooth="yes"/>
      <point x="-3" y="-86"/>
      <point x="15" y="-98"/>
      <point x="10" y="-119" type="curve" smooth="yes"/>
      <point x="6" y="-136"/>
      <point x="2" y="-154"/>
      <point x="2" y="-167" type="curve" smooth="yes"/>
      <point x="2" y="-193"/>
      <point x="6" y="-202"/>
      <point x="29" y="-202" type="curve" smooth="yes"/>
      <point x="93" y="-202"/>
      <point x="95" y="-57"/>
      <point x="95" y="43" type="curve" smooth="yes"/>
      <point x="93" y="258"/>
      <point x="93" y="306"/>
      <point x="92" y="347" type="curve" smooth="yes"/>
      <point x="92" y="365"/>
      <point x="82" y="375"/>
      <point x="65" y="374" type="curve" smooth="yes"/>
      <point x="61" y="374"/>
      <point x="48" y="374"/>
      <point x="32" y="371" type="curve"/>
      <point x="19" y="370"/>
      <point x="10" y="382"/>
    </contour>
    <contour>
      <point x="183" y="674" type="curve" smooth="yes"/>
      <point x="229" y="674"/>
      <point x="242" y="657"/>
      <point x="243" y="630" type="curve" smooth="yes"/>
      <point x="244" y="610"/>
      <point x="240" y="593"/>
      <point x="211" y="572" type="curve"/>
      <point x="194" y="558"/>
      <point x="161" y="541"/>
      <point x="141" y="541" type="curve" smooth="yes"/>
      <point x="113" y="541"/>
      <point x="101" y="578"/>
      <point x="101" y="610" type="curve"/>
      <point x="103" y="641"/>
      <point x="127" y="674"/>
    </contour>
  </outline>
</glyph>
<glyph name="k" format="1">
  <advance width="677"/>
  <unicode hex="006B"/>
  <outline>
    <contour>
      <point x="23" y="641" type="curve" smooth="yes"/>
      <point x="22" y="649"/>
      <point x="27" y="662"/>
      <point x="35" y="665" type="curve" smooth="yes"/>
      <point x="84" y="678"/>
      <point x="165" y="688"/>
      <point x="215" y="693" type="curve" smooth="yes"/>
      <point x="248" y="696"/>
      <point x="262" y="691"/>
      <point x="258" y="660" type="curve"/>
      <point x="248" y="532"/>
      <point x="247" y="403"/>
      <point x="247" y="279" type="curve" smooth="yes"/>
      <point x="247" y="257"/>
      <point x="255" y="251"/>
      <point x="270" y="266" type="curve" smooth="yes"/>
      <point x="314" y="314"/>
      <point x="371" y="374"/>
      <point x="402" y="396" type="curve" smooth="yes"/>
      <point x="449" y="431"/>
      <point x="483" y="454"/>
      <point x="526" y="454" type="curve" smooth="yes"/>
      <point x="572" y="454"/>
      <point x="595" y="431"/>
      <point x="595" y="406" type="curve" smooth="yes"/>
      <point x="595" y="366"/>
      <point x="555" y="302"/>
      <point x="522" y="289" type="curve"/>
      <point x="506" y="281"/>
      <point x="490" y="283"/>
      <point x="492" y="299" type="curve" smooth="yes"/>
      <point x="495" y="316"/>
      <point x="492" y="331"/>
      <point x="487" y="337" type="curve" smooth="yes"/>
      <point x="477" y="348"/>
      <point x="465" y="352"/>
      <point x="448" y="348" type="curve" smooth="yes"/>
      <point x="426" y="343"/>
      <point x="410" y="332"/>
      <point x="394" y="312" type="curve" smooth="yes"/>
      <point x="389" y="305"/>
      <point x="387" y="295"/>
      <point x="393" y="285" type="curve" smooth="yes"/>
      <point x="436" y="210"/>
      <point x="470" y="170"/>
      <point x="528" y="115" type="curve" smooth="yes"/>
      <point x="538" y="106"/>
      <point x="560" y="88"/>
      <point x="597" y="88" type="curve" smooth="yes"/>
      <point x="614" y="88"/>
      <point x="652" y="98"/>
      <point x="659" y="77" type="curve" smooth="yes"/>
      <point x="663" y="66"/>
      <point x="662" y="60"/>
      <point x="649" y="48" type="curve" smooth="yes"/>
      <point x="617" y="19"/>
      <point x="556" y="-8"/>
      <point x="519" y="-8" type="curve" smooth="yes"/>
      <point x="455" y="-8"/>
      <point x="436" y="3"/>
      <point x="407" y="29" type="curve" smooth="yes"/>
      <point x="359" y="71"/>
      <point x="313" y="136"/>
      <point x="294" y="183" type="curve" smooth="yes"/>
      <point x="290" y="194"/>
      <point x="277" y="205"/>
      <point x="266" y="202" type="curve" smooth="yes"/>
      <point x="250" y="197"/>
      <point x="250" y="182"/>
      <point x="250" y="169" type="curve" smooth="yes"/>
      <point x="250" y="111" type="line" smooth="yes"/>
      <point x="250" y="69"/>
      <point x="257" y="54"/>
      <point x="286" y="47" type="curve"/>
      <point x="307" y="45"/>
      <point x="311" y="26"/>
      <point x="311" y="20" type="curve" smooth="yes"/>
      <point x="311" y="8"/>
      <point x="302" y="-5"/>
      <point x="284" y="-4" type="curve" smooth="yes"/>
      <point x="218" y="2"/>
      <point x="106" y="4"/>
      <point x="43" y="-3" type="curve"/>
      <point x="24" y="-4"/>
      <point x="19" y="13"/>
      <point x="19" y="20" type="curve" smooth="yes"/>
      <point x="19" y="32"/>
      <point x="31" y="45"/>
      <point x="47" y="48" type="curve" smooth="yes"/>
      <point x="87" y="56"/>
      <point x="98" y="61"/>
      <point x="100" y="113" type="curve" smooth="yes"/>
      <point x="109" y="269"/>
      <point x="111" y="513"/>
      <point x="106" y="572" type="curve" smooth="yes"/>
      <point x="104" y="598"/>
      <point x="100" y="625"/>
      <point x="64" y="622" type="curve" smooth="yes"/>
      <point x="51" y="621"/>
      <point x="24" y="616"/>
    </contour>
  </outline>
</glyph>
<glyph name="l" format="1">
  <advance width="343"/>
  <unicode hex="006C"/>
  <outline>
    <contour>
      <point x="295" y="-4" type="curve" smooth="yes"/>
      <point x="230" y="2"/>
      <point x="106" y="4"/>
      <point x="43" y="-3" type="curve"/>
      <point x="24" y="-4"/>
      <point x="19" y="13"/>
      <point x="19" y="20" type="curve" smooth="yes"/>
      <point x="19" y="32"/>
      <point x="31" y="45"/>
      <point x="47" y="48" type="curve" smooth="yes"/>
      <point x="87" y="56"/>
      <point x="97" y="61"/>
      <point x="100" y="113" type="curve" smooth="yes"/>
      <point x="110" y="269"/>
      <point x="111" y="513"/>
      <point x="106" y="572" type="curve" smooth="yes"/>
      <point x="104" y="598"/>
      <point x="100" y="625"/>
      <point x="64" y="622" type="curve" smooth="yes"/>
      <point x="51" y="621"/>
      <point x="24" y="616"/>
      <point x="23" y="641" type="curve" smooth="yes"/>
      <point x="22" y="649"/>
      <point x="27" y="662"/>
      <point x="35" y="665" type="curve" smooth="yes"/>
      <point x="84" y="678"/>
      <point x="165" y="688"/>
      <point x="215" y="693" type="curve" smooth="yes"/>
      <point x="248" y="696"/>
      <point x="262" y="691"/>
      <point x="258" y="660" type="curve"/>
      <point x="244" y="476"/>
      <point x="248" y="247"/>
      <point x="250" y="111" type="curve" smooth="yes"/>
      <point x="251" y="61"/>
      <point x="259" y="56"/>
      <point x="298" y="47" type="curve"/>
      <point x="319" y="45"/>
      <point x="323" y="26"/>
      <point x="323" y="20" type="curve" smooth="yes"/>
      <point x="323" y="8"/>
      <point x="314" y="-5"/>
    </contour>
  </outline>
</glyph>
<glyph name="m" format="1">
  <advance width="931"/>
  <unicode hex="006D"/>
  <outline>
    <contour>
      <point x="407" y="455" type="curve" smooth="yes"/>
      <point x="485" y="455"/>
      <point x="531" y="419"/>
      <point x="531" y="373" type="curve" smooth="yes"/>
      <point x="531" y="352"/>
      <point x="551" y="354"/>
      <point x="563" y="367" type="curve" smooth="yes"/>
      <point x="607" y="417"/>
      <point x="648" y="455"/>
      <point x="700" y="455" type="curve" smooth="yes"/>
      <point x="794" y="455"/>
      <point x="843" y="412"/>
      <point x="842" y="332" type="curve" smooth="yes"/>
      <point x="842" y="297"/>
      <point x="839" y="164"/>
      <point x="840" y="133" type="curve" smooth="yes"/>
      <point x="842" y="60"/>
      <point x="850" y="56"/>
      <point x="876" y="49" type="curve" smooth="yes"/>
      <point x="886" y="46"/>
      <point x="916" y="36"/>
      <point x="917" y="20" type="curve" smooth="yes"/>
      <point x="917" y="9"/>
      <point x="910" y="-5"/>
      <point x="894" y="-4" type="curve" smooth="yes"/>
      <point x="828" y="-1"/>
      <point x="741" y="3"/>
      <point x="680" y="-2" type="curve" smooth="yes"/>
      <point x="666" y="-3"/>
      <point x="648" y="8"/>
      <point x="648" y="15" type="curve" smooth="yes"/>
      <point x="648" y="29"/>
      <point x="662" y="45"/>
      <point x="666" y="46" type="curve" smooth="yes"/>
      <point x="693" y="53"/>
      <point x="696" y="79"/>
      <point x="696" y="92" type="curve" smooth="yes"/>
      <point x="700" y="148"/>
      <point x="696" y="243"/>
      <point x="696" y="279" type="curve" smooth="yes"/>
      <point x="695" y="322"/>
      <point x="673" y="342"/>
      <point x="638" y="342" type="curve" smooth="yes"/>
      <point x="607" y="342"/>
      <point x="543" y="279"/>
      <point x="543" y="218" type="curve" smooth="yes"/>
      <point x="543" y="173"/>
      <point x="542" y="150"/>
      <point x="543" y="133" type="curve" smooth="yes"/>
      <point x="545" y="60"/>
      <point x="541" y="56"/>
      <point x="567" y="49" type="curve" smooth="yes"/>
      <point x="577" y="46"/>
      <point x="598" y="36"/>
      <point x="599" y="20" type="curve" smooth="yes"/>
      <point x="599" y="9"/>
      <point x="587" y="-6"/>
      <point x="571" y="-4" type="curve" smooth="yes"/>
      <point x="513" y="1"/>
      <point x="448" y="3"/>
      <point x="376" y="-2" type="curve"/>
      <point x="359" y="-2"/>
      <point x="351" y="7"/>
      <point x="351" y="15" type="curve" smooth="yes"/>
      <point x="351" y="29"/>
      <point x="360" y="44"/>
      <point x="370" y="46" type="curve" smooth="yes"/>
      <point x="396" y="53"/>
      <point x="399" y="79"/>
      <point x="399" y="92" type="curve" smooth="yes"/>
      <point x="403" y="148"/>
      <point x="399" y="242"/>
      <point x="399" y="279" type="curve" smooth="yes"/>
      <point x="398" y="321"/>
      <point x="379" y="341"/>
      <point x="343" y="341" type="curve" smooth="yes"/>
      <point x="307" y="341"/>
      <point x="248" y="279"/>
      <point x="243" y="205" type="curve" smooth="yes"/>
      <point x="241" y="167"/>
      <point x="242" y="138"/>
      <point x="244" y="109" type="curve" smooth="yes"/>
      <point x="247" y="61"/>
      <point x="258" y="51"/>
      <point x="285" y="45" type="curve" smooth="yes"/>
      <point x="301" y="42"/>
      <point x="306" y="26"/>
      <point x="306" y="20" type="curve" smooth="yes"/>
      <point x="306" y="11"/>
      <point x="290" y="-4"/>
      <point x="275" y="-3" type="curve" smooth="yes"/>
      <point x="206" y="4"/>
      <point x="112" y="3"/>
      <point x="36" y="-4" type="curve" smooth="yes"/>
      <point x="19" y="-6"/>
      <point x="14" y="11"/>
      <point x="14" y="19" type="curve" smooth="yes"/>
      <point x="14" y="24"/>
      <point x="23" y="41"/>
      <point x="31" y="43" type="curve" smooth="yes"/>
      <point x="89" y="54"/>
      <point x="95" y="56"/>
      <point x="99" y="117" type="curve" smooth="yes"/>
      <point x="101" y="141"/>
      <point x="105" y="259"/>
      <point x="104" y="343" type="curve" smooth="yes"/>
      <point x="104" y="362"/>
      <point x="88" y="366"/>
      <point x="72" y="365" type="curve" smooth="yes"/>
      <point x="67" y="365"/>
      <point x="55" y="364"/>
      <point x="39" y="360" type="curve" smooth="yes"/>
      <point x="28" y="357"/>
      <point x="19" y="371"/>
      <point x="18" y="378" type="curve" smooth="yes"/>
      <point x="17" y="385"/>
      <point x="28" y="402"/>
      <point x="35" y="404" type="curve"/>
      <point x="65" y="418"/>
      <point x="145" y="440"/>
      <point x="192" y="450" type="curve" smooth="yes"/>
      <point x="215" y="455"/>
      <point x="240" y="459"/>
      <point x="240" y="434" type="curve" smooth="yes"/>
      <point x="240" y="417"/>
      <point x="236" y="389"/>
      <point x="236" y="369" type="curve" smooth="yes"/>
      <point x="236" y="346"/>
      <point x="246" y="335"/>
      <point x="264" y="360" type="curve" smooth="yes"/>
      <point x="306" y="417"/>
      <point x="354" y="455"/>
    </contour>
  </outline>
</glyph>
<glyph name="n" format="1">
  <advance width="643"/>
  <unicode hex="006E"/>
  <outline>
    <contour>
      <point x="411" y="455" type="curve" smooth="yes"/>
      <point x="504" y="455"/>
      <point x="561" y="412"/>
      <point x="559" y="332" type="curve" smooth="yes"/>
      <point x="559" y="297"/>
      <point x="556" y="164"/>
      <point x="557" y="133" type="curve" smooth="yes"/>
      <point x="559" y="60"/>
      <point x="567" y="56"/>
      <point x="593" y="49" type="curve" smooth="yes"/>
      <point x="604" y="46"/>
      <point x="625" y="36"/>
      <point x="626" y="20" type="curve" smooth="yes"/>
      <point x="626" y="9"/>
      <point x="620" y="-3"/>
      <point x="604" y="-2" type="curve" smooth="yes"/>
      <point x="540" y="3"/>
      <point x="457" y="1"/>
      <point x="399" y="-2" type="curve" smooth="yes"/>
      <point x="380" y="-3"/>
      <point x="365" y="7"/>
      <point x="365" y="15" type="curve" smooth="yes"/>
      <point x="365" y="29"/>
      <point x="371" y="44"/>
      <point x="383" y="46" type="curve" smooth="yes"/>
      <point x="408" y="51"/>
      <point x="413" y="79"/>
      <point x="413" y="92" type="curve"/>
      <point x="418" y="148"/>
      <point x="413" y="240"/>
      <point x="413" y="276" type="curve" smooth="yes"/>
      <point x="412" y="318"/>
      <point x="391" y="341"/>
      <point x="356" y="341" type="curve" smooth="yes"/>
      <point x="311" y="341"/>
      <point x="254" y="269"/>
      <point x="249" y="210" type="curve"/>
      <point x="247" y="172"/>
      <point x="245" y="138"/>
      <point x="247" y="109" type="curve" smooth="yes"/>
      <point x="250" y="64"/>
      <point x="253" y="52"/>
      <point x="291" y="45" type="curve" smooth="yes"/>
      <point x="308" y="42"/>
      <point x="312" y="26"/>
      <point x="312" y="20" type="curve" smooth="yes"/>
      <point x="312" y="10"/>
      <point x="303" y="-3"/>
      <point x="294" y="-3" type="curve" smooth="yes"/>
      <point x="227" y="4"/>
      <point x="115" y="3"/>
      <point x="40" y="-4" type="curve" smooth="yes"/>
      <point x="23" y="-6"/>
      <point x="18" y="11"/>
      <point x="18" y="19" type="curve" smooth="yes"/>
      <point x="18" y="24"/>
      <point x="26" y="41"/>
      <point x="35" y="43" type="curve" smooth="yes"/>
      <point x="93" y="54"/>
      <point x="98" y="56"/>
      <point x="103" y="117" type="curve" smooth="yes"/>
      <point x="104" y="141"/>
      <point x="109" y="259"/>
      <point x="107" y="343" type="curve" smooth="yes"/>
      <point x="107" y="362"/>
      <point x="92" y="366"/>
      <point x="75" y="365" type="curve" smooth="yes"/>
      <point x="71" y="365"/>
      <point x="58" y="364"/>
      <point x="42" y="360" type="curve" smooth="yes"/>
      <point x="31" y="357"/>
      <point x="23" y="371"/>
      <point x="21" y="378" type="curve" smooth="yes"/>
      <point x="20" y="385"/>
      <point x="31" y="402"/>
      <point x="38" y="404" type="curve"/>
      <point x="68" y="418"/>
      <point x="148" y="440"/>
      <point x="195" y="450" type="curve" smooth="yes"/>
      <point x="218" y="455"/>
      <point x="243" y="459"/>
      <point x="243" y="434" type="curve" smooth="yes"/>
      <point x="243" y="417"/>
      <point x="239" y="389"/>
      <point x="239" y="369" type="curve" smooth="yes"/>
      <point x="239" y="346"/>
      <point x="247" y="337"/>
      <point x="268" y="360" type="curve" smooth="yes"/>
      <point x="317" y="416"/>
      <point x="359" y="455"/>
    </contour>
  </outline>
</glyph>
<glyph name="o" format="1">
  <advance width="516"/>
  <unicode hex="006F"/>
  <outline>
    <contour>
      <point x="240" y="-15" type="curve" smooth="yes"/>
      <point x="102" y="-15"/>
      <point x="34" y="73"/>
      <point x="34" y="204" type="curve" smooth="yes"/>
      <point x="34" y="302"/>
      <point x="123" y="454"/>
      <point x="285" y="454" type="curve" smooth="yes"/>
      <point x="417" y="454"/>
      <point x="482" y="349"/>
      <point x="482" y="254" type="curve" smooth="yes"/>
      <point x="482" y="68"/>
      <point x="358" y="-15"/>
    </contour>
    <contour>
      <point x="267" y="380" type="curve" smooth="yes"/>
      <point x="203" y="380"/>
      <point x="182" y="320"/>
      <point x="182" y="222" type="curve" smooth="yes"/>
      <point x="182" y="84"/>
      <point x="210" y="55"/>
      <point x="254" y="55" type="curve" smooth="yes"/>
      <point x="308" y="55"/>
      <point x="330" y="110"/>
      <point x="330" y="237" type="curve" smooth="yes"/>
      <point x="330" y="341"/>
      <point x="310" y="380"/>
    </contour>
  </outline>
</glyph>
<glyph name="p" format="1">
  <advance width="554"/>
  <unicode hex="0070"/>
  <outline>
    <contour>
      <point x="237" y="-3" type="curve" smooth="yes"/>
      <point x="213" y="5"/>
      <point x="219" y="-15"/>
      <point x="219" y="-37" type="curve" smooth="yes"/>
      <point x="219" y="-88"/>
      <point x="222" y="-121"/>
      <point x="228" y="-159" type="curve" smooth="yes"/>
      <point x="231" y="-173"/>
      <point x="239" y="-192"/>
      <point x="247" y="-208" type="curve" smooth="yes"/>
      <point x="253" y="-222"/>
      <point x="245" y="-247"/>
      <point x="232" y="-254" type="curve" smooth="yes"/>
      <point x="213" y="-263"/>
      <point x="131" y="-274"/>
      <point x="102" y="-274" type="curve" smooth="yes"/>
      <point x="90" y="-274"/>
      <point x="79" y="-264"/>
      <point x="76" y="-256" type="curve" smooth="yes"/>
      <point x="65" y="-234"/>
      <point x="70" y="-191"/>
      <point x="73" y="-162" type="curve" smooth="yes"/>
      <point x="79" y="-116"/>
      <point x="87" y="-66"/>
      <point x="88" y="-17" type="curve" smooth="yes"/>
      <point x="91" y="77"/>
      <point x="96" y="206"/>
      <point x="89" y="322" type="curve"/>
      <point x="88" y="359"/>
      <point x="97" y="386"/>
      <point x="29" y="380" type="curve"/>
      <point x="16" y="380"/>
      <point x="7" y="398"/>
      <point x="6" y="402" type="curve" smooth="yes"/>
      <point x="5" y="409"/>
      <point x="9" y="428"/>
      <point x="24" y="431" type="curve" smooth="yes"/>
      <point x="72" y="440"/>
      <point x="131" y="446"/>
      <point x="202" y="453" type="curve" smooth="yes"/>
      <point x="240" y="456"/>
      <point x="232" y="434"/>
      <point x="230" y="402" type="curve" smooth="yes"/>
      <point x="228" y="381"/>
      <point x="225" y="375"/>
      <point x="225" y="364" type="curve" smooth="yes"/>
      <point x="225" y="351"/>
      <point x="236" y="343"/>
      <point x="250" y="364" type="curve" smooth="yes"/>
      <point x="283" y="413"/>
      <point x="319" y="461"/>
      <point x="370" y="461" type="curve" smooth="yes"/>
      <point x="448" y="461"/>
      <point x="508" y="422"/>
      <point x="508" y="274" type="curve" smooth="yes"/>
      <point x="508" y="130"/>
      <point x="402" y="-8"/>
      <point x="279" y="-8" type="curve" smooth="yes"/>
      <point x="262" y="-8"/>
      <point x="249" y="-6"/>
    </contour>
    <contour>
      <point x="316" y="337" type="curve" smooth="yes"/>
      <point x="283" y="337"/>
      <point x="218" y="263"/>
      <point x="218" y="174" type="curve" smooth="yes"/>
      <point x="218" y="104"/>
      <point x="217" y="65"/>
      <point x="279" y="62" type="curve"/>
      <point x="327" y="61"/>
      <point x="368" y="90"/>
      <point x="368" y="224" type="curve" smooth="yes"/>
      <point x="368" y="301"/>
      <point x="344" y="337"/>
    </contour>
  </outline>
</glyph>
<glyph name="q" format="1">
  <advance width="546"/>
  <unicode hex="0071"/>
  <outline>
    <contour>
      <point x="434" y="501" type="curve" smooth="yes"/>
      <point x="439" y="515"/>
      <point x="454" y="523"/>
      <point x="463" y="523" type="curve" smooth="yes"/>
      <point x="481" y="522"/>
      <point x="481" y="509"/>
      <point x="481" y="503" type="curve" smooth="yes"/>
      <point x="481" y="493"/>
      <point x="471" y="460"/>
      <point x="470" y="442" type="curve" smooth="yes"/>
      <point x="456" y="301"/>
      <point x="458" y="98"/>
      <point x="458" y="-51" type="curve" smooth="yes"/>
      <point x="458" y="-94"/>
      <point x="461" y="-125"/>
      <point x="466" y="-159" type="curve" smooth="yes"/>
      <point x="469" y="-173"/>
      <point x="477" y="-192"/>
      <point x="485" y="-208" type="curve" smooth="yes"/>
      <point x="492" y="-222"/>
      <point x="483" y="-247"/>
      <point x="471" y="-254" type="curve"/>
      <point x="451" y="-263"/>
      <point x="370" y="-274"/>
      <point x="340" y="-274" type="curve" smooth="yes"/>
      <point x="328" y="-274"/>
      <point x="317" y="-264"/>
      <point x="314" y="-256" type="curve" smooth="yes"/>
      <point x="303" y="-234"/>
      <point x="308" y="-191"/>
      <point x="311" y="-162" type="curve"/>
      <point x="321" y="-98"/>
      <point x="327" y="-31"/>
      <point x="325" y="35" type="curve" smooth="yes"/>
      <point x="325" y="60"/>
      <point x="316" y="65"/>
      <point x="298" y="46" type="curve"/>
      <point x="267" y="16"/>
      <point x="227" y="-13"/>
      <point x="193" y="-13" type="curve" smooth="yes"/>
      <point x="56" y="-13"/>
      <point x="34" y="98"/>
      <point x="34" y="150" type="curve" smooth="yes"/>
      <point x="34" y="331"/>
      <point x="168" y="454"/>
      <point x="295" y="454" type="curve" smooth="yes"/>
      <point x="333" y="454"/>
      <point x="343" y="447"/>
      <point x="357" y="441" type="curve" smooth="yes"/>
      <point x="375" y="433"/>
      <point x="391" y="431"/>
      <point x="400" y="444" type="curve" smooth="yes"/>
      <point x="411" y="461"/>
      <point x="423" y="474"/>
    </contour>
    <contour>
      <point x="239" y="99" type="curve" smooth="yes"/>
      <point x="294" y="99"/>
      <point x="319" y="162"/>
      <point x="325" y="214" type="curve" smooth="yes"/>
      <point x="329" y="251"/>
      <point x="343" y="375"/>
      <point x="279" y="375" type="curve" smooth="yes"/>
      <point x="199" y="375"/>
      <point x="180" y="288"/>
      <point x="180" y="188" type="curve" smooth="yes"/>
      <point x="180" y="120"/>
      <point x="220" y="99"/>
    </contour>
  </outline>
</glyph>
<glyph name="r" format="1">
  <advance width="471"/>
  <unicode hex="0072"/>
  <outline>
    <contour>
      <point x="21" y="16" type="curve" smooth="yes"/>
      <point x="20" y="25"/>
      <point x="32" y="45"/>
      <point x="37" y="45" type="curve" smooth="yes"/>
      <point x="77" y="51"/>
      <point x="98" y="52"/>
      <point x="101" y="86" type="curve" smooth="yes"/>
      <point x="109" y="166"/>
      <point x="107" y="275"/>
      <point x="107" y="336" type="curve"/>
      <point x="106" y="370"/>
      <point x="93" y="396"/>
      <point x="45" y="391" type="curve" smooth="yes"/>
      <point x="27" y="389"/>
      <point x="23" y="405"/>
      <point x="23" y="411" type="curve" smooth="yes"/>
      <point x="23" y="419"/>
      <point x="27" y="430"/>
      <point x="45" y="434" type="curve"/>
      <point x="63" y="435"/>
      <point x="178" y="449"/>
      <point x="205" y="450" type="curve" smooth="yes"/>
      <point x="237" y="452"/>
      <point x="258" y="451"/>
      <point x="259" y="423" type="curve" smooth="yes"/>
      <point x="259" y="396"/>
      <point x="252" y="376"/>
      <point x="251" y="351" type="curve" smooth="yes"/>
      <point x="250" y="333"/>
      <point x="269" y="332"/>
      <point x="279" y="348" type="curve" smooth="yes"/>
      <point x="303" y="391"/>
      <point x="342" y="453"/>
      <point x="398" y="459" type="curve" smooth="yes"/>
      <point x="444" y="464"/>
      <point x="455" y="434"/>
      <point x="455" y="403" type="curve" smooth="yes"/>
      <point x="455" y="357"/>
      <point x="444" y="254"/>
      <point x="424" y="221" type="curve" smooth="yes"/>
      <point x="419" y="212"/>
      <point x="405" y="207"/>
      <point x="396" y="210" type="curve" smooth="yes"/>
      <point x="387" y="212"/>
      <point x="380" y="221"/>
      <point x="382" y="231" type="curve" smooth="yes"/>
      <point x="388" y="253"/>
      <point x="391" y="311"/>
      <point x="338" y="311" type="curve"/>
      <point x="306" y="310"/>
      <point x="284" y="284"/>
      <point x="271" y="257" type="curve" smooth="yes"/>
      <point x="255" y="221"/>
      <point x="254" y="152"/>
      <point x="257" y="118" type="curve"/>
      <point x="258" y="61"/>
      <point x="273" y="56"/>
      <point x="313" y="47" type="curve" smooth="yes"/>
      <point x="327" y="44"/>
      <point x="339" y="32"/>
      <point x="339" y="21" type="curve" smooth="yes"/>
      <point x="339" y="12"/>
      <point x="329" y="-4"/>
      <point x="313" y="-2" type="curve" smooth="yes"/>
      <point x="244" y="4"/>
      <point x="130" y="5"/>
      <point x="44" y="-3" type="curve" smooth="yes"/>
      <point x="38" y="-4"/>
      <point x="22" y="6"/>
    </contour>
  </outline>
</glyph>
<glyph name="t" format="1">
  <advance width="385"/>
  <unicode hex="0074"/>
  <outline>
    <contour>
      <point x="208" y="576" type="curve" smooth="yes"/>
      <point x="220" y="576"/>
      <point x="222" y="566"/>
      <point x="224" y="560" type="curve"/>
      <point x="227" y="539"/>
      <point x="218" y="484"/>
      <point x="220" y="457" type="curve" smooth="yes"/>
      <point x="220" y="448"/>
      <point x="220" y="441"/>
      <point x="237" y="441" type="curve" smooth="yes"/>
      <point x="265" y="441"/>
      <point x="295" y="448"/>
      <point x="333" y="448" type="curve" smooth="yes"/>
      <point x="348" y="448"/>
      <point x="355" y="444"/>
      <point x="355" y="436" type="curve" smooth="yes"/>
      <point x="355" y="425"/>
      <point x="348" y="402"/>
      <point x="340" y="391" type="curve" smooth="yes"/>
      <point x="335" y="385"/>
      <point x="323" y="374"/>
      <point x="310" y="375" type="curve" smooth="yes"/>
      <point x="277" y="378"/>
      <point x="258" y="384"/>
      <point x="235" y="384" type="curve" smooth="yes"/>
      <point x="216" y="384"/>
      <point x="219" y="377"/>
      <point x="219" y="366" type="curve"/>
      <point x="216" y="338"/>
      <point x="213" y="165"/>
      <point x="216" y="136" type="curve" smooth="yes"/>
      <point x="220" y="106"/>
      <point x="230" y="101"/>
      <point x="247" y="101" type="curve" smooth="yes"/>
      <point x="260" y="101"/>
      <point x="296" y="127"/>
      <point x="311" y="139" type="curve" smooth="yes"/>
      <point x="322" y="148"/>
      <point x="343" y="139"/>
      <point x="348" y="133" type="curve"/>
      <point x="355" y="128"/>
      <point x="353" y="100"/>
      <point x="334" y="82" type="curve"/>
      <point x="317" y="64"/>
      <point x="231" y="-13"/>
      <point x="168" y="-13" type="curve" smooth="yes"/>
      <point x="126" y="-13"/>
      <point x="74" y="49"/>
      <point x="74" y="123" type="curve" smooth="yes"/>
      <point x="74" y="184"/>
      <point x="80" y="273"/>
      <point x="80" y="372" type="curve" smooth="yes"/>
      <point x="80" y="382"/>
      <point x="76" y="386"/>
      <point x="67" y="386" type="curve"/>
      <point x="57" y="389"/>
      <point x="34" y="387"/>
      <point x="19" y="389" type="curve"/>
      <point x="5" y="389"/>
      <point x="9" y="407"/>
      <point x="14" y="423" type="curve" smooth="yes"/>
      <point x="17" y="432"/>
      <point x="26" y="444"/>
      <point x="35" y="444" type="curve" smooth="yes"/>
      <point x="48" y="444"/>
      <point x="59" y="444"/>
      <point x="68" y="445" type="curve" smooth="yes"/>
      <point x="83" y="446"/>
      <point x="96" y="456"/>
      <point x="104" y="464" type="curve" smooth="yes"/>
      <point x="144" y="505"/>
      <point x="155" y="524"/>
      <point x="178" y="557" type="curve" smooth="yes"/>
      <point x="183" y="563"/>
      <point x="198" y="576"/>
    </contour>
  </outline>
</glyph>
<glyph name="u" format="1">
  <advance width="593"/>
  <unicode hex="0075"/>
  <outline>
    <contour>
      <point x="312" y="426" type="curve" smooth="yes"/>
      <point x="350" y="434"/>
      <point x="442" y="451"/>
      <point x="467" y="451" type="curve" smooth="yes"/>
      <point x="494" y="451"/>
      <point x="501" y="444"/>
      <point x="500" y="424" type="curve" smooth="yes"/>
      <point x="497" y="334"/>
      <point x="489" y="229"/>
      <point x="491" y="135" type="curve" smooth="yes"/>
      <point x="492" y="77"/>
      <point x="504" y="63"/>
      <point x="541" y="69" type="curve"/>
      <point x="553" y="72"/>
      <point x="574" y="65"/>
      <point x="575" y="49" type="curve" smooth="yes"/>
      <point x="576" y="44"/>
      <point x="571" y="23"/>
      <point x="560" y="19" type="curve" smooth="yes"/>
      <point x="516" y="6"/>
      <point x="412" y="-10"/>
      <point x="390" y="-10" type="curve" smooth="yes"/>
      <point x="362" y="-10"/>
      <point x="364" y="3"/>
      <point x="362" y="24" type="curve" smooth="yes"/>
      <point x="359" y="49"/>
      <point x="359" y="56"/>
      <point x="362" y="74" type="curve" smooth="yes"/>
      <point x="364" y="90"/>
      <point x="347" y="93"/>
      <point x="338" y="82" type="curve" smooth="yes"/>
      <point x="303" y="35"/>
      <point x="254" y="-13"/>
      <point x="193" y="-13" type="curve" smooth="yes"/>
      <point x="111" y="-13"/>
      <point x="66" y="38"/>
      <point x="66" y="123" type="curve" smooth="yes"/>
      <point x="66" y="213"/>
      <point x="76" y="250"/>
      <point x="72" y="348" type="curve" smooth="yes"/>
      <point x="71" y="369"/>
      <point x="66" y="387"/>
      <point x="26" y="380" type="curve" smooth="yes"/>
      <point x="19" y="378"/>
      <point x="-3" y="383"/>
      <point x="-4" y="395" type="curve" smooth="yes"/>
      <point x="-5" y="410"/>
      <point x="3" y="419"/>
      <point x="11" y="423" type="curve" smooth="yes"/>
      <point x="38" y="433"/>
      <point x="173" y="451"/>
      <point x="191" y="451" type="curve" smooth="yes"/>
      <point x="204" y="451"/>
      <point x="214" y="451"/>
      <point x="214" y="430" type="curve"/>
      <point x="215" y="411"/>
      <point x="205" y="226"/>
      <point x="205" y="183" type="curve" smooth="yes"/>
      <point x="205" y="150"/>
      <point x="219" y="110"/>
      <point x="258" y="110" type="curve" smooth="yes"/>
      <point x="285" y="110"/>
      <point x="354" y="171"/>
      <point x="359" y="235" type="curve" smooth="yes"/>
      <point x="364" y="295"/>
      <point x="365" y="280"/>
      <point x="364" y="351" type="curve" smooth="yes"/>
      <point x="363" y="386"/>
      <point x="335" y="384"/>
      <point x="321" y="382" type="curve" smooth="yes"/>
      <point x="310" y="380"/>
      <point x="298" y="387"/>
      <point x="296" y="398" type="curve"/>
      <point x="295" y="410"/>
      <point x="302" y="424"/>
    </contour>
  </outline>
</glyph>
<glyph name="v" format="1">
  <advance width="544"/>
  <unicode hex="0076"/>
  <outline>
    <contour>
      <point x="209" y="-8" type="curve" smooth="yes"/>
      <point x="192" y="-8"/>
      <point x="183" y="34"/>
      <point x="176" y="58" type="curve" smooth="yes"/>
      <point x="152" y="146"/>
      <point x="114" y="261"/>
      <point x="77" y="338" type="curve" smooth="yes"/>
      <point x="55" y="386"/>
      <point x="47" y="385"/>
      <point x="2" y="400" type="curve" smooth="yes"/>
      <point x="-10" y="403"/>
      <point x="-17" y="418"/>
      <point x="-16" y="425" type="curve" smooth="yes"/>
      <point x="-15" y="434"/>
      <point x="-6" y="449"/>
      <point x="8" y="447" type="curve" smooth="yes"/>
      <point x="82" y="439"/>
      <point x="174" y="436"/>
      <point x="247" y="446" type="curve" smooth="yes"/>
      <point x="264" y="449"/>
      <point x="279" y="441"/>
      <point x="279" y="425" type="curve" smooth="yes"/>
      <point x="279" y="418"/>
      <point x="274" y="406"/>
      <point x="259" y="400" type="curve" smooth="yes"/>
      <point x="230" y="389"/>
      <point x="231" y="352"/>
      <point x="234" y="335" type="curve"/>
      <point x="240" y="311"/>
      <point x="280" y="194"/>
      <point x="295" y="160" type="curve"/>
      <point x="300" y="152"/>
      <point x="321" y="152"/>
      <point x="324" y="160" type="curve" smooth="yes"/>
      <point x="362" y="249"/>
      <point x="371" y="279"/>
      <point x="391" y="354" type="curve" smooth="yes"/>
      <point x="397" y="376"/>
      <point x="380" y="392"/>
      <point x="355" y="398" type="curve" smooth="yes"/>
      <point x="338" y="403"/>
      <point x="330" y="420"/>
      <point x="332" y="428" type="curve" smooth="yes"/>
      <point x="335" y="436"/>
      <point x="348" y="449"/>
      <point x="361" y="447" type="curve" smooth="yes"/>
      <point x="388" y="442"/>
      <point x="434" y="443"/>
      <point x="465" y="443" type="curve" smooth="yes"/>
      <point x="488" y="443"/>
      <point x="510" y="447"/>
      <point x="516" y="448" type="curve" smooth="yes"/>
      <point x="525" y="449"/>
      <point x="535" y="436"/>
      <point x="535" y="428" type="curve" smooth="yes"/>
      <point x="535" y="418"/>
      <point x="529" y="410"/>
      <point x="519" y="402" type="curve" smooth="yes"/>
      <point x="500" y="386"/>
      <point x="487" y="366"/>
      <point x="476" y="349" type="curve" smooth="yes"/>
      <point x="445" y="298"/>
      <point x="409" y="215"/>
      <point x="377" y="126" type="curve" smooth="yes"/>
      <point x="375" y="119"/>
      <point x="354" y="72"/>
      <point x="351" y="58" type="curve" smooth="yes"/>
      <point x="347" y="40"/>
      <point x="345" y="22"/>
      <point x="324" y="12" type="curve" smooth="yes"/>
      <point x="291" y="-4"/>
      <point x="261" y="-8"/>
    </contour>
  </outline>
</glyph>
<glyph name="w" format="1">
  <advance width="882"/>
  <unicode hex="0077"/>
  <outline>
    <contour>
      <point x="534" y="-8" type="curve" smooth="yes"/>
      <point x="517" y="-8"/>
      <point x="508" y="34"/>
      <point x="501" y="58" type="curve" smooth="yes"/>
      <point x="485" y="114"/>
      <point x="470" y="175"/>
      <point x="448" y="237" type="curve"/>
      <point x="444" y="245"/>
      <point x="433" y="255"/>
      <point x="423" y="237" type="curve"/>
      <point x="407" y="201"/>
      <point x="391" y="166"/>
      <point x="375" y="126" type="curve"/>
      <point x="371" y="119"/>
      <point x="354" y="72"/>
      <point x="350" y="58" type="curve" smooth="yes"/>
      <point x="346" y="40"/>
      <point x="343" y="22"/>
      <point x="322" y="12" type="curve" smooth="yes"/>
      <point x="290" y="-4"/>
      <point x="256" y="-8"/>
      <point x="204" y="-8" type="curve" smooth="yes"/>
      <point x="187" y="-8"/>
      <point x="178" y="34"/>
      <point x="171" y="58" type="curve" smooth="yes"/>
      <point x="146" y="146"/>
      <point x="114" y="261"/>
      <point x="77" y="338" type="curve" smooth="yes"/>
      <point x="55" y="386"/>
      <point x="47" y="385"/>
      <point x="2" y="400" type="curve" smooth="yes"/>
      <point x="-10" y="403"/>
      <point x="-17" y="418"/>
      <point x="-16" y="425" type="curve" smooth="yes"/>
      <point x="-15" y="434"/>
      <point x="-6" y="449"/>
      <point x="8" y="447" type="curve" smooth="yes"/>
      <point x="82" y="439"/>
      <point x="174" y="436"/>
      <point x="247" y="446" type="curve" smooth="yes"/>
      <point x="264" y="449"/>
      <point x="279" y="441"/>
      <point x="279" y="425" type="curve" smooth="yes"/>
      <point x="279" y="418"/>
      <point x="274" y="406"/>
      <point x="259" y="400" type="curve" smooth="yes"/>
      <point x="230" y="389"/>
      <point x="231" y="352"/>
      <point x="234" y="335" type="curve"/>
      <point x="240" y="311"/>
      <point x="279" y="194"/>
      <point x="294" y="160" type="curve"/>
      <point x="300" y="149"/>
      <point x="317" y="147"/>
      <point x="322" y="160" type="curve"/>
      <point x="364" y="249"/>
      <point x="373" y="273"/>
      <point x="393" y="348" type="curve" smooth="yes"/>
      <point x="402" y="379"/>
      <point x="390" y="386"/>
      <point x="351" y="400" type="curve"/>
      <point x="339" y="403"/>
      <point x="332" y="418"/>
      <point x="333" y="425" type="curve" smooth="yes"/>
      <point x="334" y="434"/>
      <point x="343" y="449"/>
      <point x="358" y="447" type="curve" smooth="yes"/>
      <point x="431" y="439"/>
      <point x="511" y="436"/>
      <point x="583" y="446" type="curve" smooth="yes"/>
      <point x="601" y="449"/>
      <point x="615" y="441"/>
      <point x="616" y="425" type="curve" smooth="yes"/>
      <point x="616" y="418"/>
      <point x="610" y="406"/>
      <point x="596" y="400" type="curve" smooth="yes"/>
      <point x="566" y="389"/>
      <point x="568" y="352"/>
      <point x="571" y="335" type="curve"/>
      <point x="577" y="311"/>
      <point x="611" y="190"/>
      <point x="626" y="156" type="curve" smooth="yes"/>
      <point x="630" y="147"/>
      <point x="652" y="147"/>
      <point x="655" y="156" type="curve"/>
      <point x="696" y="245"/>
      <point x="712" y="279"/>
      <point x="725" y="354" type="curve" smooth="yes"/>
      <point x="729" y="376"/>
      <point x="719" y="392"/>
      <point x="694" y="398" type="curve" smooth="yes"/>
      <point x="677" y="403"/>
      <point x="669" y="420"/>
      <point x="672" y="428" type="curve" smooth="yes"/>
      <point x="674" y="436"/>
      <point x="687" y="449"/>
      <point x="700" y="447" type="curve" smooth="yes"/>
      <point x="727" y="442"/>
      <point x="777" y="443"/>
      <point x="808" y="443" type="curve" smooth="yes"/>
      <point x="831" y="443"/>
      <point x="853" y="447"/>
      <point x="859" y="448" type="curve" smooth="yes"/>
      <point x="868" y="449"/>
      <point x="877" y="436"/>
      <point x="877" y="428" type="curve" smooth="yes"/>
      <point x="877" y="418"/>
      <point x="871" y="410"/>
      <point x="862" y="402" type="curve" smooth="yes"/>
      <point x="843" y="386"/>
      <point x="829" y="366"/>
      <point x="819" y="349" type="curve" smooth="yes"/>
      <point x="788" y="298"/>
      <point x="742" y="215"/>
      <point x="710" y="126" type="curve" smooth="yes"/>
      <point x="707" y="119"/>
      <point x="689" y="72"/>
      <point x="686" y="58" type="curve" smooth="yes"/>
      <point x="682" y="40"/>
      <point x="679" y="22"/>
      <point x="658" y="12" type="curve" smooth="yes"/>
      <point x="625" y="-4"/>
      <point x="586" y="-8"/>
    </contour>
  </outline>
</glyph>
<glyph name="x" format="1">
  <advance width="644"/>
  <unicode hex="0078"/>
  <outline>
    <contour>
      <point x="43" y="424" type="curve" smooth="yes"/>
      <point x="43" y="438"/>
      <point x="56" y="446"/>
      <point x="77" y="444" type="curve"/>
      <point x="126" y="442"/>
      <point x="247" y="442"/>
      <point x="301" y="447" type="curve"/>
      <point x="309" y="449"/>
      <point x="325" y="439"/>
      <point x="325" y="428" type="curve" smooth="yes"/>
      <point x="325" y="421"/>
      <point x="326" y="417"/>
      <point x="312" y="404" type="curve"/>
      <point x="305" y="396"/>
      <point x="307" y="383"/>
      <point x="320" y="364" type="curve" smooth="yes"/>
      <point x="338" y="337"/>
      <point x="342" y="332"/>
      <point x="356" y="316" type="curve" smooth="yes"/>
      <point x="363" y="308"/>
      <point x="371" y="311"/>
      <point x="377" y="316" type="curve" smooth="yes"/>
      <point x="398" y="333"/>
      <point x="413" y="345"/>
      <point x="423" y="365" type="curve" smooth="yes"/>
      <point x="433" y="384"/>
      <point x="439" y="403"/>
      <point x="421" y="410" type="curve" smooth="yes"/>
      <point x="410" y="415"/>
      <point x="399" y="419"/>
      <point x="399" y="428" type="curve" smooth="yes"/>
      <point x="399" y="434"/>
      <point x="407" y="447"/>
      <point x="423" y="446" type="curve" smooth="yes"/>
      <point x="461" y="442"/>
      <point x="546" y="443"/>
      <point x="582" y="444" type="curve"/>
      <point x="593" y="446"/>
      <point x="603" y="432"/>
      <point x="603" y="425" type="curve" smooth="yes"/>
      <point x="603" y="408"/>
      <point x="562" y="395"/>
      <point x="550" y="386" type="curve" smooth="yes"/>
      <point x="493" y="344"/>
      <point x="455" y="310"/>
      <point x="407" y="263" type="curve" smooth="yes"/>
      <point x="397" y="253"/>
      <point x="399" y="250"/>
      <point x="404" y="241" type="curve" smooth="yes"/>
      <point x="444" y="180"/>
      <point x="471" y="148"/>
      <point x="522" y="91" type="curve" smooth="yes"/>
      <point x="539" y="71"/>
      <point x="569" y="53"/>
      <point x="593" y="46" type="curve"/>
      <point x="615" y="38"/>
      <point x="625" y="30"/>
      <point x="625" y="19" type="curve" smooth="yes"/>
      <point x="625" y="9"/>
      <point x="618" y="-5"/>
      <point x="598" y="-4" type="curve"/>
      <point x="555" y="1"/>
      <point x="434" y="4"/>
      <point x="375" y="-4" type="curve" smooth="yes"/>
      <point x="353" y="-6"/>
      <point x="346" y="10"/>
      <point x="346" y="19" type="curve" smooth="yes"/>
      <point x="346" y="23"/>
      <point x="348" y="34"/>
      <point x="358" y="43" type="curve"/>
      <point x="365" y="52"/>
      <point x="359" y="70"/>
      <point x="353" y="82" type="curve"/>
      <point x="342" y="100"/>
      <point x="316" y="129"/>
      <point x="299" y="150" type="curve" smooth="yes"/>
      <point x="293" y="157"/>
      <point x="282" y="155"/>
      <point x="275" y="151" type="curve"/>
      <point x="253" y="131"/>
      <point x="241" y="122"/>
      <point x="228" y="102" type="curve" smooth="yes"/>
      <point x="216" y="83"/>
      <point x="215" y="82"/>
      <point x="215" y="69" type="curve"/>
      <point x="216" y="58"/>
      <point x="217" y="49"/>
      <point x="237" y="45" type="curve" smooth="yes"/>
      <point x="253" y="41"/>
      <point x="265" y="32"/>
      <point x="265" y="17" type="curve" smooth="yes"/>
      <point x="265" y="8"/>
      <point x="250" y="-3"/>
      <point x="237" y="-1" type="curve" smooth="yes"/>
      <point x="200" y="3"/>
      <point x="80" y="2"/>
      <point x="33" y="-3" type="curve"/>
      <point x="23" y="-3"/>
      <point x="15" y="0"/>
      <point x="15" y="11" type="curve" smooth="yes"/>
      <point x="15" y="24"/>
      <point x="26" y="38"/>
      <point x="39" y="43" type="curve" smooth="yes"/>
      <point x="69" y="56"/>
      <point x="82" y="70"/>
      <point x="120" y="97" type="curve" smooth="yes"/>
      <point x="145" y="114"/>
      <point x="217" y="183"/>
      <point x="241" y="205" type="curve" smooth="yes"/>
      <point x="248" y="212"/>
      <point x="247" y="227"/>
      <point x="241" y="236" type="curve" smooth="yes"/>
      <point x="214" y="273"/>
      <point x="171" y="336"/>
      <point x="131" y="372" type="curve" smooth="yes"/>
      <point x="117" y="385"/>
      <point x="87" y="393"/>
      <point x="61" y="402" type="curve" smooth="yes"/>
      <point x="47" y="406"/>
      <point x="43" y="418"/>
    </contour>
  </outline>
</glyph>
<glyph name="braceleft" format="1">
  <advance width="283"/>
  <unicode hex="007B"/>
  <outline>
    <contour>
      <point x="199" y="631" type="curve" smooth="yes"/>
      <point x="222" y="631"/>
      <point x="224" y="620"/>
      <point x="224" y="613" type="curve" smooth="yes"/>
      <point x="224" y="584"/>
      <point x="173" y="595"/>
      <point x="173" y="513" type="curve"/>
      <point x="175" y="467"/>
      <point x="211" y="418"/>
      <point x="211" y="355" type="curve" smooth="yes"/>
      <point x="211" y="320"/>
      <point x="188" y="313"/>
      <point x="188" y="300" type="curve" smooth="yes"/>
      <point x="188" y="286"/>
      <point x="210" y="288"/>
      <point x="210" y="249" type="curve" smooth="yes"/>
      <point x="210" y="202"/>
      <point x="173" y="134"/>
      <point x="173" y="83" type="curve" smooth="yes"/>
      <point x="173" y="-1"/>
      <point x="224" y="19"/>
      <point x="224" y="-14" type="curve" smooth="yes"/>
      <point x="224" y="-24"/>
      <point x="214" y="-34"/>
      <point x="185" y="-34" type="curve" smooth="yes"/>
      <point x="84" y="-34"/>
      <point x="34" y="-4"/>
      <point x="34" y="63" type="curve" smooth="yes"/>
      <point x="34" y="130"/>
      <point x="141" y="180"/>
      <point x="141" y="247" type="curve" smooth="yes"/>
      <point x="141" y="267"/>
      <point x="124" y="271"/>
      <point x="98" y="271" type="curve" smooth="yes"/>
      <point x="66" y="271"/>
      <point x="30" y="247"/>
      <point x="39" y="302" type="curve"/>
      <point x="50" y="354"/>
      <point x="62" y="330"/>
      <point x="100" y="330" type="curve" smooth="yes"/>
      <point x="120" y="330"/>
      <point x="156" y="326"/>
      <point x="156" y="367" type="curve" smooth="yes"/>
      <point x="156" y="417"/>
      <point x="37" y="464"/>
      <point x="37" y="536" type="curve" smooth="yes"/>
      <point x="37" y="587"/>
      <point x="100" y="631"/>
    </contour>
  </outline>
</glyph>
<glyph name="bar" format="1">
  <advance width="339"/>
  <unicode hex="007C"/>
  <outline>
    <contour>
      <point x="128" y="-50" type="curve" smooth="yes"/>
      <point x="128" y="-5"/>
      <point x="127" y="502"/>
      <point x="128" y="549" type="curve" smooth="yes"/>
      <point x="128" y="561"/>
      <point x="128" y="575"/>
      <point x="135" y="586" type="curve"/>
      <point x="143" y="603"/>
      <point x="193" y="614"/>
      <point x="201" y="614" type="curve" smooth="yes"/>
      <point x="220" y="614"/>
      <point x="213" y="594"/>
      <point x="210" y="569" type="curve" smooth="yes"/>
      <point x="202" y="475"/>
      <point x="201" y="123"/>
      <point x="199" y="-34" type="curve" smooth="yes"/>
      <point x="199" y="-55"/>
      <point x="184" y="-70"/>
      <point x="168" y="-74" type="curve" smooth="yes"/>
      <point x="135" y="-83"/>
      <point x="128" y="-72"/>
    </contour>
  </outline>
</glyph>
<glyph name="braceright" format="1">
  <advance width="283"/>
  <unicode hex="007D"/>
  <outline>
    <contour>
      <point x="83" y="-34" type="curve" smooth="yes"/>
      <point x="61" y="-34"/>
      <point x="59" y="-22"/>
      <point x="59" y="-15" type="curve" smooth="yes"/>
      <point x="59" y="13"/>
      <point x="109" y="3"/>
      <point x="109" y="84" type="curve"/>
      <point x="108" y="130"/>
      <point x="72" y="180"/>
      <point x="72" y="242" type="curve" smooth="yes"/>
      <point x="72" y="278"/>
      <point x="95" y="285"/>
      <point x="95" y="298" type="curve" smooth="yes"/>
      <point x="95" y="311"/>
      <point x="73" y="310"/>
      <point x="73" y="348" type="curve" smooth="yes"/>
      <point x="73" y="396"/>
      <point x="110" y="464"/>
      <point x="110" y="514" type="curve" smooth="yes"/>
      <point x="110" y="598"/>
      <point x="59" y="579"/>
      <point x="59" y="612" type="curve" smooth="yes"/>
      <point x="59" y="622"/>
      <point x="69" y="631"/>
      <point x="98" y="631" type="curve" smooth="yes"/>
      <point x="199" y="631"/>
      <point x="249" y="602"/>
      <point x="249" y="535" type="curve" smooth="yes"/>
      <point x="249" y="467"/>
      <point x="141" y="418"/>
      <point x="141" y="351" type="curve" smooth="yes"/>
      <point x="141" y="331"/>
      <point x="159" y="327"/>
      <point x="185" y="327" type="curve" smooth="yes"/>
      <point x="216" y="327"/>
      <point x="253" y="351"/>
      <point x="244" y="295" type="curve"/>
      <point x="233" y="243"/>
      <point x="221" y="268"/>
      <point x="183" y="268" type="curve" smooth="yes"/>
      <point x="163" y="268"/>
      <point x="127" y="272"/>
      <point x="127" y="231" type="curve" smooth="yes"/>
      <point x="127" y="181"/>
      <point x="246" y="134"/>
      <point x="246" y="61" type="curve" smooth="yes"/>
      <point x="246" y="11"/>
      <point x="183" y="-34"/>
    </contour>
  </outline>
</glyph>
<glyph name="asciitilde" format="1">
  <advance width="436"/>
  <unicode hex="007E"/>
  <outline>
    <contour>
      <point x="37" y="165" type="curve" smooth="yes"/>
      <point x="25" y="171"/>
      <point x="34" y="199"/>
      <point x="41" y="212" type="curve" smooth="yes"/>
      <point x="98" y="309"/>
      <point x="135" y="320"/>
      <point x="221" y="291" type="curve" smooth="yes"/>
      <point x="276" y="273"/>
      <point x="308" y="260"/>
      <point x="344" y="292" type="curve" smooth="yes"/>
      <point x="357" y="303"/>
      <point x="370" y="310"/>
      <point x="380" y="306" type="curve" smooth="yes"/>
      <point x="396" y="301"/>
      <point x="403" y="289"/>
      <point x="396" y="270" type="curve" smooth="yes"/>
      <point x="346" y="141"/>
      <point x="281" y="146"/>
      <point x="205" y="173" type="curve"/>
      <point x="144" y="192"/>
      <point x="120" y="196"/>
      <point x="71" y="163" type="curve" smooth="yes"/>
      <point x="61" y="157"/>
      <point x="48" y="160"/>
    </contour>
  </outline>
</glyph>
<glyph name="exclamdown" format="1">
  <advance width="295"/>
  <unicode hex="00A1"/>
  <outline>
    <contour>
      <point x="233" y="-118" type="curve" smooth="yes"/>
      <point x="233" y="-141"/>
      <point x="227" y="-148"/>
      <point x="211" y="-153" type="curve" smooth="yes"/>
      <point x="184" y="-162"/>
      <point x="114" y="-167"/>
      <point x="84" y="-167" type="curve" smooth="yes"/>
      <point x="68" y="-167"/>
      <point x="60" y="-161"/>
      <point x="60" y="-140" type="curve" smooth="yes"/>
      <point x="60" y="-116"/>
      <point x="97" y="-13"/>
      <point x="100" y="3" type="curve" smooth="yes"/>
      <point x="114" y="63"/>
      <point x="120" y="176"/>
      <point x="123" y="219" type="curve" smooth="yes"/>
      <point x="125" y="239"/>
      <point x="134" y="247"/>
      <point x="153" y="247" type="curve"/>
      <point x="164" y="248"/>
      <point x="178" y="240"/>
      <point x="178" y="217" type="curve" smooth="yes"/>
      <point x="177" y="186"/>
      <point x="185" y="76"/>
      <point x="200" y="8" type="curve"/>
      <point x="205" y="-9"/>
      <point x="233" y="-104"/>
    </contour>
    <contour>
      <point x="148" y="323" type="curve" smooth="yes"/>
      <point x="107" y="323"/>
      <point x="72" y="343"/>
      <point x="72" y="377" type="curve" smooth="yes"/>
      <point x="72" y="434"/>
      <point x="121" y="458"/>
      <point x="163" y="458" type="curve" smooth="yes"/>
      <point x="229" y="458"/>
      <point x="240" y="423"/>
      <point x="240" y="394" type="curve" smooth="yes"/>
      <point x="240" y="347"/>
      <point x="180" y="323"/>
    </contour>
  </outline>
</glyph>
